SplineFontDB: 3.2
FontName: BS3693B1964
FullName: BS 3693B 1964 Extrapolated
FamilyName: BS 3693B 1964 Extrapolated
Weight: Regular
Copyright: Copyright (c) 2023, Chik W C Aaron
UComments: "2023-7-7: Created with FontForge (http://fontforge.org)"
Version: 001.000
DefaultBaseFilename: BS_3693B_1964_extrapolated
ItalicAngle: 0
UnderlinePosition: -96
UnderlineWidth: 45
Ascent: 974
Descent: 306
InvalidEm: 0
LayerCount: 2
Layer: 0 0 "Back" 1
Layer: 1 0 "Fore" 0
XUID: [1021 89 2023930680 12807]
StyleMap: 0x0040
FSType: 0
OS2Version: 0
OS2_WeightWidthSlopeOnly: 0
OS2_UseTypoMetrics: 1
CreationTime: 1688706552
ModificationTime: 1690665523
PfmFamily: 33
TTFWeight: 500
TTFWidth: 5
LineGap: 50
VLineGap: 0
Panose: 2 11 6 9 2 2 0 0 0 0
OS2TypoAscent: 150
OS2TypoAOffset: 1
OS2TypoDescent: 300
OS2TypoDOffset: 1
OS2TypoLinegap: 50
OS2WinAscent: 150
OS2WinAOffset: 1
OS2WinDescent: 300
OS2WinDOffset: 1
HheadAscent: 150
HheadAOffset: 1
HheadDescent: 300
HheadDOffset: 1
OS2CapHeight: 781
OS2XHeight: 257
OS2FamilyClass: 2050
OS2Vendor: 'PfEd'
OS2CodePages: 00000001.00000000
OS2UnicodeRanges: 00000001.00000000.00000000.00000000
Lookup: 1 0 0 "tnum" { "tnum" ("tabular") } ['tnum' ('DFLT' <'dflt' > ) ]
Lookup: 258 0 0 "'kern' Horizontal Kerning in Latin lookup 1" { "'kern' Horizontal Kerning in Latin lookup 1-1" [175,0,2] } ['kern' ('DFLT' <'dflt' > 'latn' <'dflt' > ) ]
MarkAttachClasses: 1
DEI: 91125
KernClass2: 83 71 "'kern' Horizontal Kerning in Latin lookup 1-1"
 58 A Agrave Aacute Acircumflex Atilde Adieresis Aring Amacron
 60 B S ograve ocircumflex odieresis Scircumflex Scedilla Scaron
 36 C Ccedilla Cacute Ccircumflex Ccaron
 65 D O Eth Ograve Oacute Ocircumflex Otilde Odieresis Dcaron Omacron
 55 E AE Egrave Eacute Ecircumflex Edieresis Emacron Ecaron
 1 F
 13 G Gcircumflex
 47 H M N d Ntilde Hcircumflex Nacute Ncaron utilde
 30 I Igrave Icircumflex Idieresis
 63 J U Ugrave Uacute Ucircumflex Udieresis IJ Utilde Umacron Uring
 1 K
 8 L Lacute
 1 P
 1 Q
 15 R Racute Rcaron

StartChar: zero
Encoding: 48 48 0
Width: 637
VWidth: 1000
Flags: HW
HStem: -6.83105 112.391<247.444 389.557> 699.629 112.391<245.811 391.19>
VStem: 49.5635 117.689<209.74 587.849> 90.668 115.683<142.001 218.068> 90.668 105.808<578.439 653.427> 430.65 115.685<142.001 218.068> 469.747 117.689<209.74 587.849>
LayerCount: 2
Fore
SplineSet
557.4921875 620.6328125 m 0xcc
 577.000976562 551.271484375 587.436523438 478.13671875 587.436523438 402.59375 c 0xc2
 587.436523438 370.080078125 585.510742188 337.96875 581.737304688 306.499023438 c 0
 578.926757812 259.213867188 569.454101562 213.696289062 554.041992188 170.987304688 c 0
 553.9609375 170.74609375 553.879882812 170.42578125 553.80078125 170.103515625 c 0
 551.631835938 162.71875 549.142578125 155.413085938 546.334960938 148.268554688 c 0
 546.334960938 148.21484375 546.307617188 148.161132812 546.25390625 148.107421875 c 0
 541.4375 135.905273438 535.65625 124.184570312 528.993164062 113.025390625 c 2
 528.913085938 112.944335938 l 2
 495.275390625 56.3486328125 439.401367188 14.5224609375 373.412109375 -0.650390625 c 0
 362.974609375 -3.05859375 352.21875 -4.7451171875 341.379882812 -5.7080078125 c 0
 333.833984375 -6.5107421875 326.208007812 -6.8310546875 318.500976562 -6.8310546875 c 0
 310.793945312 -6.8310546875 303.16796875 -6.5107421875 295.62109375 -5.7080078125 c 0
 284.784179688 -4.7451171875 274.026367188 -3.05859375 263.588867188 -0.650390625 c 0
 197.599609375 14.5224609375 141.725585938 56.3486328125 108.086914062 112.944335938 c 2
 108.0078125 113.025390625 l 2
 101.344726562 124.184570312 95.5634765625 135.905273438 90.7470703125 148.107421875 c 0
 90.6943359375 148.161132812 90.66796875 148.21484375 90.66796875 148.268554688 c 0xd4
 87.8583984375 155.413085938 85.369140625 162.71875 83.2021484375 170.103515625 c 0
 83.12109375 170.42578125 83.0400390625 170.74609375 82.9609375 170.987304688 c 0
 67.546875 213.696289062 58.0732421875 259.213867188 55.263671875 306.499023438 c 0
 51.4912109375 337.96875 49.5634765625 370.080078125 49.5634765625 402.59375 c 0xe0
 49.5634765625 478.13671875 60.0009765625 551.271484375 79.5087890625 620.6328125 c 0
 82.318359375 633.076171875 86.01171875 645.198242188 90.66796875 656.918945312 c 0
 90.66796875 656.97265625 90.6943359375 657.026367188 90.7470703125 657.079101562 c 0
 98.53515625 676.828125 108.891601562 695.372070312 121.333984375 712.231445312 c 0
 152.000976562 753.977539062 195.592773438 785.526367188 246.168945312 801.181640625 c 0
 262.064453125 806.079101562 278.6015625 809.370117188 295.62109375 810.895507812 c 0
 303.16796875 811.698242188 310.793945312 812.01953125 318.500976562 812.01953125 c 0
 326.208007812 812.01953125 333.833984375 811.698242188 341.379882812 810.895507812 c 0
 358.399414062 809.370117188 374.936523438 806.079101562 390.833007812 801.181640625 c 0
 441.408203125 785.526367188 485 753.977539062 515.666992188 712.231445312 c 0
 528.110351562 695.372070312 538.466796875 676.828125 546.25390625 657.079101562 c 0
 546.307617188 657.026367188 546.334960938 656.97265625 546.334960938 656.918945312 c 0
 550.348632812 644.95703125 554.041992188 632.834960938 557.4921875 620.6328125 c 0xcc
474.564453125 378.58984375 m 0
 474.884765625 386.538085938 475.045898438 394.565429688 475.045898438 402.59375 c 0
 475.045898438 410.622070312 474.884765625 418.649414062 474.564453125 426.596679688 c 0
 472.637695312 484.318359375 463.646484375 540.192382812 448.3125 593.498046875 c 0
 448.3125 593.658203125 448.232421875 593.739257812 448.232421875 593.899414062 c 0
 445.823242188 602.249023438 443.254882812 610.517578125 440.526367188 618.706054688 c 0
 440.526367188 618.786132812 440.526367188 618.866210938 440.4453125 618.947265625 c 0
 429.6875 644.154296875 411.384765625 665.428710938 388.34375 679.71875 c 0
 368.032226562 692.323242188 344.110351562 699.62890625 318.500976562 699.62890625 c 0
 292.890625 699.62890625 268.96875 692.323242188 248.657226562 679.71875 c 0
 225.618164062 665.428710938 207.313476562 644.154296875 196.555664062 618.947265625 c 0
 196.475585938 618.866210938 196.475585938 618.786132812 196.475585938 618.706054688 c 0xca
 193.747070312 610.517578125 191.176757812 602.249023438 188.768554688 593.899414062 c 0
 188.768554688 593.739257812 188.689453125 593.658203125 188.689453125 593.498046875 c 0
 173.354492188 540.192382812 164.364257812 484.318359375 162.436523438 426.596679688 c 0
 162.116210938 418.649414062 161.956054688 410.622070312 161.956054688 402.59375 c 0
 161.956054688 394.565429688 162.116210938 386.538085938 162.436523438 378.58984375 c 0
 163.079101562 357.716796875 164.684570312 337.165039062 167.252929688 316.85546875 c 2
 167.252929688 316.53515625 l 2xe0
 171.749023438 280.6484375 178.89453125 245.647460938 188.689453125 211.688476562 c 0
 188.689453125 211.529296875 188.768554688 211.448242188 188.768554688 211.288085938 c 0
 190.053710938 206.952148438 191.337890625 202.697265625 192.622070312 198.442382812 c 0
 196.716796875 187.92578125 201.29296875 177.650390625 206.350585938 167.616210938 c 0
 206.350585938 167.53515625 206.4296875 167.375 206.510742188 167.293945312 c 0
 229.952148438 130.205078125 271.376953125 105.559570312 318.500976562 105.559570312 c 0
 365.624023438 105.559570312 407.048828125 130.205078125 430.490234375 167.293945312 c 0
 430.571289062 167.375 430.650390625 167.53515625 430.650390625 167.616210938 c 0xd4
 435.708007812 177.650390625 440.28515625 187.92578125 444.37890625 198.442382812 c 0
 445.663085938 202.697265625 446.948242188 206.952148438 448.232421875 211.288085938 c 0
 448.232421875 211.448242188 448.3125 211.529296875 448.3125 211.688476562 c 0
 458.106445312 245.647460938 465.251953125 280.6484375 469.747070312 316.53515625 c 2
 469.747070312 316.85546875 l 2
 472.31640625 337.165039062 473.921875 357.716796875 474.564453125 378.58984375 c 0
EndSplineSet
Substitution2: "tnum" zero.tabular
EndChar

StartChar: one
Encoding: 49 49 1
Width: 212
VWidth: 1024
Flags: HW
HStem: 779.978 20G<49.8047 162.195>
VStem: 49.8047 112.391<1.19629 799.978>
LayerCount: 2
Fore
SplineSet
162.1953125 1.1962890625 m 1
 49.8046875 1.1962890625 l 1
 49.8046875 799.977539062 l 1
 162.1953125 799.977539062 l 1
 162.1953125 1.1962890625 l 1
EndSplineSet
Substitution2: "tnum" one.tabular
EndChar

StartChar: two
Encoding: 50 50 2
Width: 571
VWidth: 1024
Flags: HW
LayerCount: 2
Fore
SplineSet
211.883789062 170.024414062 m 0
 199.439453125 152.442382812 188.763671875 133.576171875 180.091796875 113.586914062 c 1
 493.182617188 113.586914062 l 1
 493.182617188 1.1962890625 l 1
 51.64453125 1.1962890625 l 1
 51.64453125 18.0546875 l 2
 51.64453125 99.4580078125 77.4150390625 174.840820312 121.248046875 236.49609375 c 0
 122.452148438 238.26171875 123.735351562 239.948242188 125.020507812 241.713867188 c 0
 127.830078125 245.407226562 130.720703125 249.098632812 133.530273438 252.791992188 c 0
 135.135742188 254.798828125 136.741210938 256.805664062 138.346679688 258.733398438 c 2
 138.587890625 259.053710938 l 2
 162.912109375 289.239257812 189.966796875 317.096679688 219.349609375 342.223632812 c 2
 329.412109375 435.588867188 l 2
 339.848632812 444.5 349.803710938 453.8125 359.357421875 463.364257812 c 0
 362.969726562 466.978515625 366.58203125 470.669921875 370.11328125 474.444335938 c 0
 373.1640625 477.655273438 376.0546875 480.946289062 379.026367188 484.23828125 c 0
 388.336914062 495.717773438 395.40234375 508.482421875 400.05859375 521.80859375 c 0
 404.794921875 535.215820312 407.123046875 549.184570312 407.203125 563.233398438 c 0
 407.364257812 595.504882812 395.081054688 627.858398438 370.435546875 652.50390625 c 0
 345.790039062 677.149414062 313.517578125 689.432617188 281.244140625 689.3515625 c 0
 263.26171875 689.3515625 245.359375 685.498046875 228.741210938 677.872070312 c 0
 226.4140625 676.828125 224.084960938 675.624023438 221.7578125 674.419921875 c 0
 191.4921875 658.524414062 164.357421875 635.725585938 142.922851562 606.34375 c 0
 139.953125 602.329101562 137.142578125 598.154296875 134.57421875 593.98046875 c 1
 49.71875 667.676757812 l 1
 85.603515625 715.122070312 131.041015625 751.970703125 181.69921875 777.659179688 c 0
 185.55078125 779.586914062 189.485351562 781.512695312 193.338867188 783.19921875 c 0
 221.196289062 795.481445312 251.139648438 801.743164062 281.244140625 801.743164062 c 0
 342.739257812 801.904296875 404.232421875 778.54296875 451.116210938 731.981445312 c 0
 498.080078125 685.418945312 521.440429688 624.325195312 521.280273438 563.313476562 c 1
 521.200195312 563.313476562 l 1
 521.120117188 510.408203125 503.216796875 457.424804688 467.573242188 414.073242188 c 0
 461.873046875 407.891601562 456.4140625 401.629882812 450.553710938 395.609375 c 0
 443.810546875 388.463867188 436.986328125 381.48046875 430.002929688 374.576171875 c 0
 422.135742188 366.708984375 391.387695312 340.778320312 382.798828125 333.473632812 c 2
 292.403320312 256.88671875 l 2
 268.239257812 236.174804688 246.08203125 213.294921875 226.091796875 188.568359375 c 2
 225.932617188 188.248046875 l 2
 224.567382812 186.721679688 223.283203125 185.037109375 221.999023438 183.431640625 c 0
 219.669921875 180.380859375 217.26171875 177.330078125 214.93359375 174.279296875 c 0
 213.890625 172.833984375 212.846679688 171.469726562 211.883789062 170.024414062 c 0
EndSplineSet
Substitution2: "tnum" two.tabular
EndChar

StartChar: three
Encoding: 51 51 3
Width: 606
VWidth: 1024
Flags: HW
HStem: -6.83105 112.391<209.632 365.348> 677.952 112.392<84.318 359.597>
VStem: 443.97 112.393<185.704 338.944>
LayerCount: 2
Fore
SplineSet
556.362304688 262.104492188 m 0
 556.362304688 248.778320312 555.399414062 235.693359375 553.471679688 222.927734375 c 0
 534.526367188 92.9560546875 422.616210938 -6.8310546875 287.42578125 -6.8310546875 c 0
 272.975585938 -6.8310546875 258.765625 -5.7080078125 244.876953125 -3.4599609375 c 0
 207.94921875 2.400390625 173.428710938 15.8076171875 143.163085938 35.154296875 c 0
 142.922851562 35.234375 142.681640625 35.3955078125 142.520507812 35.5556640625 c 0
 107.840820312 54.7431640625 76.53125 79.2275390625 49.6376953125 107.967773438 c 1
 59.51171875 119.368164062 l 1
 123.895507812 193.384765625 l 1
 145.411132812 168.499023438 171.421875 147.544921875 200.643554688 131.810546875 c 0
 200.723632812 131.731445312 200.803710938 131.731445312 200.96484375 131.650390625 c 0
 221.275390625 120.732421875 243.271484375 112.303710938 266.392578125 107.004882812 c 0
 273.295898438 106.041992188 280.28125 105.559570312 287.42578125 105.559570312 c 0
 373.885742188 105.559570312 443.969726562 175.643554688 443.969726562 262.104492188 c 0
 443.969726562 337.327148438 390.985351562 400.10546875 320.259765625 415.1171875 c 0
 319.055664062 415.438476562 317.931640625 415.6796875 316.7265625 415.83984375 c 0
 311.107421875 416.72265625 305.569335938 417.4453125 299.948242188 418.087890625 c 2
 299.869140625 418.087890625 l 2
 269.763671875 421.620117188 239.900390625 422.1015625 210.59765625 419.7734375 c 1
 274.661132812 530.719726562 l 1
 275.704101562 532.56640625 l 1
 359.596679688 677.952148438 l 1
 84.318359375 677.952148438 l 1
 84.318359375 790.34375 l 1
 536.934570312 790.34375 l 1
 471.98828125 677.952148438 l 1
 379.5859375 517.874023438 l 1
 378.140625 515.38671875 l 1
 468.375 483.034179688 536.291992188 403.877929688 552.587890625 307.221679688 c 0
 555.077148438 292.530273438 556.362304688 277.518554688 556.362304688 262.104492188 c 0
EndSplineSet
Substitution2: "tnum" three.tabular
EndChar

StartChar: four
Encoding: 52 52 4
Width: 676
VWidth: 1024
Flags: HW
LayerCount: 2
Fore
SplineSet
496.953125 320.708984375 m 1
 626.203125 320.708984375 l 1
 626.203125 208.31640625 l 1
 496.953125 208.31640625 l 1
 496.953125 1.1962890625 l 1
 384.561523438 1.1962890625 l 1
 384.561523438 208.31640625 l 1
 49.796875 208.31640625 l 1
 49.796875 320.708984375 l 1
 382.5546875 795.963867188 l 1
 496.953125 795.963867188 l 1
 496.953125 320.708984375 l 1
186.995117188 320.708984375 m 1
 384.561523438 320.708984375 l 1
 384.561523438 602.891601562 l 1
 186.995117188 320.708984375 l 1
EndSplineSet
Substitution2: "tnum" four.tabular
EndChar

StartChar: five
Encoding: 53 53 5
Width: 612
VWidth: 1024
Flags: W
HStem: -6.83105 112.391<204.351 373.375> 685.98 112.392<259.759 537.205>
VStem: 449.699 112.393<183.237 336.809>
LayerCount: 2
Fore
SplineSet
562.091796875 258.090820312 m 0
 562.091796875 242.676757812 560.806640625 227.584960938 558.317382812 212.973632812 c 0
 536.883789062 88.1396484375 428.104492188 -6.8310546875 297.169921875 -6.8310546875 c 0
 198.0234375 -6.8310546875 109.315429688 37.7236328125 49.908203125 107.967773438 c 1
 129.866210938 187.92578125 l 1
 168.400390625 137.831054688 229.01171875 105.559570312 297.169921875 105.559570312 c 0
 381.3828125 105.559570312 449.69921875 173.877929688 449.69921875 258.090820312 c 0
 449.69921875 321.590820312 410.924804688 376.021484375 355.693359375 398.98046875 c 0
 353.686523438 399.864257812 351.598632812 400.5859375 349.591796875 401.388671875 c 0
 332.411132812 407.891601562 314.91015625 413.110351562 297.169921875 417.043945312 c 0
 275.01171875 421.940429688 252.534179688 424.911132812 230.055664062 425.794921875 c 0
 191.520507812 427.48046875 152.907226562 423.305664062 115.577148438 413.51171875 c 1
 115.65625 414.073242188 l 1
 120.393554688 455.41796875 l 1
 128.983398438 531.44140625 l 1
 146.64453125 685.98046875 l 1
 159.408203125 798.372070312 l 1
 537.205078125 798.372070312 l 1
 537.205078125 685.98046875 l 1
 259.758789062 685.98046875 l 1
 242.8203125 537.864257812 l 1
 290.5859375 535.0546875 338.833984375 525.260742188 386.0390625 507.758789062 c 0
 387.8046875 507.118164062 389.650390625 506.475585938 391.416992188 505.751953125 c 0
 394.387695312 504.62890625 397.357421875 503.424804688 400.328125 502.220703125 c 0
 495.37890625 462 562.091796875 367.83203125 562.091796875 258.090820312 c 0
EndSplineSet
Substitution2: "tnum" five.tabular
EndChar

StartChar: six
Encoding: 54 54 6
Width: 618
VWidth: 1024
Flags: HW
LayerCount: 2
Fore
SplineSet
492.100585938 427.502929688 m 0
 592.12890625 329.642578125 593.815429688 169.244140625 495.954101562 69.2958984375 c 0
 466.732421875 39.3515625 431.971679688 18.23828125 394.801757812 6.03515625 c 2
 394.72265625 6.03515625 l 2
 333.708984375 -14.193359375 266.514648438 -10.5810546875 207.669921875 16.9541015625 c 0
 182.463867188 28.6748046875 158.780273438 44.8916015625 137.747070312 65.4423828125 c 0
 112.619140625 90.0078125 93.7529296875 118.427734375 81.0703125 148.93359375 c 0
 80.9091796875 149.334960938 80.7490234375 149.65625 80.66796875 149.9765625 c 0
 79.625 152.465820312 78.6611328125 154.874023438 77.7783203125 157.36328125 c 0
 77.6181640625 157.442382812 77.6181640625 157.603515625 77.6982421875 157.68359375 c 0
 76.9755859375 159.530273438 76.2529296875 161.456054688 75.5302734375 163.383789062 c 0
 75.4501953125 163.543945312 75.3701171875 163.78515625 75.3701171875 163.9453125 c 0
 57.0654296875 214.682617188 48.3955078125 268.629882812 49.921875 322.819335938 c 0
 50.724609375 348.508789062 53.775390625 374.197265625 59.2333984375 399.646484375 c 0
 59.2333984375 399.806640625 59.3134765625 400.047851562 59.3134765625 400.208984375 c 0
 62.92578125 417.067382812 67.58203125 433.764648438 73.36328125 450.22265625 c 0
 123.216796875 605.000976562 229.747070312 734.412109375 368.469726562 813.969726562 c 1
 423.141601562 735.857421875 l 1
 433.17578125 721.486328125 l 1
 332.103515625 666.013671875 250.861328125 578.91015625 202.7734375 473.583984375 c 1
 206.065429688 475.349609375 209.356445312 476.875 212.647460938 478.240234375 c 2
 212.727539062 478.240234375 l 2
 255.677734375 497.266601562 302.881835938 503.688476562 348.721679688 497.5078125 c 0
 348.801757812 497.586914062 348.881835938 497.586914062 349.04296875 497.5078125 c 0
 401.14453125 490.443359375 451.559570312 467.161132812 492.100585938 427.502929688 c 0
372.083984375 118.908203125 m 0
 442.567382812 150.458984375 474.118164062 233.147460938 442.48828125 303.6328125 c 0
 420.331054688 353.1640625 372.965820312 383.430664062 322.309570312 386.159179688 c 0
 300.954101562 385.999023438 280.403320312 382.305664062 261.296875 375.482421875 c 0
 220.8359375 361.353515625 186.637695312 333.81640625 164.159179688 298.092773438 c 2
 164.159179688 298.01171875 l 2
 165.203125 269.19140625 170.260742188 241.014648438 178.930664062 214.120117188 c 0
 178.930664062 213.879882812 179.009765625 213.638671875 179.171875 213.397460938 c 0
 181.016601562 205.290039062 183.828125 197.181640625 187.359375 189.314453125 c 0
 188.8046875 186.1015625 190.329101562 182.892578125 192.015625 179.841796875 c 0
 192.256835938 179.440429688 192.416992188 179.118164062 192.577148438 178.797851562 c 0
 227.338867188 115.778320312 305.2109375 88.884765625 372.083984375 118.908203125 c 0
EndSplineSet
Substitution2: "tnum" six.tabular
EndChar

StartChar: seven
Encoding: 55 55 7
Width: 588
VWidth: 1024
Flags: HW
LayerCount: 2
Fore
SplineSet
538.451171875 794.357421875 m 1
 538.451171875 672.333007812 l 1
 413.938476562 466.737304688 319.368164062 240.991210938 260.684570312 1.1962890625 c 1
 145.161132812 1.1962890625 l 1
 147.168945312 10.1865234375 149.336914062 19.0986328125 151.50390625 28.009765625 c 0
 208.341796875 260.2578125 297.372070312 479.903320312 413.616210938 681.966796875 c 1
 49.548828125 681.966796875 l 1
 49.548828125 794.357421875 l 1
 538.451171875 794.357421875 l 1
EndSplineSet
Substitution2: "tnum" seven.tabular
EndChar

StartChar: eight
Encoding: 56 56 8
Width: 632
VWidth: 1024
Flags: HW
LayerCount: 2
Fore
SplineSet
504.294921875 412.387695312 m 0
 552.3828125 368.395507812 582.48828125 305.134765625 582.48828125 234.809570312 c 0
 582.48828125 164.1640625 552.060546875 100.58203125 503.572265625 56.58984375 c 0
 503.572265625 56.5087890625 503.4921875 56.5087890625 503.4921875 56.5087890625 c 2
 496.10546875 49.7646484375 488.23828125 43.50390625 480.05078125 37.7236328125 c 0
 438.3046875 13.158203125 390.458984375 -2.3369140625 339.400390625 -5.94921875 c 0
 331.6953125 -6.58984375 323.908203125 -6.8310546875 316.0390625 -6.8310546875 c 2
 315.958984375 -6.8310546875 l 2
 308.091796875 -6.8310546875 300.46484375 -6.58984375 292.7578125 -5.94921875 c 2
 292.59765625 -5.94921875 l 2
 241.541015625 -2.3369140625 193.693359375 13.158203125 151.947265625 37.7236328125 c 0
 143.759765625 43.50390625 135.892578125 49.7646484375 128.5078125 56.5087890625 c 2
 128.5078125 56.5087890625 128.42578125 56.5087890625 128.42578125 56.58984375 c 0
 79.9375 100.58203125 49.51171875 164.1640625 49.51171875 234.809570312 c 0
 49.51171875 305.134765625 79.6171875 368.395507812 127.703125 412.387695312 c 0
 133.32421875 417.525390625 139.18359375 422.422851562 145.28515625 426.998046875 c 1
 120.638671875 449.075195312 100.970703125 476.771484375 88.287109375 508 c 2
 88.287109375 508.162109375 l 2
 77.771484375 533.850585938 71.990234375 561.788085938 71.990234375 591.25 c 0
 71.990234375 620.47265625 77.689453125 648.328125 87.96484375 673.858398438 c 0
 109.400390625 726.923828125 150.744140625 769.7109375 202.845703125 792.913085938 c 0
 214.888671875 797.16796875 227.251953125 800.69921875 239.853515625 803.509765625 c 0
 260.24609375 808.166015625 281.197265625 810.975585938 302.79296875 811.698242188 c 0
 307.12890625 811.938476562 311.625 812.01953125 316.0390625 812.01953125 c 0
 320.21484375 812.01953125 324.30859375 811.938476562 328.40234375 811.778320312 c 0
 350.240234375 811.055664062 371.51171875 808.24609375 392.14453125 803.509765625 c 0
 400.57421875 801.663085938 408.923828125 799.415039062 417.19140625 796.926757812 c 0
 475.072265625 774.448242188 521.07421875 728.126953125 543.23046875 670.004882812 c 0
 552.623046875 645.520507812 557.76171875 619.02734375 557.76171875 591.25 c 0
 557.76171875 563.313476562 552.623046875 536.821289062 543.0703125 512.254882812 c 2
 543.0703125 512.094726562 l 2
 530.626953125 479.662109375 510.716796875 450.842773438 485.4296875 427.961914062 c 1
 492.013671875 423.145507812 498.275390625 417.926757812 504.294921875 412.387695312 c 0
209.107421875 660.2109375 m 0
 193.693359375 641.42578125 184.380859375 617.421875 184.380859375 591.25 c 0
 184.380859375 542.841796875 216.01171875 501.900390625 259.763671875 488.01171875 c 0
 259.84375 488.01171875 259.923828125 487.930664062 260.00390625 487.930664062 c 0
 260.166015625 487.850585938 260.40625 487.850585938 260.56640625 487.770507812 c 0
 268.755859375 485.762695312 277.0234375 484.23828125 285.533203125 483.194335938 c 0
 285.61328125 483.114257812 285.693359375 483.114257812 285.775390625 483.114257812 c 0
 295.6484375 481.749023438 305.763671875 481.107421875 315.958984375 481.107421875 c 0
 328.564453125 481.107421875 341.005859375 482.150390625 353.048828125 484.077148438 c 0
 353.208984375 484.077148438 353.369140625 484.077148438 353.529296875 484.157226562 c 0
 355.69921875 484.478515625 357.9453125 484.879882812 360.11328125 485.362304688 c 0
 361.396484375 485.603515625 362.763671875 485.84375 364.046875 486.245117188 c 0
 410.76953125 498.286132812 445.369140625 540.754882812 445.369140625 591.25 c 0
 445.369140625 616.69921875 436.619140625 640.061523438 421.9296875 658.524414062 c 0
 411.814453125 671.208984375 398.96875 681.645507812 384.27734375 688.790039062 c 0
 381.94921875 689.592773438 379.62109375 690.4765625 377.212890625 691.358398438 c 0
 361.638671875 695.694335938 345.341796875 698.422851562 328.564453125 699.227539062 c 0
 328.482421875 699.306640625 328.40234375 699.306640625 328.322265625 699.227539062 c 0
 324.30859375 699.547851562 320.134765625 699.62890625 316.0390625 699.62890625 c 0
 311.54296875 699.62890625 307.048828125 699.466796875 302.6328125 699.146484375 c 0
 302.552734375 699.227539062 302.47265625 699.227539062 302.392578125 699.146484375 c 0
 294.04296875 698.745117188 282.642578125 696.73828125 272.20703125 694.650390625 c 0
 250.53125 690.235351562 230.140625 680.6015625 214.0859375 665.428710938 c 0
 212.158203125 663.663085938 210.47265625 661.896484375 209.107421875 660.2109375 c 0
456.44921875 177.16796875 m 0
 465.19921875 194.428710938 470.095703125 214.016601562 470.095703125 234.809570312 c 0
 470.095703125 273.583984375 452.8359375 308.426757812 425.62109375 332.028320312 c 0
 418.314453125 336.684570312 411.08984375 341.1796875 403.705078125 345.8359375 c 0
 384.4375 354.666992188 363.56640625 360.607421875 341.6484375 363.256835938 c 2
 341.568359375 363.256835938 l 2
 333.220703125 364.380859375 324.7109375 364.862304688 316.0390625 364.862304688 c 2
 315.958984375 364.862304688 l 2
 307.2890625 364.862304688 298.779296875 364.380859375 290.431640625 363.256835938 c 2
 290.349609375 363.256835938 l 2
 268.43359375 360.607421875 247.560546875 354.666992188 228.294921875 345.8359375 c 0
 220.908203125 341.1796875 213.68359375 336.684570312 206.37890625 332.028320312 c 0
 179.1640625 308.426757812 161.90234375 273.583984375 161.90234375 234.809570312 c 0
 161.90234375 214.016601562 166.80078125 194.428710938 175.55078125 177.16796875 c 0
 190.40234375 147.706054688 217.779296875 126.994140625 249.0859375 116.477539062 c 0
 264.1796875 111.419921875 280.154296875 107.967773438 296.451171875 106.522460938 c 2
 296.93359375 106.522460938 l 2
 303.1953125 105.879882812 309.537109375 105.559570312 315.958984375 105.559570312 c 2
 316.0390625 105.559570312 l 2
 322.462890625 105.559570312 328.8046875 105.879882812 335.06640625 106.522460938 c 2
 335.546875 106.522460938 l 2
 351.84375 107.967773438 367.8203125 111.419921875 382.912109375 116.477539062 c 0
 414.22265625 126.994140625 441.59765625 147.706054688 456.44921875 177.16796875 c 0
EndSplineSet
Substitution2: "tnum" eight.tabular
EndChar

StartChar: nine
Encoding: 57 57 9
Width: 621
VWidth: 1024
Flags: HW
HStem: 302.485 112.472<227.133 369.59> 695.854 112.392<228.39 376.912>
VStem: 49.5918 112.393<480.623 629.306> 458.536 112.23<497.097 598.638>
LayerCount: 2
Fore
SplineSet
570.766601562 518.03515625 m 0
 571.16796875 510.969726562 571.408203125 503.907226562 571.408203125 496.76171875 c 0
 571.408203125 450.760742188 562.659179688 406.767578125 546.762695312 366.387695312 c 0
 546.762695312 366.307617188 546.762695312 366.147460938 546.68359375 365.985351562 c 0
 502.2890625 209.681640625 400.815429688 77.3818359375 266.266601562 -6.8310546875 c 1
 172.7421875 68.8720703125 l 1
 213.443359375 90.306640625 251.09375 116.959960938 284.731445312 147.786132812 c 0
 339.401367188 197.9609375 383.715820312 259.294921875 413.900390625 328.25390625 c 1
 401.45703125 322.154296875 388.452148438 317.015625 374.96484375 313.001953125 c 0
 352.005859375 306.178710938 327.680664062 302.485351562 302.47265625 302.485351562 c 0
 162.787109375 302.485351562 49.591796875 415.678710938 49.591796875 555.366210938 c 0
 49.591796875 615.09375 70.2236328125 670.004882812 104.825195312 713.194335938 c 0
 151.2265625 771.15625 222.514648438 808.24609375 302.47265625 808.24609375 c 0
 336.993164062 808.24609375 369.907226562 801.341796875 399.932617188 788.818359375 c 0
 427.708984375 777.2578125 452.916015625 760.880859375 474.592773438 740.73046875 c 0
 502.44921875 714.799804688 524.4453125 682.688476562 538.4140625 646.5625 c 0
 556.798828125 607.145507812 568.118164062 563.713867188 570.766601562 518.03515625 c 0
357.3046875 426.03515625 m 2
 399.771484375 441.287109375 435.334960938 471.072265625 457.813476562 509.526367188 c 0
 458.0546875 509.927734375 458.294921875 510.408203125 458.536132812 510.809570312 c 2
 458.536132812 510.890625 l 2
 458.536132812 512.49609375 458.456054688 514.020507812 458.21484375 515.625976562 c 2
 458.21484375 515.788085938 l 2
 455.88671875 546.6953125 447.698242188 576.077148438 434.7734375 602.650390625 c 0
 424.579101562 623.763671875 411.412109375 643.110351562 395.7578125 660.290039062 c 2
 395.596679688 660.452148438 l 2
 370.791015625 682.528320312 338.197265625 695.854492188 302.47265625 695.854492188 c 0
 224.922851562 695.854492188 161.984375 632.916015625 161.984375 555.366210938 c 0
 161.984375 479.500976562 222.193359375 417.60546875 297.415039062 414.95703125 c 0
 318.368164062 415.438476562 338.438476562 419.291015625 357.142578125 425.955078125 c 0
 357.223632812 425.955078125 357.3046875 426.03515625 357.3046875 426.03515625 c 2
EndSplineSet
Substitution2: "tnum" nine.tabular
EndChar

StartChar: period
Encoding: 46 46 10
Width: 212
VWidth: 1000
Flags: HW
LayerCount: 2
Fore
SplineSet
49.8046875 1.2197265625 m 5
 49.8046875 113.612304688 l 5
 162.1953125 113.612304688 l 5
 162.1953125 1.2197265625 l 5
 49.8046875 1.2197265625 l 5
EndSplineSet
EndChar

StartChar: exclam
Encoding: 33 33 11
Width: 212
VWidth: 1000
Flags: HW
LayerCount: 2
Fore
SplineSet
49.8046875 1.2197265625 m 1
 49.8046875 113.612304688 l 1
 162.1953125 113.612304688 l 1
 162.1953125 1.2197265625 l 1
 49.8046875 1.2197265625 l 1
49.8046875 223.595703125 m 1
 49.8046875 800.001953125 l 1
 162.1953125 800.001953125 l 1
 162.1953125 223.595703125 l 1
 49.8046875 223.595703125 l 1
EndSplineSet
EndChar

StartChar: colon
Encoding: 58 58 12
Width: 212
VWidth: 1024
Flags: HW
LayerCount: 2
Fore
SplineSet
49.8046875 5.2099609375 m 1
 49.8046875 117.602539062 l 1
 162.1953125 117.602539062 l 1
 162.1953125 5.2099609375 l 1
 49.8046875 5.2099609375 l 1
49.8046875 410.622070312 m 1
 49.8046875 523.012695312 l 1
 162.1953125 523.012695312 l 1
 162.1953125 410.622070312 l 1
 49.8046875 410.622070312 l 1
EndSplineSet
EndChar

StartChar: plus
Encoding: 43 43 13
Width: 702
VWidth: 1000
Flags: HW
LayerCount: 2
Fore
SplineSet
652.048828125 519.022460938 m 1
 652.048828125 378.534179688 l 1
 421.244140625 378.534179688 l 1
 421.244140625 147.73046875 l 1
 280.755859375 147.73046875 l 1
 280.755859375 378.534179688 l 1
 49.951171875 378.534179688 l 1
 49.951171875 519.022460938 l 1
 280.755859375 519.022460938 l 1
 280.755859375 749.826171875 l 1
 421.244140625 749.826171875 l 1
 421.244140625 519.022460938 l 1
 652.048828125 519.022460938 l 1
EndSplineSet
EndChar

StartChar: hyphen
Encoding: 45 45 14
Width: 740
VWidth: 1000
Flags: HW
LayerCount: 2
Fore
SplineSet
49.6845703125 378.534179688 m 5
 49.6845703125 519.022460938 l 5
 690.315429688 519.022460938 l 5
 690.315429688 378.534179688 l 5
 49.6845703125 378.534179688 l 5
EndSplineSet
EndChar

StartChar: comma
Encoding: 44 44 15
Width: 232
VWidth: 1000
Flags: HW
LayerCount: 2
Fore
SplineSet
182.0703125 113.612304688 m 1
 182.0703125 1.2197265625 l 2
 182.0703125 -45.904296875 164.087890625 -88.9326171875 134.704101562 -121.446289062 c 1
 49.9296875 -47.75 l 1
 62.1318359375 -34.986328125 69.677734375 -17.7255859375 69.677734375 1.2197265625 c 2
 69.677734375 113.612304688 l 1
 182.0703125 113.612304688 l 1
EndSplineSet
EndChar

StartChar: quotedbl
Encoding: 34 34 16
Width: 380
VWidth: 1000
Flags: HW
LayerCount: 2
Fore
SplineSet
161.901367188 800.001953125 m 1
 161.901367188 687.609375 l 1
 105.70703125 575.21875 l 1
 49.5107421875 687.609375 l 1
 49.5107421875 800.001953125 l 1
 161.901367188 800.001953125 l 1
330.489257812 800.001953125 m 1
 330.489257812 687.609375 l 1
 274.29296875 575.21875 l 1
 218.09765625 687.609375 l 1
 218.09765625 800.001953125 l 1
 330.489257812 800.001953125 l 1
EndSplineSet
EndChar

StartChar: semicolon
Encoding: 59 59 17
Width: 232
VWidth: 1024
Flags: HW
LayerCount: 2
Fore
SplineSet
69.677734375 410.622070312 m 1
 69.677734375 523.012695312 l 1
 182.0703125 523.012695312 l 1
 182.0703125 410.622070312 l 1
 69.677734375 410.622070312 l 1
182.0703125 117.602539062 m 1
 182.0703125 5.2099609375 l 2
 182.0703125 -41.9140625 164.087890625 -84.943359375 134.704101562 -117.456054688 c 1
 49.9296875 -43.759765625 l 1
 62.1318359375 -30.99609375 69.677734375 -13.7353515625 69.677734375 5.2099609375 c 2
 69.677734375 117.602539062 l 1
 182.0703125 117.602539062 l 1
EndSplineSet
EndChar

StartChar: equal
Encoding: 61 61 18
Width: 581
VWidth: 1024
Flags: HW
LayerCount: 2
Fore
SplineSet
49.662109375 466.81640625 m 1
 49.662109375 579.208984375 l 1
 531.337890625 579.208984375 l 1
 531.337890625 466.81640625 l 1
 49.662109375 466.81640625 l 1
49.662109375 205.908203125 m 1
 49.662109375 318.30078125 l 1
 531.337890625 318.30078125 l 1
 531.337890625 205.908203125 l 1
 49.662109375 205.908203125 l 1
EndSplineSet
EndChar

StartChar: question
Encoding: 63 63 19
Width: 545
VWidth: 1024
Flags: HW
LayerCount: 2
Fore
SplineSet
326.31640625 225.978515625 m 1
 213.92578125 225.978515625 l 1
 213.909179688 288.1171875 l 2
 213.909179688 294.950195312 214.451171875 301.872070312 215.563476562 309.36328125 c 0
 221.208984375 346.315429688 242.846679688 380.16796875 274.951171875 402.4921875 c 2
 339.565429688 447.440429688 l 2
 342.412109375 449.432617188 343.375976562 450.474609375 343.415039062 450.517578125 c 0
 397.587890625 509.521484375 395.63671875 599.709960938 339.228515625 656.1171875 c 0
 311.169921875 684.174804688 273.860351562 699.62890625 234.174804688 699.62890625 c 0
 194.499023438 699.62890625 157.189453125 684.174804688 129.137695312 656.1171875 c 1
 49.658203125 735.588867188 l 1
 98.947265625 784.877929688 164.479492188 812.01953125 234.174804688 812.01953125 c 0
 303.87890625 812.01953125 369.412109375 784.877929688 418.701171875 735.588867188 c 0
 517.8125 636.482421875 521.221679688 477.99609375 426.455078125 374.782226562 c 0
 420.33984375 368.03125 412.860351562 361.552734375 403.852539062 355.252929688 c 2
 339.119140625 310.220703125 l 2
 332.297851562 305.477539062 327.657226562 298.904296875 326.701171875 292.625 c 0
 326.442382812 290.916015625 326.30078125 289.39453125 326.30078125 288.21875 c 1
 326.31640625 288.21875 l 1
 326.31640625 225.978515625 l 1
213.92578125 1.1962890625 m 1
 213.92578125 113.586914062 l 1
 326.317382812 113.586914062 l 1
 326.317382812 1.1962890625 l 1
 213.92578125 1.1962890625 l 1
EndSplineSet
EndChar

StartChar: numbersign
Encoding: 35 35 20
Width: 742
VWidth: 1000
Flags: HW
LayerCount: 2
Fore
SplineSet
692.118164062 462.827148438 m 1
 573.463867188 462.827148438 l 1
 541.834960938 314.310546875 l 1
 692.118164062 314.310546875 l 1
 692.118164062 201.918945312 l 1
 517.991210938 201.918945312 l 1
 489.413085938 67.4501953125 l 1
 377.020507812 67.4501953125 l 1
 405.600585938 201.918945312 l 1
 257.083007812 201.918945312 l 1
 228.50390625 67.4501953125 l 1
 116.112304688 67.4501953125 l 1
 144.692382812 201.918945312 l 1
 49.8818359375 201.918945312 l 1
 49.8818359375 314.310546875 l 1
 168.53515625 314.310546875 l 1
 200.165039062 462.827148438 l 1
 49.8818359375 462.827148438 l 1
 49.8818359375 575.21875 l 1
 224.008789062 575.21875 l 1
 252.586914062 709.686523438 l 1
 364.979492188 709.686523438 l 1
 336.400390625 575.21875 l 1
 484.916992188 575.21875 l 1
 513.495117188 709.686523438 l 1
 625.887695312 709.686523438 l 1
 597.30859375 575.21875 l 1
 692.118164062 575.21875 l 1
 692.118164062 462.827148438 l 1
429.444335938 314.310546875 m 1
 461.073242188 462.827148438 l 1
 312.555664062 462.827148438 l 1
 280.926757812 314.310546875 l 1
 429.444335938 314.310546875 l 1
EndSplineSet
EndChar

StartChar: slash
Encoding: 47 47 21
Width: 580
VWidth: 1000
Flags: HW
LayerCount: 2
Fore
SplineSet
530.236328125 800.001953125 m 1
 172.833007812 -2.7939453125 l 1
 49.763671875 -2.7939453125 l 1
 407.16796875 800.001953125 l 1
 530.236328125 800.001953125 l 1
EndSplineSet
EndChar

StartChar: quotesingle
Encoding: 39 39 22
Width: 212
VWidth: 1000
Flags: HW
LayerCount: 2
Fore
SplineSet
162.1953125 800.001953125 m 1
 162.1953125 687.609375 l 1
 106.000976562 575.21875 l 1
 49.8046875 687.609375 l 1
 49.8046875 800.001953125 l 1
 162.1953125 800.001953125 l 1
EndSplineSet
EndChar

StartChar: zero.tabular
Encoding: 65536 -1 23
Width: 750
VWidth: 1000
Flags: HW
LayerCount: 2
Fore
SplineSet
613.9921875 620.6328125 m 0
 633.500976562 551.271484375 643.936523438 478.13671875 643.936523438 402.59375 c 0
 643.936523438 370.080078125 642.010742188 337.96875 638.237304688 306.499023438 c 0
 635.426757812 259.213867188 625.954101562 213.696289062 610.541992188 170.987304688 c 0
 610.4609375 170.74609375 610.379882812 170.42578125 610.30078125 170.103515625 c 0
 608.131835938 162.71875 605.642578125 155.413085938 602.834960938 148.268554688 c 0
 602.834960938 148.21484375 602.807617188 148.161132812 602.75390625 148.107421875 c 0
 597.9375 135.905273438 592.15625 124.184570312 585.493164062 113.025390625 c 2
 585.413085938 112.944335938 l 2
 551.775390625 56.3486328125 495.901367188 14.5224609375 429.912109375 -0.650390625 c 0
 419.474609375 -3.05859375 408.71875 -4.7451171875 397.879882812 -5.7080078125 c 0
 390.333984375 -6.5107421875 382.708007812 -6.8310546875 375.000976562 -6.8310546875 c 0
 367.293945312 -6.8310546875 359.66796875 -6.5107421875 352.12109375 -5.7080078125 c 0
 341.284179688 -4.7451171875 330.526367188 -3.05859375 320.088867188 -0.650390625 c 0
 254.099609375 14.5224609375 198.225585938 56.3486328125 164.586914062 112.944335938 c 2
 164.5078125 113.025390625 l 2
 157.844726562 124.184570312 152.063476562 135.905273438 147.247070312 148.107421875 c 0
 147.194335938 148.161132812 147.16796875 148.21484375 147.16796875 148.268554688 c 0
 144.358398438 155.413085938 141.869140625 162.71875 139.702148438 170.103515625 c 0
 139.62109375 170.42578125 139.540039062 170.74609375 139.4609375 170.987304688 c 0
 124.046875 213.696289062 114.573242188 259.213867188 111.763671875 306.499023438 c 0
 107.991210938 337.96875 106.063476562 370.080078125 106.063476562 402.59375 c 0
 106.063476562 478.13671875 116.500976562 551.271484375 136.008789062 620.6328125 c 0
 138.818359375 633.076171875 142.51171875 645.198242188 147.16796875 656.918945312 c 0
 147.16796875 656.97265625 147.194335938 657.026367188 147.247070312 657.079101562 c 0
 155.03515625 676.828125 165.391601562 695.372070312 177.833984375 712.231445312 c 0
 208.500976562 753.977539062 252.092773438 785.526367188 302.668945312 801.181640625 c 0
 318.564453125 806.079101562 335.1015625 809.370117188 352.12109375 810.895507812 c 0
 359.66796875 811.698242188 367.293945312 812.01953125 375.000976562 812.01953125 c 0
 382.708007812 812.01953125 390.333984375 811.698242188 397.879882812 810.895507812 c 0
 414.899414062 809.370117188 431.436523438 806.079101562 447.333007812 801.181640625 c 0
 497.908203125 785.526367188 541.5 753.977539062 572.166992188 712.231445312 c 0
 584.610351562 695.372070312 594.966796875 676.828125 602.75390625 657.079101562 c 0
 602.807617188 657.026367188 602.834960938 656.97265625 602.834960938 656.918945312 c 0
 606.848632812 644.95703125 610.541992188 632.834960938 613.9921875 620.6328125 c 0
531.064453125 378.58984375 m 0
 531.384765625 386.538085938 531.545898438 394.565429688 531.545898438 402.59375 c 0
 531.545898438 410.622070312 531.384765625 418.649414062 531.064453125 426.596679688 c 0
 529.137695312 484.318359375 520.146484375 540.192382812 504.8125 593.498046875 c 0
 504.8125 593.658203125 504.732421875 593.739257812 504.732421875 593.899414062 c 0
 502.323242188 602.249023438 499.754882812 610.517578125 497.026367188 618.706054688 c 0
 497.026367188 618.786132812 497.026367188 618.866210938 496.9453125 618.947265625 c 0
 486.1875 644.154296875 467.884765625 665.428710938 444.84375 679.71875 c 0
 424.532226562 692.323242188 400.610351562 699.62890625 375.000976562 699.62890625 c 0
 349.390625 699.62890625 325.46875 692.323242188 305.157226562 679.71875 c 0
 282.118164062 665.428710938 263.813476562 644.154296875 253.055664062 618.947265625 c 0
 252.975585938 618.866210938 252.975585938 618.786132812 252.975585938 618.706054688 c 0
 250.247070312 610.517578125 247.676757812 602.249023438 245.268554688 593.899414062 c 0
 245.268554688 593.739257812 245.189453125 593.658203125 245.189453125 593.498046875 c 0
 229.854492188 540.192382812 220.864257812 484.318359375 218.936523438 426.596679688 c 0
 218.616210938 418.649414062 218.456054688 410.622070312 218.456054688 402.59375 c 0
 218.456054688 394.565429688 218.616210938 386.538085938 218.936523438 378.58984375 c 0
 219.579101562 357.716796875 221.184570312 337.165039062 223.752929688 316.85546875 c 2
 223.752929688 316.53515625 l 2
 228.249023438 280.6484375 235.39453125 245.647460938 245.189453125 211.688476562 c 0
 245.189453125 211.529296875 245.268554688 211.448242188 245.268554688 211.288085938 c 0
 246.553710938 206.952148438 247.837890625 202.697265625 249.122070312 198.442382812 c 0
 253.216796875 187.92578125 257.79296875 177.650390625 262.850585938 167.616210938 c 0
 262.850585938 167.53515625 262.9296875 167.375 263.010742188 167.293945312 c 0
 286.452148438 130.205078125 327.876953125 105.559570312 375.000976562 105.559570312 c 0
 422.124023438 105.559570312 463.548828125 130.205078125 486.990234375 167.293945312 c 0
 487.071289062 167.375 487.150390625 167.53515625 487.150390625 167.616210938 c 0
 492.208007812 177.650390625 496.78515625 187.92578125 500.87890625 198.442382812 c 0
 502.163085938 202.697265625 503.448242188 206.952148438 504.732421875 211.288085938 c 0
 504.732421875 211.448242188 504.8125 211.529296875 504.8125 211.688476562 c 0
 514.606445312 245.647460938 521.751953125 280.6484375 526.247070312 316.53515625 c 2
 526.247070312 316.85546875 l 2
 528.81640625 337.165039062 530.421875 357.716796875 531.064453125 378.58984375 c 0
EndSplineSet
EndChar

StartChar: one.tabular
Encoding: 65537 -1 24
Width: 750
VWidth: 1024
Flags: HW
LayerCount: 2
Fore
SplineSet
431.1953125 1.1962890625 m 1
 318.8046875 1.1962890625 l 1
 318.8046875 799.977539062 l 1
 431.1953125 799.977539062 l 1
 431.1953125 1.1962890625 l 1
EndSplineSet
EndChar

StartChar: two.tabular
Encoding: 65538 -1 25
Width: 750
VWidth: 1024
Flags: HW
LayerCount: 2
Fore
SplineSet
301.383789062 170.024414062 m 0
 288.939453125 152.442382812 278.263671875 133.576171875 269.591796875 113.586914062 c 1
 582.682617188 113.586914062 l 1
 582.682617188 1.1962890625 l 1
 141.14453125 1.1962890625 l 1
 141.14453125 18.0546875 l 2
 141.14453125 99.4580078125 166.915039062 174.840820312 210.748046875 236.49609375 c 0
 211.952148438 238.26171875 213.235351562 239.948242188 214.520507812 241.713867188 c 0
 217.330078125 245.407226562 220.220703125 249.098632812 223.030273438 252.791992188 c 0
 224.635742188 254.798828125 226.241210938 256.805664062 227.846679688 258.733398438 c 2
 228.087890625 259.053710938 l 2
 252.412109375 289.239257812 279.466796875 317.096679688 308.849609375 342.223632812 c 2
 418.912109375 435.588867188 l 2
 429.348632812 444.5 439.303710938 453.8125 448.857421875 463.364257812 c 0
 452.469726562 466.978515625 456.08203125 470.669921875 459.61328125 474.444335938 c 0
 462.6640625 477.655273438 465.5546875 480.946289062 468.526367188 484.23828125 c 0
 477.836914062 495.717773438 484.90234375 508.482421875 489.55859375 521.80859375 c 0
 494.294921875 535.215820312 496.623046875 549.184570312 496.703125 563.233398438 c 0
 496.864257812 595.504882812 484.581054688 627.858398438 459.935546875 652.50390625 c 0
 435.290039062 677.149414062 403.017578125 689.432617188 370.744140625 689.3515625 c 0
 352.76171875 689.3515625 334.859375 685.498046875 318.241210938 677.872070312 c 0
 315.9140625 676.828125 313.584960938 675.624023438 311.2578125 674.419921875 c 0
 280.9921875 658.524414062 253.857421875 635.725585938 232.422851562 606.34375 c 0
 229.453125 602.329101562 226.642578125 598.154296875 224.07421875 593.98046875 c 1
 139.21875 667.676757812 l 1
 175.103515625 715.122070312 220.541015625 751.970703125 271.19921875 777.659179688 c 0
 275.05078125 779.586914062 278.985351562 781.512695312 282.838867188 783.19921875 c 0
 310.696289062 795.481445312 340.639648438 801.743164062 370.744140625 801.743164062 c 0
 432.239257812 801.904296875 493.732421875 778.54296875 540.616210938 731.981445312 c 0
 587.580078125 685.418945312 610.940429688 624.325195312 610.780273438 563.313476562 c 1
 610.700195312 563.313476562 l 1
 610.620117188 510.408203125 592.716796875 457.424804688 557.073242188 414.073242188 c 0
 551.373046875 407.891601562 545.9140625 401.629882812 540.053710938 395.609375 c 0
 533.310546875 388.463867188 526.486328125 381.48046875 519.502929688 374.576171875 c 0
 511.635742188 366.708984375 480.887695312 340.778320312 472.298828125 333.473632812 c 2
 381.903320312 256.88671875 l 2
 357.739257812 236.174804688 335.58203125 213.294921875 315.591796875 188.568359375 c 2
 315.432617188 188.248046875 l 2
 314.067382812 186.721679688 312.783203125 185.037109375 311.499023438 183.431640625 c 0
 309.169921875 180.380859375 306.76171875 177.330078125 304.43359375 174.279296875 c 0
 303.390625 172.833984375 302.346679688 171.469726562 301.383789062 170.024414062 c 0
EndSplineSet
EndChar

StartChar: three.tabular
Encoding: 65539 -1 26
Width: 750
VWidth: 1024
Flags: HW
LayerCount: 2
Fore
SplineSet
628.362304688 262.104492188 m 0
 628.362304688 248.778320312 627.399414062 235.693359375 625.471679688 222.927734375 c 0
 606.526367188 92.9560546875 494.616210938 -6.8310546875 359.42578125 -6.8310546875 c 0
 344.975585938 -6.8310546875 330.765625 -5.7080078125 316.876953125 -3.4599609375 c 0
 279.94921875 2.400390625 245.428710938 15.8076171875 215.163085938 35.154296875 c 0
 214.922851562 35.234375 214.681640625 35.3955078125 214.520507812 35.5556640625 c 0
 179.840820312 54.7431640625 148.53125 79.2275390625 121.637695312 107.967773438 c 1
 131.51171875 119.368164062 l 1
 195.895507812 193.384765625 l 1
 217.411132812 168.499023438 243.421875 147.544921875 272.643554688 131.810546875 c 0
 272.723632812 131.731445312 272.803710938 131.731445312 272.96484375 131.650390625 c 0
 293.275390625 120.732421875 315.271484375 112.303710938 338.392578125 107.004882812 c 0
 345.295898438 106.041992188 352.28125 105.559570312 359.42578125 105.559570312 c 0
 445.885742188 105.559570312 515.969726562 175.643554688 515.969726562 262.104492188 c 0
 515.969726562 337.327148438 462.985351562 400.10546875 392.259765625 415.1171875 c 0
 391.055664062 415.438476562 389.931640625 415.6796875 388.7265625 415.83984375 c 0
 383.107421875 416.72265625 377.569335938 417.4453125 371.948242188 418.087890625 c 2
 371.869140625 418.087890625 l 2
 341.763671875 421.620117188 311.900390625 422.1015625 282.59765625 419.7734375 c 1
 346.661132812 530.719726562 l 1
 347.704101562 532.56640625 l 1
 431.596679688 677.952148438 l 1
 156.318359375 677.952148438 l 1
 156.318359375 790.34375 l 1
 608.934570312 790.34375 l 1
 543.98828125 677.952148438 l 1
 451.5859375 517.874023438 l 1
 450.140625 515.38671875 l 1
 540.375 483.034179688 608.291992188 403.877929688 624.587890625 307.221679688 c 0
 627.077148438 292.530273438 628.362304688 277.518554688 628.362304688 262.104492188 c 0
EndSplineSet
EndChar

StartChar: four.tabular
Encoding: 65540 -1 27
Width: 750
VWidth: 1024
Flags: HW
LayerCount: 2
Fore
SplineSet
533.953125 320.708984375 m 1
 663.203125 320.708984375 l 1
 663.203125 208.31640625 l 1
 533.953125 208.31640625 l 1
 533.953125 1.1962890625 l 1
 421.561523438 1.1962890625 l 1
 421.561523438 208.31640625 l 1
 86.796875 208.31640625 l 1
 86.796875 320.708984375 l 1
 419.5546875 795.963867188 l 1
 533.953125 795.963867188 l 1
 533.953125 320.708984375 l 1
223.995117188 320.708984375 m 1
 421.561523438 320.708984375 l 1
 421.561523438 602.891601562 l 1
 223.995117188 320.708984375 l 1
EndSplineSet
EndChar

StartChar: five.tabular
Encoding: 65541 -1 28
Width: 750
VWidth: 1024
Flags: HW
LayerCount: 2
Fore
SplineSet
631.091796875 258.090820312 m 0
 631.091796875 242.676757812 629.806640625 227.584960938 627.317382812 212.973632812 c 0
 605.883789062 88.1396484375 497.104492188 -6.8310546875 366.169921875 -6.8310546875 c 0
 267.0234375 -6.8310546875 178.315429688 37.7236328125 118.908203125 107.967773438 c 1
 198.866210938 187.92578125 l 1
 237.400390625 137.831054688 298.01171875 105.559570312 366.169921875 105.559570312 c 0
 450.3828125 105.559570312 518.69921875 173.877929688 518.69921875 258.090820312 c 0
 518.69921875 321.590820312 479.924804688 376.021484375 424.693359375 398.98046875 c 0
 422.686523438 399.864257812 420.598632812 400.5859375 418.591796875 401.388671875 c 0
 401.411132812 407.891601562 383.91015625 413.110351562 366.169921875 417.043945312 c 0
 344.01171875 421.940429688 321.534179688 424.911132812 299.055664062 425.794921875 c 0
 260.520507812 427.48046875 221.907226562 423.305664062 184.577148438 413.51171875 c 1
 184.65625 414.073242188 l 1
 189.393554688 455.41796875 l 1
 197.983398438 531.44140625 l 1
 215.64453125 685.98046875 l 1
 228.408203125 798.372070312 l 1
 606.205078125 798.372070312 l 1
 606.205078125 685.98046875 l 1
 328.758789062 685.98046875 l 1
 311.8203125 537.864257812 l 1
 359.5859375 535.0546875 407.833984375 525.260742188 455.0390625 507.758789062 c 0
 456.8046875 507.118164062 458.650390625 506.475585938 460.416992188 505.751953125 c 0
 463.387695312 504.62890625 466.357421875 503.424804688 469.328125 502.220703125 c 0
 564.37890625 462 631.091796875 367.83203125 631.091796875 258.090820312 c 0
EndSplineSet
EndChar

StartChar: six.tabular
Encoding: 65542 -1 29
Width: 750
VWidth: 1024
Flags: HW
LayerCount: 2
Fore
SplineSet
558.100585938 427.502929688 m 0
 658.12890625 329.642578125 659.815429688 169.244140625 561.954101562 69.2958984375 c 0
 532.732421875 39.3515625 497.971679688 18.23828125 460.801757812 6.03515625 c 2
 460.72265625 6.03515625 l 2
 399.708984375 -14.193359375 332.514648438 -10.5810546875 273.669921875 16.9541015625 c 0
 248.463867188 28.6748046875 224.780273438 44.8916015625 203.747070312 65.4423828125 c 0
 178.619140625 90.0078125 159.752929688 118.427734375 147.0703125 148.93359375 c 0
 146.909179688 149.334960938 146.749023438 149.65625 146.66796875 149.9765625 c 0
 145.625 152.465820312 144.661132812 154.874023438 143.778320312 157.36328125 c 0
 143.618164062 157.442382812 143.618164062 157.603515625 143.698242188 157.68359375 c 0
 142.975585938 159.530273438 142.252929688 161.456054688 141.530273438 163.383789062 c 0
 141.450195312 163.543945312 141.370117188 163.78515625 141.370117188 163.9453125 c 0
 123.065429688 214.682617188 114.395507812 268.629882812 115.921875 322.819335938 c 0
 116.724609375 348.508789062 119.775390625 374.197265625 125.233398438 399.646484375 c 0
 125.233398438 399.806640625 125.313476562 400.047851562 125.313476562 400.208984375 c 0
 128.92578125 417.067382812 133.58203125 433.764648438 139.36328125 450.22265625 c 0
 189.216796875 605.000976562 295.747070312 734.412109375 434.469726562 813.969726562 c 1
 489.141601562 735.857421875 l 1
 499.17578125 721.486328125 l 1
 398.103515625 666.013671875 316.861328125 578.91015625 268.7734375 473.583984375 c 1
 272.065429688 475.349609375 275.356445312 476.875 278.647460938 478.240234375 c 2
 278.727539062 478.240234375 l 2
 321.677734375 497.266601562 368.881835938 503.688476562 414.721679688 497.5078125 c 0
 414.801757812 497.586914062 414.881835938 497.586914062 415.04296875 497.5078125 c 0
 467.14453125 490.443359375 517.559570312 467.161132812 558.100585938 427.502929688 c 0
438.083984375 118.908203125 m 0
 508.567382812 150.458984375 540.118164062 233.147460938 508.48828125 303.6328125 c 0
 486.331054688 353.1640625 438.965820312 383.430664062 388.309570312 386.159179688 c 0
 366.954101562 385.999023438 346.403320312 382.305664062 327.296875 375.482421875 c 0
 286.8359375 361.353515625 252.637695312 333.81640625 230.159179688 298.092773438 c 2
 230.159179688 298.01171875 l 2
 231.203125 269.19140625 236.260742188 241.014648438 244.930664062 214.120117188 c 0
 244.930664062 213.879882812 245.009765625 213.638671875 245.171875 213.397460938 c 0
 247.016601562 205.290039062 249.828125 197.181640625 253.359375 189.314453125 c 0
 254.8046875 186.1015625 256.329101562 182.892578125 258.015625 179.841796875 c 0
 258.256835938 179.440429688 258.416992188 179.118164062 258.577148438 178.797851562 c 0
 293.338867188 115.778320312 371.2109375 88.884765625 438.083984375 118.908203125 c 0
EndSplineSet
EndChar

StartChar: seven.tabular
Encoding: 65543 -1 30
Width: 750
VWidth: 1024
Flags: HW
LayerCount: 2
Fore
SplineSet
619.451171875 794.357421875 m 1
 619.451171875 672.333007812 l 1
 494.938476562 466.737304688 400.368164062 240.991210938 341.684570312 1.1962890625 c 1
 226.161132812 1.1962890625 l 1
 228.168945312 10.1865234375 230.336914062 19.0986328125 232.50390625 28.009765625 c 0
 289.341796875 260.2578125 378.372070312 479.903320312 494.616210938 681.966796875 c 1
 130.548828125 681.966796875 l 1
 130.548828125 794.357421875 l 1
 619.451171875 794.357421875 l 1
EndSplineSet
EndChar

StartChar: eight.tabular
Encoding: 65544 -1 31
Width: 750
VWidth: 1024
Flags: HW
LayerCount: 2
Fore
SplineSet
563.294921875 412.387695312 m 0
 611.3828125 368.395507812 641.48828125 305.134765625 641.48828125 234.809570312 c 0
 641.48828125 164.1640625 611.060546875 100.58203125 562.572265625 56.58984375 c 0
 562.572265625 56.5087890625 562.4921875 56.5087890625 562.4921875 56.5087890625 c 2
 555.10546875 49.7646484375 547.23828125 43.50390625 539.05078125 37.7236328125 c 0
 497.3046875 13.158203125 449.458984375 -2.3369140625 398.400390625 -5.94921875 c 0
 390.6953125 -6.58984375 382.908203125 -6.8310546875 375.0390625 -6.8310546875 c 2
 374.958984375 -6.8310546875 l 2
 367.091796875 -6.8310546875 359.46484375 -6.58984375 351.7578125 -5.94921875 c 2
 351.59765625 -5.94921875 l 2
 300.541015625 -2.3369140625 252.693359375 13.158203125 210.947265625 37.7236328125 c 0
 202.759765625 43.50390625 194.892578125 49.7646484375 187.5078125 56.5087890625 c 2
 187.5078125 56.5087890625 187.42578125 56.5087890625 187.42578125 56.58984375 c 0
 138.9375 100.58203125 108.51171875 164.1640625 108.51171875 234.809570312 c 0
 108.51171875 305.134765625 138.6171875 368.395507812 186.703125 412.387695312 c 0
 192.32421875 417.525390625 198.18359375 422.422851562 204.28515625 426.998046875 c 1
 179.638671875 449.075195312 159.970703125 476.771484375 147.287109375 508 c 2
 147.287109375 508.162109375 l 2
 136.771484375 533.850585938 130.990234375 561.788085938 130.990234375 591.25 c 0
 130.990234375 620.47265625 136.689453125 648.328125 146.96484375 673.858398438 c 0
 168.400390625 726.923828125 209.744140625 769.7109375 261.845703125 792.913085938 c 0
 273.888671875 797.16796875 286.251953125 800.69921875 298.853515625 803.509765625 c 0
 319.24609375 808.166015625 340.197265625 810.975585938 361.79296875 811.698242188 c 0
 366.12890625 811.938476562 370.625 812.01953125 375.0390625 812.01953125 c 0
 379.21484375 812.01953125 383.30859375 811.938476562 387.40234375 811.778320312 c 0
 409.240234375 811.055664062 430.51171875 808.24609375 451.14453125 803.509765625 c 0
 459.57421875 801.663085938 467.923828125 799.415039062 476.19140625 796.926757812 c 0
 534.072265625 774.448242188 580.07421875 728.126953125 602.23046875 670.004882812 c 0
 611.623046875 645.520507812 616.76171875 619.02734375 616.76171875 591.25 c 0
 616.76171875 563.313476562 611.623046875 536.821289062 602.0703125 512.254882812 c 2
 602.0703125 512.094726562 l 2
 589.626953125 479.662109375 569.716796875 450.842773438 544.4296875 427.961914062 c 1
 551.013671875 423.145507812 557.275390625 417.926757812 563.294921875 412.387695312 c 0
268.107421875 660.2109375 m 0
 252.693359375 641.42578125 243.380859375 617.421875 243.380859375 591.25 c 0
 243.380859375 542.841796875 275.01171875 501.900390625 318.763671875 488.01171875 c 0
 318.84375 488.01171875 318.923828125 487.930664062 319.00390625 487.930664062 c 0
 319.166015625 487.850585938 319.40625 487.850585938 319.56640625 487.770507812 c 0
 327.755859375 485.762695312 336.0234375 484.23828125 344.533203125 483.194335938 c 0
 344.61328125 483.114257812 344.693359375 483.114257812 344.775390625 483.114257812 c 0
 354.6484375 481.749023438 364.763671875 481.107421875 374.958984375 481.107421875 c 0
 387.564453125 481.107421875 400.005859375 482.150390625 412.048828125 484.077148438 c 0
 412.208984375 484.077148438 412.369140625 484.077148438 412.529296875 484.157226562 c 0
 414.69921875 484.478515625 416.9453125 484.879882812 419.11328125 485.362304688 c 0
 420.396484375 485.603515625 421.763671875 485.84375 423.046875 486.245117188 c 0
 469.76953125 498.286132812 504.369140625 540.754882812 504.369140625 591.25 c 0
 504.369140625 616.69921875 495.619140625 640.061523438 480.9296875 658.524414062 c 0
 470.814453125 671.208984375 457.96875 681.645507812 443.27734375 688.790039062 c 0
 440.94921875 689.592773438 438.62109375 690.4765625 436.212890625 691.358398438 c 0
 420.638671875 695.694335938 404.341796875 698.422851562 387.564453125 699.227539062 c 0
 387.482421875 699.306640625 387.40234375 699.306640625 387.322265625 699.227539062 c 0
 383.30859375 699.547851562 379.134765625 699.62890625 375.0390625 699.62890625 c 0
 370.54296875 699.62890625 366.048828125 699.466796875 361.6328125 699.146484375 c 0
 361.552734375 699.227539062 361.47265625 699.227539062 361.392578125 699.146484375 c 0
 353.04296875 698.745117188 341.642578125 696.73828125 331.20703125 694.650390625 c 0
 309.53125 690.235351562 289.140625 680.6015625 273.0859375 665.428710938 c 0
 271.158203125 663.663085938 269.47265625 661.896484375 268.107421875 660.2109375 c 0
515.44921875 177.16796875 m 0
 524.19921875 194.428710938 529.095703125 214.016601562 529.095703125 234.809570312 c 0
 529.095703125 273.583984375 511.8359375 308.426757812 484.62109375 332.028320312 c 0
 477.314453125 336.684570312 470.08984375 341.1796875 462.705078125 345.8359375 c 0
 443.4375 354.666992188 422.56640625 360.607421875 400.6484375 363.256835938 c 2
 400.568359375 363.256835938 l 2
 392.220703125 364.380859375 383.7109375 364.862304688 375.0390625 364.862304688 c 2
 374.958984375 364.862304688 l 2
 366.2890625 364.862304688 357.779296875 364.380859375 349.431640625 363.256835938 c 2
 349.349609375 363.256835938 l 2
 327.43359375 360.607421875 306.560546875 354.666992188 287.294921875 345.8359375 c 0
 279.908203125 341.1796875 272.68359375 336.684570312 265.37890625 332.028320312 c 0
 238.1640625 308.426757812 220.90234375 273.583984375 220.90234375 234.809570312 c 0
 220.90234375 214.016601562 225.80078125 194.428710938 234.55078125 177.16796875 c 0
 249.40234375 147.706054688 276.779296875 126.994140625 308.0859375 116.477539062 c 0
 323.1796875 111.419921875 339.154296875 107.967773438 355.451171875 106.522460938 c 2
 355.93359375 106.522460938 l 2
 362.1953125 105.879882812 368.537109375 105.559570312 374.958984375 105.559570312 c 2
 375.0390625 105.559570312 l 2
 381.462890625 105.559570312 387.8046875 105.879882812 394.06640625 106.522460938 c 2
 394.546875 106.522460938 l 2
 410.84375 107.967773438 426.8203125 111.419921875 441.912109375 116.477539062 c 0
 473.22265625 126.994140625 500.59765625 147.706054688 515.44921875 177.16796875 c 0
EndSplineSet
EndChar

StartChar: nine.tabular
Encoding: 65545 -1 32
Width: 750
VWidth: 1024
Flags: HW
LayerCount: 2
Fore
SplineSet
635.266601562 518.03515625 m 0
 635.66796875 510.969726562 635.908203125 503.907226562 635.908203125 496.76171875 c 0
 635.908203125 450.760742188 627.159179688 406.767578125 611.262695312 366.387695312 c 0
 611.262695312 366.307617188 611.262695312 366.147460938 611.18359375 365.985351562 c 0
 566.7890625 209.681640625 465.315429688 77.3818359375 330.766601562 -6.8310546875 c 1
 237.2421875 68.8720703125 l 1
 277.943359375 90.306640625 315.59375 116.959960938 349.231445312 147.786132812 c 0
 403.901367188 197.9609375 448.215820312 259.294921875 478.400390625 328.25390625 c 1
 465.95703125 322.154296875 452.952148438 317.015625 439.46484375 313.001953125 c 0
 416.505859375 306.178710938 392.180664062 302.485351562 366.97265625 302.485351562 c 0
 227.287109375 302.485351562 114.091796875 415.678710938 114.091796875 555.366210938 c 0
 114.091796875 615.09375 134.723632812 670.004882812 169.325195312 713.194335938 c 0
 215.7265625 771.15625 287.014648438 808.24609375 366.97265625 808.24609375 c 0
 401.493164062 808.24609375 434.407226562 801.341796875 464.432617188 788.818359375 c 0
 492.208984375 777.2578125 517.416015625 760.880859375 539.092773438 740.73046875 c 0
 566.94921875 714.799804688 588.9453125 682.688476562 602.9140625 646.5625 c 0
 621.298828125 607.145507812 632.618164062 563.713867188 635.266601562 518.03515625 c 0
421.8046875 426.03515625 m 2
 464.271484375 441.287109375 499.834960938 471.072265625 522.313476562 509.526367188 c 0
 522.5546875 509.927734375 522.794921875 510.408203125 523.036132812 510.809570312 c 2
 523.036132812 510.890625 l 2
 523.036132812 512.49609375 522.956054688 514.020507812 522.71484375 515.625976562 c 2
 522.71484375 515.788085938 l 2
 520.38671875 546.6953125 512.198242188 576.077148438 499.2734375 602.650390625 c 0
 489.079101562 623.763671875 475.912109375 643.110351562 460.2578125 660.290039062 c 2
 460.096679688 660.452148438 l 2
 435.291015625 682.528320312 402.697265625 695.854492188 366.97265625 695.854492188 c 0
 289.422851562 695.854492188 226.484375 632.916015625 226.484375 555.366210938 c 0
 226.484375 479.500976562 286.693359375 417.60546875 361.915039062 414.95703125 c 0
 382.868164062 415.438476562 402.938476562 419.291015625 421.642578125 425.955078125 c 0
 421.723632812 425.955078125 421.8046875 426.03515625 421.8046875 426.03515625 c 2
EndSplineSet
EndChar

StartChar: less
Encoding: 60 60 33
Width: 466
VWidth: 1024
Flags: HW
LayerCount: 2
Fore
SplineSet
416.078125 454.213867188 m 1
 147.221679688 264.111328125 l 1
 416.078125 74.0087890625 l 1
 416.078125 -63.669921875 l 1
 49.921875 195.3125 l 1
 49.921875 332.91015625 l 1
 416.078125 591.892578125 l 1
 416.078125 454.213867188 l 1
EndSplineSet
EndChar

StartChar: greater
Encoding: 62 62 34
Width: 466
VWidth: 1024
Flags: HW
LayerCount: 2
Fore
SplineSet
49.921875 454.213867188 m 1
 49.921875 591.892578125 l 1
 416.078125 332.91015625 l 1
 416.078125 195.3125 l 1
 49.921875 -63.669921875 l 1
 49.921875 74.0087890625 l 1
 318.779296875 264.111328125 l 1
 49.921875 454.213867188 l 1
EndSplineSet
EndChar

StartChar: parenleft
Encoding: 40 40 35
Width: 361
VWidth: 1000
Flags: HW
LayerCount: 2
Fore
SplineSet
231.973632812 -42.529296875 m 1
 -11.263671875 200.711914062 -11.263671875 596.49609375 231.973632812 839.737304688 c 1
 311.454101562 760.264648438 l 1
 112.033203125 560.844726562 112.033203125 236.36328125 311.454101562 36.94140625 c 1
 231.973632812 -42.529296875 l 1
EndSplineSet
EndChar

StartChar: parenright
Encoding: 41 41 36
Width: 361
VWidth: 1000
Flags: HW
LayerCount: 2
Fore
SplineSet
129.025390625 -42.529296875 m 1
 49.5458984375 36.94140625 l 1
 248.966796875 236.36328125 248.966796875 560.844726562 49.5458984375 760.264648438 c 1
 129.025390625 839.737304688 l 1
 372.263671875 596.49609375 372.263671875 200.711914062 129.025390625 -42.529296875 c 1
EndSplineSet
EndChar

StartChar: percent
Encoding: 37 37 37
Width: 839
VWidth: 1000
Flags: HW
LayerCount: 2
Fore
SplineSet
206.373046875 406.631835938 m 0
 120.053710938 406.631835938 49.828125 476.856445312 49.828125 563.17578125 c 0
 49.828125 649.497070312 120.053710938 719.721679688 206.373046875 719.721679688 c 0
 292.693359375 719.721679688 362.918945312 649.497070312 362.918945312 563.17578125 c 0
 362.918945312 476.856445312 292.693359375 406.631835938 206.373046875 406.631835938 c 0
206.373046875 607.331054688 m 0
 182.026367188 607.331054688 162.21875 587.522460938 162.21875 563.17578125 c 0
 162.21875 538.831054688 182.026367188 519.022460938 206.373046875 519.022460938 c 0
 230.719726562 519.022460938 250.526367188 538.831054688 250.526367188 563.17578125 c 0
 250.526367188 587.522460938 230.719726562 607.331054688 206.373046875 607.331054688 c 0
632.626953125 -2.7939453125 m 0
 546.307617188 -2.7939453125 476.08203125 67.431640625 476.08203125 153.751953125 c 0
 476.08203125 240.071289062 546.307617188 310.296875 632.626953125 310.296875 c 0
 718.947265625 310.296875 789.171875 240.071289062 789.171875 153.751953125 c 0
 789.171875 67.431640625 718.947265625 -2.7939453125 632.626953125 -2.7939453125 c 0
632.626953125 197.904296875 m 0
 608.280273438 197.904296875 588.47265625 178.098632812 588.47265625 153.751953125 c 0
 588.47265625 129.405273438 608.280273438 109.596679688 632.626953125 109.596679688 c 0
 656.973632812 109.596679688 676.780273438 129.405273438 676.780273438 153.751953125 c 0
 676.780273438 178.098632812 656.973632812 197.904296875 632.626953125 197.904296875 c 0
148.44140625 -39.6640625 m 1
 63.6181640625 34.0693359375 l 1
 690.559570312 755.302734375 l 1
 775.383789062 681.568359375 l 1
 148.44140625 -39.6640625 l 1
148.401367188 -37.1005859375 m 1
 63.6455078125 36.7119140625 l 1
 690.598632812 756.626953125 l 1
 775.354492188 682.815429688 l 1
 148.401367188 -37.1005859375 l 1
EndSplineSet
EndChar

StartChar: asterisk
Encoding: 42 42 38
Width: 396
VWidth: 1000
Flags: HW
LayerCount: 2
Fore
SplineSet
141.803710938 517.416992188 m 1
 198 658.708984375 l 1
 254.194335938 517.416992188 l 1
 141.803710938 517.416992188 l 1
 141.803710938 517.416992188 l 1
254.194335938 799.19921875 m 1
 198 658.708984375 l 1
 141.803710938 799.19921875 l 1
 254.194335938 799.19921875 l 1
 254.194335938 799.19921875 l 1
283.377929688 532.934570312 m 1
 198 658.307617188 l 1
 346.228515625 626.111328125 l 1
 283.377929688 532.934570312 l 1
 283.377929688 532.934570312 l 1
112.620117188 783.681640625 m 1
 198 658.307617188 l 1
 49.771484375 690.504882812 l 1
 112.620117188 783.681640625 l 1
 112.620117188 783.681640625 l 1
49.771484375 626.111328125 m 1
 198.595703125 658.708984375 l 1
 112.620117188 532.934570312 l 1
 49.771484375 626.111328125 l 1
 49.771484375 626.111328125 l 1
346.228515625 690.504882812 m 1
 198.595703125 658.708984375 l 1
 283.377929688 783.681640625 l 1
 346.228515625 690.504882812 l 1
 346.228515625 690.504882812 l 1
EndSplineSet
EndChar

StartChar: y
Encoding: 121 121 41
Width: 636
VWidth: 2047
Flags: HW
HStem: -288.009 112.163<96.495 194.711> 500.008 20G<49.6738 178.316 457.684 586.326>
LayerCount: 2
Fore
SplineSet
586.326171875 520.0078125 m 1
 381.19921875 7.357421875 l 1
 378.322265625 0.078125 l 1
 363.123046875 -37.84375 l 1
 360.9609375 -43.1240234375 l 1
 300.71875 -193.765625 l 2
 299.7578125 -196.486328125 298.71875 -199.206054688 297.4375 -202.086914062 c 0
 275.921875 -251.3671875 228.876953125 -284.328125 174.796875 -287.6875 c 0
 171.755859375 -287.927734375 168.716796875 -288.008789062 165.59765625 -288.008789062 c 0
 162.875 -288.008789062 160.15625 -287.927734375 157.43359375 -287.768554688 c 0
 129.1953125 -286.80859375 102.234375 -280.887695312 77.59765625 -270.887695312 c 2
 77.59765625 -137.844726562 l 1
 98.39453125 -160.405273438 127.99609375 -174.7265625 161.279296875 -175.845703125 c 2
 168.796875 -175.845703125 l 2
 179.919921875 -174.805664062 189.919921875 -167.686523438 194.63671875 -157.446289062 c 2
 196.236328125 -153.446289062 l 1
 257.677734375 0.078125 l 1
 243.677734375 35.0380859375 l 1
 243.599609375 35.119140625 l 1
 187.67578125 174.961914062 l 1
 49.673828125 520.0078125 l 1
 170.31640625 520.0078125 l 1
 318 150.799804688 l 1
 465.68359375 520.0078125 l 1
 586.326171875 520.0078125 l 1
EndSplineSet
EndChar

StartChar: X
Encoding: 88 88 42
Width: 786
VWidth: 1000
Flags: HW
HStem: 3.99707 21G<49.5537 197.425 588.574 736.446> 780.014 20G<71.9521 219.828 566.088 713.887>
LayerCount: 2
Fore
SplineSet
736.446289062 3.9970703125 m 1
 601.885742188 3.9970703125 l 1
 392.997070312 317.842773438 l 1
 184.114257812 3.9970703125 l 1
 49.5537109375 3.9970703125 l 1
 325.719726562 418.884765625 l 1
 71.9521484375 800.013671875 l 1
 206.517578125 800.013671875 l 1
 392.919921875 519.927734375 l 1
 579.404296875 800.013671875 l 1
 713.88671875 800.013671875 l 1
 460.202148438 418.884765625 l 1
 736.446289062 3.9970703125 l 1
EndSplineSet
EndChar

StartChar: dollar
Encoding: 36 36 43
Width: 594
VWidth: 1000
Flags: HW
LayerCount: 2
Fore
SplineSet
466.87109375 441.3125 m 0
 516.806640625 391.377929688 544.421875 324.827148438 544.421875 254.100585938 c 0
 544.421875 183.374023438 516.806640625 116.823242188 466.709960938 66.80859375 c 0
 430.423828125 30.44140625 385.3046875 5.8759765625 336.177734375 -4.7197265625 c 1
 336.177734375 -83.07421875 l 1
 223.787109375 -83.07421875 l 1
 223.787109375 -4.9609375 l 1
 174.25 5.5546875 128.732421875 30.2001953125 92.1279296875 66.80859375 c 0
 75.4296875 83.5869140625 61.1376953125 102.29296875 49.578125 122.522460938 c 1
 147.278320312 178.077148438 l 1
 153.78125 166.595703125 161.96875 155.918945312 171.682617188 146.28515625 c 0
 186.775390625 131.193359375 204.4375 119.6328125 223.787109375 112.0859375 c 1
 223.787109375 418.915039062 l 1
 191.591796875 428.146484375 162.373046875 445.166015625 138.368164062 468.928710938 c 2
 137.403320312 469.97265625 l 2
 99.591796875 507.703125 78.71875 558.118164062 78.71875 611.74609375 c 0
 78.71875 665.372070312 99.591796875 715.788085938 137.564453125 753.6796875 c 0
 162.208984375 778.325195312 191.991210938 795.345703125 223.787109375 804.3359375 c 2
 223.787109375 880.280273438 l 1
 336.177734375 880.280273438 l 1
 336.177734375 804.17578125 l 2
 358.893554688 797.512695312 380.6484375 786.754882812 400.401367188 771.822265625 c 0
 407.625 766.444335938 414.689453125 760.342773438 421.431640625 753.6796875 c 1
 341.877929688 674.204101562 l 1
 340.03125 676.129882812 338.1015625 677.895507812 336.177734375 679.421875 c 1
 336.177734375 512.760742188 l 2
 350.3046875 509.791015625 364.353515625 505.536132812 377.920898438 500.077148438 c 0
 411.478515625 486.669921875 441.34375 466.840820312 466.87109375 441.3125 c 0
223.787109375 543.267578125 m 1
 223.787109375 680.3046875 l 1
 221.45703125 678.377929688 219.20703125 676.37109375 217.0390625 674.204101562 c 0
 200.33984375 657.504882812 191.109375 635.34765625 191.109375 611.74609375 c 0
 191.109375 588.143554688 200.33984375 565.985351562 217.0390625 549.288085938 c 2
 217.28125 549.046875 l 2
 219.369140625 546.9609375 221.53515625 545.033203125 223.787109375 543.267578125 c 1
387.233398438 146.28515625 m 0
 416.135742188 175.10546875 432.030273438 213.3984375 432.030273438 254.100585938 c 0
 432.030273438 294.801757812 416.135742188 333.095703125 387.3125 361.916015625 c 0
 372.54296875 376.6875 355.443359375 388.006835938 336.177734375 395.713867188 c 1
 336.177734375 112.487304688 l 1
 355.04296875 120.034179688 372.46484375 131.43359375 387.233398438 146.28515625 c 0
EndSplineSet
EndChar

StartChar: ampersand
Encoding: 38 38 44
Width: 886
VWidth: 1000
Flags: HW
LayerCount: 2
Fore
SplineSet
611.568359375 221.989257812 m 1
 836.349609375 -2.7939453125 l 1
 677.396484375 -2.7939453125 l 1
 532.08984375 142.51171875 l 1
 444.265625 54.685546875 l 1
 443.380859375 53.8828125 l 2
 398.74609375 11.013671875 340.544921875 -10.3408203125 282.421875 -10.3408203125 c 0
 222.61328125 -10.3408203125 162.8046875 12.298828125 117.6875 57.3349609375 c 0
 26.970703125 148.131835938 26.970703125 295.845703125 117.6875 386.642578125 c 2
 202.86328125 471.73828125 l 1
 160.556640625 514.045898438 l 2
 93.5234375 581.239257812 93.5234375 690.418945312 160.556640625 757.61328125 c 0
 227.75 824.647460938 336.9296875 824.647460938 404.044921875 757.61328125 c 0
 470.115234375 691.543945312 470.998046875 583.24609375 406.1328125 516.212890625 c 2
 405.408203125 515.41015625 l 1
 402.599609375 512.600585938 l 1
 361.818359375 471.73828125 l 1
 532.08984375 301.466796875 l 1
 691.04296875 460.418945312 l 1
 764.98046875 375.40234375 l 1
 611.568359375 221.989257812 l 1
240.033203125 678.13671875 m 0
 216.75390625 654.85546875 216.75390625 616.803710938 240.033203125 593.522460938 c 2
 282.341796875 551.215820312 l 1
 323.283203125 592.23828125 l 1
 326.09375 595.046875 l 2
 347.84765625 618.409179688 347.287109375 655.498046875 324.6484375 678.13671875 c 0
 301.3671875 701.41796875 263.314453125 701.41796875 240.033203125 678.13671875 c 0
364.7890625 134.163085938 m 2
 452.615234375 221.989257812 l 1
 282.341796875 392.26171875 l 1
 197.1640625 307.165039062 l 2
 150.28125 260.202148438 150.28125 183.775390625 197.1640625 136.8125 c 0
 242.84375 91.1337890625 317.82421875 90.08984375 364.7890625 134.163085938 c 2
EndSplineSet
EndChar

StartChar: at
Encoding: 64 64 45
Width: 923
VWidth: 1000
Flags: HW
LayerCount: 2
Fore
SplineSet
721.126953125 -55.802734375 m 0
 715.655273438 -55.802734375 709.908203125 -55.4658203125 704.05078125 -54.8037109375 c 0
 650.37109375 -48.8916015625 605.616210938 -15.5029296875 583.6484375 30.8935546875 c 1
 546.69140625 11.2978515625 505.0390625 0.7958984375 461.49609375 0.7958984375 c 0
 317.627929688 0.7958984375 200.588867188 117.840820312 200.588867188 261.704101562 c 0
 200.588867188 405.569335938 317.627929688 522.612304688 461.49609375 522.612304688 c 0
 544.346679688 522.612304688 620.401367188 484.575195312 670.14453125 418.25 c 2
 681.38671875 403.263671875 l 1
 681.51953125 93.486328125 l 2
 682.837890625 74.8828125 697.686523438 59.5478515625 716.768554688 57.576171875 c 2
 717.685546875 57.474609375 l 2
 718.5859375 57.3681640625 719.73828125 57.314453125 721.126953125 57.314453125 c 0
 742.28515625 57.314453125 759.706054688 73.8662109375 760.772460938 95 c 2
 760.9453125 97.4892578125 l 1
 760.9453125 270.372070312 l 2
 756.421875 438.661132812 625.010742188 570.376953125 461.49609375 570.376953125 c 0
 296.34375 570.376953125 161.9765625 431.907226562 161.9765625 261.704101562 c 0
 161.9765625 176.1015625 195.194335938 96.5244140625 255.505859375 37.626953125 c 1
 176.983398438 -42.78515625 l 1
 94.830078125 37.439453125 49.5859375 145.57421875 49.5859375 261.704101562 c 0
 49.5859375 493.879882812 234.370117188 682.767578125 461.49609375 682.767578125 c 0
 569.944335938 682.767578125 672.32421875 640.049804688 749.7734375 562.478515625 c 0
 826.712890625 485.420898438 870.584960938 382.43359375 873.3203125 272.4921875 c 0
 873.40625 268.901367188 873.4140625 265.298828125 873.4140625 261.704101562 c 0
 873.4140625 258.353515625 873.40625 255.005859375 873.3359375 251.654296875 c 2
 873.25 96.32421875 l 2
 873.25 94.05078125 873.21875 91.3544921875 872.967773438 88.2333984375 c 0
 868.734375 7.3427734375 802.33203125 -55.802734375 721.126953125 -55.802734375 c 0
760.9453125 97.3359375 m 1
 760.921875 97.0537109375 l 1
 760.9453125 97.3359375 l 1
461.49609375 410.221679688 m 0
 379.6015625 410.221679688 312.979492188 343.594726562 312.979492188 261.704101562 c 0
 312.979492188 179.809570312 379.6015625 113.188476562 461.49609375 113.188476562 c 0
 502.772460938 113.188476562 541.09375 129.7890625 568.995117188 159.266601562 c 2
 568.995117188 364.143554688 l 2
 541.09375 393.618164062 502.772460938 410.221679688 461.49609375 410.221679688 c 0
EndSplineSet
EndChar

StartChar: A
Encoding: 65 65 46
Width: 874
VWidth: 973
Flags: W
HStem: 4.00391 21G<49.7539 179.001 694.993 824.246> 228.809 112.002<309.037 564.883> 780.021 20G<368.193 505.729>
LayerCount: 2
Fore
SplineSet
731.92578125 228.80859375 m 1
 824.24609375 4.00390625 l 1
 703.20703125 4.00390625 l 1
 610.8828125 228.80859375 l 1
 263.037109375 228.80859375 l 1
 170.794921875 4.00390625 l 1
 49.75390625 4.00390625 l 1
 141.994140625 228.80859375 l 1
 187.994140625 340.810546875 l 1
 376.3984375 800.020507812 l 1
 497.51953125 800.020507812 l 1
 686.00390625 340.810546875 l 1
 731.92578125 228.80859375 l 1
309.037109375 340.810546875 m 1
 564.8828125 340.810546875 l 1
 436.958984375 652.498046875 l 1
 309.037109375 340.810546875 l 1
EndSplineSet
EndChar

StartChar: B
Encoding: 66 66 47
Width: 616
VWidth: 1000
Flags: HW
HStem: 3.99707 112.003<161.996 383.639> 408.006 112.002<161.996 302.451> 688.011 112.003<161.996 299.597>
VStem: 49.9941 112.002<116 408.006 520.008 688.011> 330 112.002<547.828 659.035> 454.004 112.002<185.868 337.772>
LayerCount: 2
Fore
SplineSet
411.04296875 498.487304688 m 1
 502.1640625 458.646484375 566.005859375 367.604492188 566.005859375 262.002929688 c 0
 566.005859375 119.759765625 450.2421875 3.9970703125 308 3.9970703125 c 2
 49.994140625 3.9970703125 l 1
 49.994140625 800.013671875 l 1
 245.998046875 800.013671875 l 2
 354.080078125 800.013671875 442.001953125 712.091796875 442.001953125 604.009765625 c 0
 442.001953125 565.12890625 430.642578125 528.96875 411.04296875 498.487304688 c 1
245.998046875 688.010742188 m 2
 161.99609375 688.010742188 l 1
 161.99609375 520.0078125 l 1
 245.998046875 520.0078125 l 2
 292.3203125 520.0078125 330 557.688476562 330 604.009765625 c 0
 330 650.330078125 292.3203125 688.010742188 245.998046875 688.010742188 c 2
308 116 m 2
 388.48046875 116 454.00390625 181.521484375 454.00390625 262.002929688 c 0
 454.00390625 342.484375 388.48046875 408.005859375 308 408.005859375 c 2
 161.99609375 408.005859375 l 1
 161.99609375 116 l 1
 308 116 l 2
EndSplineSet
EndChar

StartChar: C
Encoding: 67 67 48
Width: 796
VWidth: 1000
Flags: W
HStem: -5.92285 112.003<349.447 597.924> 697.932 112.001<349.447 597.924>
VStem: 49.9922 112.002<293.068 510.943>
LayerCount: 2
Fore
SplineSet
449.201171875 697.931640625 m 2
 288.078125 693.211914062 161.994140625 563.2890625 161.994140625 402.004882812 c 0
 161.994140625 240.72265625 288.078125 110.798828125 449.201171875 106.080078125 c 2
 458.001953125 105.999023438 l 1
 467.04296875 106.080078125 l 2
 570.083984375 107.999023438 667.4453125 143.920898438 746.0078125 204.5625 c 1
 746.0078125 70.3984375 l 1
 687.046875 36.9580078125 622.1640625 13.4375 554.00390625 1.9970703125 c 0
 526.162109375 -2.7216796875 497.76171875 -5.3623046875 468.962890625 -5.9228515625 c 2
 458.001953125 -6.001953125 l 1
 446.560546875 -5.9228515625 l 2
 422.880859375 -5.283203125 399.521484375 -2.642578125 376.638671875 1.9970703125 c 0
 296.87890625 18.158203125 223.67578125 57.837890625 165.755859375 117.279296875 c 0
 142.474609375 141.200195312 122.474609375 167.440429688 105.994140625 195.44140625 c 0
 69.513671875 257.522460938 49.9921875 328.404296875 49.9921875 402.004882812 c 0
 49.9921875 475.607421875 69.513671875 546.487304688 105.994140625 608.569335938 c 0
 122.474609375 636.5703125 142.474609375 662.810546875 165.755859375 686.731445312 c 0
 223.67578125 746.171875 296.87890625 785.853515625 376.638671875 802.013671875 c 0
 399.521484375 806.654296875 422.880859375 809.293945312 446.560546875 809.932617188 c 2
 458.001953125 810.013671875 l 1
 468.962890625 809.932617188 l 2
 497.76171875 809.373046875 526.2421875 806.734375 554.08203125 802.013671875 c 0
 622.244140625 790.573242188 687.126953125 767.1328125 746.0078125 733.612304688 c 1
 746.0078125 599.44921875 l 1
 667.4453125 660.090820312 570.083984375 696.01171875 467.04296875 697.931640625 c 2
 458.001953125 698.01171875 l 1
 449.201171875 697.931640625 l 2
EndSplineSet
EndChar

StartChar: D
Encoding: 68 68 49
Width: 704
VWidth: 1000
Flags: HW
HStem: 3.99707 112.003<161.996 360.757> 688.011 112.003<161.996 360.757>
VStem: 49.9941 112.002<116 688.011> 542.004 112.002<295.212 508.799>
LayerCount: 2
Fore
SplineSet
255.998046875 800.013671875 m 2
 475.44140625 800.013671875 654.005859375 621.450195312 654.005859375 402.004882812 c 0
 654.005859375 182.561523438 475.44140625 3.9970703125 255.998046875 3.9970703125 c 2
 49.994140625 3.9970703125 l 1
 49.994140625 800.013671875 l 1
 255.998046875 800.013671875 l 2
255.998046875 116 m 2
 413.681640625 116 542.00390625 244.322265625 542.00390625 402.004882812 c 0
 542.00390625 559.688476562 413.681640625 688.010742188 255.998046875 688.010742188 c 2
 161.99609375 688.010742188 l 1
 161.99609375 116 l 1
 255.998046875 116 l 2
EndSplineSet
EndChar

StartChar: E
Encoding: 69 69 50
Width: 616
VWidth: 1000
Flags: HW
HStem: 3.99707 112.003<161.996 566.006> 408.006 112.002<161.996 437.043> 688.011 112.003<161.996 566.006>
VStem: 49.9941 112.002<116 408.006 520.008 688.011>
LayerCount: 2
Fore
SplineSet
161.99609375 688.010742188 m 1
 161.99609375 520.0078125 l 1
 437.04296875 520.0078125 l 1
 437.04296875 408.005859375 l 1
 161.99609375 408.005859375 l 1
 161.99609375 116 l 1
 566.005859375 116 l 1
 566.005859375 3.9970703125 l 1
 49.994140625 3.9970703125 l 1
 49.994140625 800.013671875 l 1
 566.005859375 800.013671875 l 1
 566.005859375 688.010742188 l 1
 161.99609375 688.010742188 l 1
EndSplineSet
EndChar

StartChar: F
Encoding: 70 70 51
Width: 616
VWidth: 1000
Flags: HW
HStem: 3.99707 21G<49.9941 161.996> 408.006 112.002<161.996 437.041> 688.011 112.003<161.996 566.006>
VStem: 49.9941 112.002<3.99707 408.006 520.008 688.011>
LayerCount: 2
Fore
SplineSet
161.99609375 688.010742188 m 1
 161.99609375 520.0078125 l 1
 437.041015625 520.0078125 l 1
 437.041015625 408.005859375 l 1
 161.99609375 408.005859375 l 1
 161.99609375 3.9970703125 l 1
 49.994140625 3.9970703125 l 1
 49.994140625 800.013671875 l 1
 566.005859375 800.013671875 l 1
 566.005859375 688.010742188 l 1
 161.99609375 688.010742188 l 1
EndSplineSet
EndChar

StartChar: G
Encoding: 71 71 52
Width: 796
VWidth: 1000
Flags: HW
LayerCount: 2
Fore
SplineSet
161.994140625 402.004882812 m 0
 161.994140625 240.72265625 288.078125 110.798828125 449.201171875 106.080078125 c 2
 458.001953125 105.999023438 l 1
 467.04296875 106.080078125 l 2
 525.283203125 107.19921875 581.765625 119.120117188 634.00390625 140.240234375 c 1
 634.00390625 336.00390625 l 1
 426 336.00390625 l 1
 426 448.006835938 l 1
 746.0078125 448.006835938 l 1
 746.0078125 70.3984375 l 1
 687.046875 36.9580078125 622.1640625 13.4375 554.00390625 1.9970703125 c 0
 526.162109375 -2.7216796875 497.763671875 -5.3623046875 468.962890625 -5.9228515625 c 2
 458.001953125 -6.001953125 l 1
 446.560546875 -5.9228515625 l 2
 422.880859375 -5.283203125 399.521484375 -2.642578125 376.638671875 1.9970703125 c 0
 296.87890625 18.158203125 223.67578125 57.837890625 165.755859375 117.279296875 c 0
 142.474609375 141.200195312 122.474609375 167.440429688 105.994140625 195.44140625 c 0
 69.513671875 257.522460938 49.9921875 328.404296875 49.9921875 402.004882812 c 0
 49.9921875 475.607421875 69.513671875 546.487304688 105.994140625 608.569335938 c 0
 122.474609375 636.5703125 142.474609375 662.810546875 165.755859375 686.731445312 c 0
 223.67578125 746.171875 296.87890625 785.853515625 376.638671875 802.013671875 c 0
 399.521484375 806.654296875 422.880859375 809.293945312 446.560546875 809.932617188 c 2
 458.001953125 810.013671875 l 1
 468.962890625 809.932617188 l 2
 497.763671875 809.373046875 526.2421875 806.734375 554.08203125 802.013671875 c 0
 622.244140625 790.573242188 687.126953125 767.1328125 746.0078125 733.612304688 c 1
 746.0078125 599.44921875 l 1
 667.447265625 660.090820312 570.083984375 696.01171875 467.04296875 697.931640625 c 2
 458.001953125 698.01171875 l 1
 449.201171875 697.931640625 l 2
 288.078125 693.211914062 161.994140625 563.2890625 161.994140625 402.004882812 c 0
EndSplineSet
EndChar

StartChar: H
Encoding: 72 72 53
Width: 692
VWidth: 1000
Flags: HW
LayerCount: 2
Fore
SplineSet
642.005859375 800.013671875 m 1
 642.005859375 3.9970703125 l 1
 530.00390625 3.9970703125 l 1
 530.00390625 408.005859375 l 1
 161.99609375 408.005859375 l 1
 161.99609375 3.9970703125 l 1
 49.994140625 3.9970703125 l 1
 49.994140625 800.013671875 l 1
 161.99609375 800.013671875 l 1
 161.99609375 520.0078125 l 1
 530.00390625 520.0078125 l 1
 530.00390625 800.013671875 l 1
 642.005859375 800.013671875 l 1
EndSplineSet
EndChar

StartChar: I
Encoding: 73 73 54
Width: 436
VWidth: 1000
Flags: W
HStem: 3.99707 112.003<49.9971 161.999 274.002 386.003> 688.011 112.003<49.9971 161.999 274.002 386.003>
VStem: 161.999 112.003<116 688.011>
LayerCount: 2
Fore
SplineSet
274.001953125 688.010742188 m 1
 274.001953125 116 l 1
 386.002929688 116 l 1
 386.002929688 3.9970703125 l 1
 49.9970703125 3.9970703125 l 1
 49.9970703125 116 l 1
 161.999023438 116 l 1
 161.999023438 688.010742188 l 1
 49.9970703125 688.010742188 l 1
 49.9970703125 800.013671875 l 1
 386.002929688 800.013671875 l 1
 386.002929688 688.010742188 l 1
 274.001953125 688.010742188 l 1
EndSplineSet
EndChar

StartChar: J
Encoding: 74 74 55
Width: 540
VWidth: 1000
Flags: W
HStem: -4.00195 112.001<156.028 308.294> 688.011 112.003<285.361 378.162>
VStem: 378.162 112.002<178.363 688.011>
LayerCount: 2
Fore
SplineSet
128.95703125 150.80078125 m 1
 155.4375 124.400390625 191.91796875 107.999023438 232.158203125 107.999023438 c 0
 312.640625 107.999023438 378.162109375 173.521484375 378.162109375 254.002929688 c 2
 378.162109375 688.010742188 l 1
 285.361328125 688.010742188 l 1
 285.361328125 800.013671875 l 1
 490.1640625 800.013671875 l 1
 490.1640625 254.002929688 l 2
 490.1640625 111.759765625 374.40234375 -4.001953125 232.158203125 -4.001953125 c 0
 161.037109375 -4.001953125 96.556640625 24.9580078125 49.8359375 71.6787109375 c 1
 128.95703125 150.80078125 l 1
EndSplineSet
EndChar

StartChar: K
Encoding: 75 75 56
Width: 689
VWidth: 1000
Flags: HW
HStem: 3.99707 21G<49.8936 161.896 460.703 639.106> 780.014 20G<49.8936 161.896 460.703 639.106>
VStem: 49.8936 112.002<3.99707 322.804 481.207 800.014>
LayerCount: 2
Fore
SplineSet
241.098632812 402.004882812 m 1
 639.106445312 3.9970703125 l 1
 480.703125 3.9970703125 l 1
 161.895507812 322.803710938 l 1
 161.895507812 3.9970703125 l 1
 49.8935546875 3.9970703125 l 1
 49.8935546875 800.013671875 l 1
 161.895507812 800.013671875 l 1
 161.895507812 481.20703125 l 1
 480.703125 800.013671875 l 1
 639.106445312 800.013671875 l 1
 241.098632812 402.004882812 l 1
EndSplineSet
EndChar

StartChar: L
Encoding: 76 76 57
Width: 616
VWidth: 1000
Flags: W
HStem: 3.99707 112.003<161.996 566.006> 780.014 20G<49.9941 161.996>
VStem: 49.9941 112.002<116 800.014>
LayerCount: 2
Fore
SplineSet
566.005859375 116 m 1
 566.005859375 3.9970703125 l 1
 49.994140625 3.9970703125 l 1
 49.994140625 800.013671875 l 1
 161.99609375 800.013671875 l 1
 161.99609375 116 l 1
 566.005859375 116 l 1
EndSplineSet
EndChar

StartChar: M
Encoding: 77 77 58
Width: 740
VWidth: 1000
Flags: HW
LayerCount: 2
Fore
SplineSet
690.005859375 800.013671875 m 1
 690.005859375 3.9970703125 l 1
 578.00390625 3.9970703125 l 1
 578.00390625 621.849609375 l 1
 370 323.763671875 l 1
 161.99609375 621.849609375 l 1
 161.99609375 3.9970703125 l 1
 49.994140625 3.9970703125 l 1
 49.994140625 800.013671875 l 1
 174.31640625 800.013671875 l 1
 370 519.448242188 l 1
 565.68359375 800.013671875 l 1
 690.005859375 800.013671875 l 1
EndSplineSet
EndChar

StartChar: N
Encoding: 78 78 59
Width: 740
VWidth: 1000
Flags: HW
LayerCount: 2
Fore
SplineSet
690.005859375 800.013671875 m 1
 690.005859375 3.9970703125 l 1
 566.802734375 3.9970703125 l 1
 161.99609375 614.25 l 1
 161.99609375 3.9970703125 l 1
 49.994140625 3.9970703125 l 1
 49.994140625 800.013671875 l 1
 173.1953125 800.013671875 l 1
 578.00390625 189.760742188 l 1
 578.00390625 800.013671875 l 1
 690.005859375 800.013671875 l 1
EndSplineSet
EndChar

StartChar: O
Encoding: 79 79 60
Width: 916
VWidth: 1000
Flags: W
HStem: -6.00195 112.001<348 568.001> 698.012 112.002<348 568.001>
VStem: 49.9922 112.002<292.005 512.005> 754.007 112.001<292.005 512.005>
LayerCount: 2
Fore
SplineSet
458.000976562 -6.001953125 m 0
 233.02734375 -6.001953125 49.9921875 177.028320312 49.9921875 402.004882812 c 0
 49.9921875 626.983398438 233.02734375 810.013671875 458.000976562 810.013671875 c 0
 682.973632812 810.013671875 866.0078125 626.983398438 866.0078125 402.004882812 c 0
 866.0078125 177.028320312 682.973632812 -6.001953125 458.000976562 -6.001953125 c 0
458.000976562 698.01171875 m 0
 294.778320312 698.01171875 161.994140625 565.223632812 161.994140625 402.004882812 c 0
 161.994140625 238.788085938 294.778320312 105.999023438 458.000976562 105.999023438 c 0
 621.22265625 105.999023438 754.006835938 238.788085938 754.006835938 402.004882812 c 0
 754.006835938 565.223632812 621.22265625 698.01171875 458.000976562 698.01171875 c 0
EndSplineSet
EndChar

StartChar: P
Encoding: 80 80 61
Width: 548
VWidth: 1000
Flags: W
HStem: 3.99707 21G<49.9961 161.998> 408.006 112.002<161.998 355.6> 688.011 112.003<161.998 355.6>
VStem: 49.9961 112.002<3.99707 408.006 520.008 688.011> 386.002 112.002<548.984 659.035>
LayerCount: 2
Fore
SplineSet
302 800.013671875 m 2
 410.083984375 800.013671875 498.00390625 712.091796875 498.00390625 604.009765625 c 0
 498.00390625 495.927734375 410.083984375 408.005859375 302 408.005859375 c 2
 161.998046875 408.005859375 l 1
 161.998046875 3.9970703125 l 1
 49.99609375 3.9970703125 l 1
 49.99609375 800.013671875 l 1
 302 800.013671875 l 2
302 520.0078125 m 2
 348.322265625 520.0078125 386.001953125 557.688476562 386.001953125 604.009765625 c 0
 386.001953125 650.330078125 348.322265625 688.010742188 302 688.010742188 c 2
 161.998046875 688.010742188 l 1
 161.998046875 520.0078125 l 1
 302 520.0078125 l 2
EndSplineSet
EndChar

StartChar: Q
Encoding: 81 81 62
Width: 916
VWidth: 1000
Flags: HW
HStem: -6.00195 112.001<348.006 568.509> 698.012 112.002<348.006 567.996>
VStem: 49.9922 112.002<292.01 512> 754.007 112.001<291.738 512>
LayerCount: 2
Fore
SplineSet
866.0078125 402.004882812 m 0
 866.0078125 308.1640625 834.168945312 221.682617188 780.727539062 152.641601562 c 1
 866.0078125 78.5595703125 l 1
 792.487304688 -6.001953125 l 1
 700.40625 73.9990234375 l 1
 632.643554688 23.7578125 548.72265625 -6.001953125 458.000976562 -6.001953125 c 0
 233.03515625 -6.001953125 49.9921875 177.041015625 49.9921875 402.004882812 c 0
 49.9921875 626.970703125 233.03515625 810.013671875 458.000976562 810.013671875 c 0
 682.966796875 810.013671875 866.0078125 626.970703125 866.0078125 402.004882812 c 0
473.51953125 419.686523438 m 1
 696.004882812 226.321289062 l 1
 732.486328125 275.442382812 754.006835938 336.244140625 754.006835938 402.004882812 c 0
 754.006835938 565.208984375 621.203125 698.01171875 458.000976562 698.01171875 c 0
 294.797851562 698.01171875 161.994140625 565.208984375 161.994140625 402.004882812 c 0
 161.994140625 238.801757812 294.797851562 105.999023438 458.000976562 105.999023438 c 0
 514.801757812 105.999023438 567.921875 122.079101562 613.04296875 150.000976562 c 1
 400.080078125 335.124023438 l 1
 473.51953125 419.686523438 l 1
EndSplineSet
EndChar

StartChar: R
Encoding: 82 82 63
Width: 663
VWidth: 1000
Flags: HW
HStem: 3.99707 21G<49.7344 161.736 465.601 613.266> 408.006 112.002<161.736 210.937> 688.011 112.003<161.736 350.469>
VStem: 49.7344 112.002<3.99707 408.006 520.008 688.011> 380.779 112.003<548.701 658.989>
LayerCount: 2
Fore
SplineSet
341.740234375 413.28515625 m 1
 613.265625 3.9970703125 l 1
 478.864257812 3.9970703125 l 1
 210.936523438 408.005859375 l 1
 161.736328125 408.005859375 l 1
 161.736328125 3.9970703125 l 1
 49.734375 3.9970703125 l 1
 49.734375 800.013671875 l 1
 296.938476562 800.013671875 l 2
 404.862304688 799.93359375 492.782226562 712.01171875 492.782226562 604.009765625 c 0
 492.782226562 511.448242188 428.22265625 433.60546875 341.740234375 413.28515625 c 1
296.778320312 520.0078125 m 1
 296.938476562 520.0078125 l 2
 343.178710938 520.087890625 380.779296875 557.767578125 380.779296875 604.009765625 c 0
 380.779296875 650.250976562 343.178710938 687.931640625 296.938476562 688.010742188 c 2
 161.736328125 688.010742188 l 1
 161.736328125 520.0078125 l 1
 296.778320312 520.0078125 l 1
EndSplineSet
EndChar

StartChar: S
Encoding: 83 83 64
Width: 593
VWidth: 1000
Flags: HW
HStem: -8.00195 112.001<201.596 356.47>
VStem: 431.038 112.002<178.56 333.436>
LayerCount: 2
Fore
SplineSet
279.03515625 -8.001953125 m 0
 208.517578125 -8.001953125 142.219726562 19.478515625 92.3740234375 69.380859375 c 0
 75.6865234375 86.07421875 61.4052734375 104.745117188 49.9599609375 124.86328125 c 2
 147.305664062 180.254882812 l 2
 153.797851562 168.848632812 161.970703125 158.184570312 171.595703125 148.559570312 c 0
 200.306640625 119.81640625 238.456054688 103.999023438 279.03515625 103.999023438 c 0
 319.614257812 103.999023438 357.762695312 119.81640625 386.458984375 148.5390625 c 0
 415.216796875 177.270507812 431.038085938 215.423828125 431.038085938 256.002929688 c 0
 431.038085938 296.58203125 415.216796875 334.734375 386.498046875 363.426757812 c 0
 371.825195312 378.157226562 354.723632812 389.465820312 335.567382812 397.142578125 c 0
 327.575195312 400.329101562 319.278320312 402.826171875 310.981445312 404.537109375 c 2
 250.526367188 414.431640625 l 1
 250.526367188 414.423828125 l 1
 250.42578125 414.443359375 l 1
 242.706054688 415.720703125 l 2
 203.189453125 422.958984375 167.204101562 441.709960938 138.594726562 469.97265625 c 2
 137.422851562 471.135742188 l 2
 59.6083984375 549.141601562 59.6630859375 675.916992188 137.586914062 753.848632812 c 0
 207.939453125 824.185546875 320.497070312 831.927734375 399.607421875 771.927734375 c 0
 406.787109375 766.594726562 413.803710938 760.520507812 420.459960938 753.86328125 c 2
 341.301757812 674.63671875 l 2
 338.450195312 677.48046875 335.559570312 679.9921875 332.715820312 682.096679688 c 2
 332.067382812 682.58203125 l 2
 297.333007812 709.0390625 247.768554688 705.6328125 216.791992188 674.651367188 c 0
 182.743164062 640.608398438 182.470703125 585.387695312 215.962890625 550.997070312 c 2
 217.393554688 549.563476562 l 2
 229.823242188 537.33203125 245.377929688 529.18359375 262.45703125 525.97265625 c 2
 312.215820312 517.859375 l 2
 318.73828125 517.0546875 324.465820312 516.12109375 329.934570312 514.97265625 c 2
 331.403320312 514.729492188 l 1
 331.39453125 514.6796875 l 1
 332.184570312 514.51953125 l 2
 347.379882812 511.475585938 362.504882812 506.98046875 377.130859375 501.147460938 c 0
 410.599609375 487.7421875 440.381835938 468.041015625 465.756835938 442.561523438 c 0
 515.5546875 392.810546875 543.040039062 326.51953125 543.040039062 256.002929688 c 0
 543.040039062 185.485351562 515.5546875 119.1953125 465.655273438 69.341796875 c 0
 415.849609375 19.478515625 349.551757812 -8.001953125 279.03515625 -8.001953125 c 0
EndSplineSet
EndChar

StartChar: T
Encoding: 84 84 65
Width: 580
VWidth: 1000
Flags: HW
HStem: 3.99707 21G<233.999 346.001> 688.011 112.003<49.9951 233.999 346.001 530.005>
VStem: 233.999 112.002<3.99707 688.011>
LayerCount: 2
Fore
SplineSet
530.004882812 800.013671875 m 1
 530.004882812 688.010742188 l 1
 346.000976562 688.010742188 l 1
 346.000976562 3.9970703125 l 1
 233.999023438 3.9970703125 l 1
 233.999023438 688.010742188 l 1
 49.9951171875 688.010742188 l 1
 49.9951171875 800.013671875 l 1
 530.004882812 800.013671875 l 1
EndSplineSet
EndChar

StartChar: U
Encoding: 85 85 66
Width: 740
VWidth: 1000
Flags: HW
HStem: -4.00195 112.001<281.198 458.802> 780.014 20G<49.9941 161.996 578.004 690.006>
VStem: 49.9941 112.002<228.498 800.014> 578.004 112.002<228.498 800.014>
LayerCount: 2
Fore
SplineSet
370 -4.001953125 m 0
 193.55078125 -4.001953125 49.994140625 139.55078125 49.994140625 316.00390625 c 2
 49.994140625 800.013671875 l 1
 161.99609375 800.013671875 l 1
 161.99609375 316.00390625 l 2
 161.99609375 201.310546875 255.302734375 107.999023438 370 107.999023438 c 0
 484.697265625 107.999023438 578.00390625 201.310546875 578.00390625 316.00390625 c 2
 578.00390625 800.013671875 l 1
 690.005859375 800.013671875 l 1
 690.005859375 316.00390625 l 2
 690.005859375 139.55078125 546.44921875 -4.001953125 370 -4.001953125 c 0
EndSplineSet
EndChar

StartChar: V
Encoding: 86 86 67
Width: 746
VWidth: 1000
Flags: W
HStem: 3.99707 21G<307.365 438.635> 780.014 20G<49.9941 174.628 571.294 696.006>
LayerCount: 2
Fore
SplineSet
696.005859375 800.013671875 m 1
 432.001953125 3.9970703125 l 1
 313.998046875 3.9970703125 l 1
 49.994140625 800.013671875 l 1
 167.99609375 800.013671875 l 1
 372.9609375 181.920898438 l 1
 577.92578125 800.013671875 l 1
 696.005859375 800.013671875 l 1
EndSplineSet
EndChar

StartChar: W
Encoding: 87 87 68
Width: 854
VWidth: 1000
Flags: W
HStem: 3.99707 21G<205.896 328.178 525.904 648.184> 780.014 20G<49.832 168.174 365.9 488.182 685.829 804.168>
LayerCount: 2
Fore
SplineSet
804.16796875 800.013671875 m 1
 644.1640625 3.9970703125 l 1
 529.923828125 3.9970703125 l 1
 427.04296875 515.84765625 l 1
 324.158203125 3.9970703125 l 1
 209.91796875 3.9970703125 l 1
 49.83203125 800.013671875 l 1
 164.154296875 800.013671875 l 1
 267.0390625 288.163085938 l 1
 369.919921875 800.013671875 l 1
 484.162109375 800.013671875 l 1
 587.046875 288.163085938 l 1
 689.845703125 800.013671875 l 1
 804.16796875 800.013671875 l 1
EndSplineSet
EndChar

StartChar: Y
Encoding: 89 89 69
Width: 742
VWidth: 1000
Flags: W
HStem: 3.99707 21G<315.121 427.123> 780.014 20G<49.9941 197.951 544.131 692.006>
VStem: 315.121 112.002<3.99707 401.765>
LayerCount: 2
Fore
SplineSet
692.005859375 800.013671875 m 1
 438.322265625 418.884765625 l 1
 427.123046875 402.004882812 l 1
 427.123046875 3.9970703125 l 1
 315.12109375 3.9970703125 l 1
 315.12109375 401.764648438 l 1
 303.759765625 418.884765625 l 1
 49.994140625 800.013671875 l 1
 184.63671875 800.013671875 l 1
 371.04296875 520.0078125 l 1
 557.4453125 800.013671875 l 1
 692.005859375 800.013671875 l 1
EndSplineSet
EndChar

StartChar: Z
Encoding: 90 90 70
Width: 616
VWidth: 1000
Flags: HW
HStem: 3.99707 112.003<162.395 566.006> 688.011 112.003<49.9941 453.605>
LayerCount: 2
Fore
SplineSet
566.005859375 651.05078125 m 1
 162.39453125 116 l 1
 566.005859375 116 l 1
 566.005859375 3.9970703125 l 1
 49.994140625 3.9970703125 l 1
 49.994140625 152.9609375 l 1
 453.60546875 688.010742188 l 1
 49.994140625 688.010742188 l 1
 49.994140625 800.013671875 l 1
 566.005859375 800.013671875 l 1
 566.005859375 651.05078125 l 1
EndSplineSet
EndChar

StartChar: bracketleft
Encoding: 91 91 71
Width: 324
VWidth: 1000
Flags: HW
LayerCount: 2
Fore
SplineSet
162 688.010742188 m 1
 162 111.999023438 l 1
 274.001953125 111.999023438 l 1
 274.001953125 -0.0029296875 l 1
 49.998046875 -0.0029296875 l 1
 49.998046875 800.013671875 l 1
 274.001953125 800.013671875 l 1
 274.001953125 688.010742188 l 1
 162 688.010742188 l 1
EndSplineSet
EndChar

StartChar: backslash
Encoding: 92 92 72
Width: 578
VWidth: 1000
Flags: HW
LayerCount: 2
Fore
SplineSet
172.197265625 800.013671875 m 1
 528.365234375 -0.0029296875 l 1
 405.802734375 -0.0029296875 l 1
 49.634765625 800.013671875 l 1
 172.197265625 800.013671875 l 1
EndSplineSet
EndChar

StartChar: bracketright
Encoding: 93 93 73
Width: 324
VWidth: 1000
Flags: HW
LayerCount: 2
Fore
SplineSet
162 688.010742188 m 1
 49.998046875 688.010742188 l 1
 49.998046875 800.013671875 l 1
 274.001953125 800.013671875 l 1
 274.001953125 -0.0029296875 l 1
 49.998046875 -0.0029296875 l 1
 49.998046875 111.999023438 l 1
 162 111.999023438 l 1
 162 688.010742188 l 1
EndSplineSet
EndChar

StartChar: asciicircum
Encoding: 94 94 74
Width: 496
VWidth: 1000
Flags: HW
LayerCount: 2
Fore
SplineSet
446.00390625 681.2109375 m 1
 366.802734375 602.009765625 l 1
 248 720.811523438 l 1
 129.197265625 602.009765625 l 1
 49.99609375 681.2109375 l 1
 169.119140625 800.333007812 l 1
 326.883789062 800.333007812 l 1
 446.00390625 681.2109375 l 1
EndSplineSet
EndChar

StartChar: underscore
Encoding: 95 95 75
Width: 616
VWidth: 1000
Flags: HW
LayerCount: 2
Fore
SplineSet
49.994140625 3.9970703125 m 5
 49.994140625 116 l 5
 566.005859375 116 l 5
 566.005859375 3.9970703125 l 5
 49.994140625 3.9970703125 l 5
EndSplineSet
EndChar

StartChar: grave
Encoding: 96 96 76
Width: 436
VWidth: 1000
Flags: HW
LayerCount: 2
Fore
SplineSet
220.520507812 1000.01757812 m 1
 386.203125 856.015625 l 1
 215.48046875 856.015625 l 1
 49.796875 1000.01757812 l 1
 220.520507812 1000.01757812 l 1
EndSplineSet
EndChar

StartChar: a
Encoding: 97 97 77
Width: 561
VWidth: 1000
Flags: W
HStem: 3.99707 112.003<169.339 384.679> 204.001 112.003<170.556 384.337> 417.605 112.002<226.699 355.455>
VStem: 49.7363 112.002<123.601 196.4> 399.262 112.002<3.99707 25.998 136.34 226.002>
LayerCount: 2
Fore
SplineSet
501.666015625 377.444335938 m 0
 508.06640625 356.884765625 511.263671875 335.524414062 511.263671875 313.604492188 c 2
 511.263671875 3.9970703125 l 1
 399.26171875 3.9970703125 l 1
 399.26171875 25.998046875 l 1
 337.0234375 11.59765625 272.220703125 3.9970703125 205.73828125 3.9970703125 c 0
 119.736328125 3.9970703125 49.736328125 73.9990234375 49.736328125 160.000976562 c 0
 49.736328125 246.002929688 119.736328125 316.00390625 205.73828125 316.00390625 c 0
 271.419921875 316.00390625 335.1015625 324.563476562 395.7421875 340.564453125 c 0
 394.3046875 346.083984375 392.3046875 351.524414062 389.90234375 356.8046875 c 0
 376.140625 386.805664062 345.50390625 408.646484375 309.818359375 413.686523438 c 0
 298.779296875 415.206054688 287.580078125 416.325195312 276.458984375 416.965820312 c 0
 268.939453125 417.365234375 261.021484375 417.60546875 253.259765625 417.60546875 c 0
 202.220703125 417.60546875 152.5390625 408.24609375 105.736328125 389.764648438 c 1
 226.69921875 528.887695312 l 2
 235.5 529.3671875 244.380859375 529.607421875 253.259765625 529.607421875 c 0
 263.099609375 529.607421875 273.021484375 529.3671875 282.701171875 528.807617188 c 0
 297.021484375 528.0078125 311.341796875 526.568359375 325.50390625 524.567382812 c 0
 399.666015625 514.088867188 461.904296875 468.806640625 491.822265625 403.366210938 c 0
 495.66796875 394.885742188 498.943359375 386.245117188 501.666015625 377.444335938 c 0
399.26171875 141.520507812 m 1
 399.26171875 226.001953125 l 1
 337.0234375 211.602539062 272.220703125 204.000976562 205.73828125 204.000976562 c 0
 181.5 204.000976562 161.73828125 184.2421875 161.73828125 160.000976562 c 0
 161.73828125 135.759765625 181.5 116 205.73828125 116 c 0
 272.619140625 116 337.50390625 124.879882812 399.26171875 141.520507812 c 1
EndSplineSet
EndChar

StartChar: b
Encoding: 98 98 78
Width: 586
VWidth: 1000
Flags: HW
LayerCount: 2
Fore
SplineSet
272.201171875 520.0078125 m 0
 417.80078125 520.0078125 536.206054688 401.60546875 536.206054688 256.002929688 c 0
 536.206054688 110.399414062 417.80078125 -8.001953125 272.201171875 -8.001953125 c 0
 233.239257812 -8.001953125 195.87890625 0.3173828125 161.795898438 15.9970703125 c 1
 161.795898438 3.9970703125 l 1
 49.7939453125 3.9970703125 l 1
 49.7939453125 800.013671875 l 1
 161.795898438 800.013671875 l 1
 161.795898438 496.006835938 l 1
 195.87890625 511.688476562 233.239257812 520.0078125 272.201171875 520.0078125 c 0
272.201171875 103.999023438 m 0
 356.041992188 103.999023438 424.203125 172.161132812 424.203125 256.002929688 c 0
 424.203125 339.84375 356.041992188 408.005859375 272.201171875 408.005859375 c 0
 229.797851562 408.005859375 190.4375 390.885742188 161.795898438 360.485351562 c 2
 161.795898438 151.520507812 l 2
 190.4375 121.120117188 229.797851562 103.999023438 272.201171875 103.999023438 c 0
EndSplineSet
EndChar

StartChar: c
Encoding: 99 99 79
Width: 532
VWidth: 1000
Flags: W
HStem: -8.00195 112.001<237.204 435.563> 408.006 112.002<237.204 435.563>
VStem: 49.9961 112.002<180.821 331.184>
LayerCount: 2
Fore
SplineSet
482.00390625 489.046875 m 1
 482.00390625 366.325195312 l 1
 431.84375 392.885742188 374.642578125 408.005859375 314.000976562 408.005859375 c 0
 311.361328125 408.005859375 308.802734375 408.005859375 306.161132812 407.844726562 c 0
 225.999023438 403.764648438 161.998046875 337.205078125 161.998046875 256.002929688 c 0
 161.998046875 174.80078125 225.999023438 108.239257812 306.161132812 104.16015625 c 0
 308.802734375 103.999023438 311.361328125 103.999023438 314.000976562 103.999023438 c 0
 374.642578125 103.999023438 431.84375 119.120117188 482.00390625 145.680664062 c 1
 482.00390625 22.9580078125 l 1
 431.921875 3.7568359375 377.760742188 -7.123046875 321.201171875 -7.9228515625 c 0
 318.802734375 -8.001953125 316.399414062 -8.001953125 314.000976562 -8.001953125 c 0
 311.598632812 -8.001953125 309.200195312 -8.001953125 306.802734375 -7.9228515625 c 0
 177.838867188 -4.40234375 71.75390625 91.9189453125 52.953125 216.481445312 c 0
 51.03515625 229.361328125 49.99609375 242.5625 49.99609375 256.002929688 c 0
 49.99609375 269.442382812 51.03515625 282.643554688 52.953125 295.524414062 c 0
 71.75390625 420.0859375 177.838867188 516.408203125 306.802734375 519.927734375 c 0
 309.200195312 520.0078125 311.598632812 520.0078125 314.000976562 520.0078125 c 0
 316.399414062 520.0078125 318.802734375 520.0078125 321.201171875 519.927734375 c 0
 377.760742188 519.12890625 431.921875 508.248046875 482.00390625 489.046875 c 1
EndSplineSet
EndChar

StartChar: d
Encoding: 100 100 80
Width: 586
VWidth: 1000
Flags: HW
HStem: -8.00195 112.001<236.778 391.26> 3.99707 21G<424.201 536.204> 408.006 112.002<236.778 391.26> 780.014 20G<424.201 536.204>
VStem: 49.7959 112.002<178.98 333.025> 424.201 112.003<3.99707 15.9971 132.383 379.623 496.007 800.014>
LayerCount: 2
Fore
SplineSet
424.201171875 800.013671875 m 1xbc
 536.204101562 800.013671875 l 1
 536.204101562 3.9970703125 l 1
 424.201171875 3.9970703125 l 1x7c
 424.201171875 15.9970703125 l 1
 390.123046875 0.3173828125 352.762695312 -8.001953125 313.80078125 -8.001953125 c 0
 168.196289062 -8.001953125 49.7958984375 110.399414062 49.7958984375 256.002929688 c 0
 49.7958984375 401.60546875 168.196289062 520.0078125 313.80078125 520.0078125 c 0
 352.762695312 520.0078125 390.123046875 511.688476562 424.201171875 496.006835938 c 1
 424.201171875 800.013671875 l 1xbc
313.80078125 103.999023438 m 0xbc
 356.200195312 103.999023438 395.560546875 121.120117188 424.201171875 151.520507812 c 2
 424.201171875 360.485351562 l 2
 395.560546875 390.885742188 356.200195312 408.005859375 313.80078125 408.005859375 c 0
 229.959960938 408.005859375 161.797851562 339.84375 161.797851562 256.002929688 c 0
 161.797851562 172.161132812 229.959960938 103.999023438 313.80078125 103.999023438 c 0xbc
EndSplineSet
EndChar

StartChar: e
Encoding: 101 101 81
Width: 628
VWidth: 1000
Flags: W
HStem: -8.00195 112.001<259.204 521.637> 200.001 112.003<175.755 455.284> 408.006 112.002<236.351 391.65>
VStem: 49.9951 528.01<202.855 309.151>
LayerCount: 2
Fore
SplineSet
578.004882812 256.002929688 m 2
 578.004882812 200.000976562 l 1
 175.754882812 200.000976562 l 1
 204.638671875 143.83984375 275.51953125 103.999023438 358.161132812 103.999023438 c 0
 444.245117188 103.999023438 520.40234375 120.479492188 578.004882812 145.201171875 c 1
 578.004882812 25.5986328125 l 1
 513.5234375 4.1572265625 438.720703125 -8.001953125 358.161132812 -8.001953125 c 0
 188.240234375 -8.001953125 49.9951171875 110.399414062 49.9951171875 256.002929688 c 0
 49.9951171875 401.60546875 168.395507812 520.0078125 314 520.0078125 c 0
 459.604492188 520.0078125 578.004882812 401.60546875 578.004882812 256.002929688 c 2
172.715820312 312.00390625 m 1
 455.284179688 312.00390625 l 1
 432.963867188 368.165039062 378.079101562 408.005859375 314 408.005859375 c 0
 249.920898438 408.005859375 195.038085938 368.165039062 172.715820312 312.00390625 c 1
EndSplineSet
EndChar

StartChar: k
Encoding: 107 107 82
Width: 549
VWidth: 1000
Flags: HW
LayerCount: 2
Fore
SplineSet
241.099609375 262.002929688 m 1
 499.103515625 3.9970703125 l 1
 340.703125 3.9970703125 l 1
 161.8984375 182.80078125 l 1
 161.8984375 3.9970703125 l 1
 49.896484375 3.9970703125 l 1
 49.896484375 800.013671875 l 1
 161.8984375 800.013671875 l 1
 161.8984375 341.205078125 l 1
 340.703125 520.0078125 l 1
 499.103515625 520.0078125 l 1
 241.099609375 262.002929688 l 1
EndSplineSet
EndChar

StartChar: s
Encoding: 115 115 83
Width: 501
VWidth: 1000
Flags: HW
HStem: -8.00195 112.001<135.985 324.706> 225.202 112.002<167.124 324.298> 416.006 112.002<166.67 393.531>
VStem: 49.8965 112.002<342.001 411.235> 339.103 112.001<119.023 210.212>
LayerCount: 2
Fore
SplineSet
49.896484375 161.760742188 m 1
 74.056640625 150.161132812 l 2
 138.138671875 119.51953125 206.859375 103.999023438 278.4609375 103.999023438 c 0
 311.901367188 103.999023438 339.102539062 131.200195312 339.102539062 164.640625 c 0
 339.102539062 198.000976562 311.901367188 225.202148438 278.4609375 225.202148438 c 2
 201.259765625 225.202148438 l 2
 117.818359375 225.202148438 49.896484375 293.123046875 49.896484375 376.64453125 c 0
 49.896484375 460.086914062 117.818359375 528.0078125 201.259765625 528.0078125 c 0
 266.30078125 528.0078125 331.421875 522.408203125 395.103515625 511.126953125 c 1
 395.103515625 397.4453125 l 1
 384.943359375 399.28515625 l 2
 324.702148438 410.40625 262.940429688 416.005859375 201.259765625 416.005859375 c 0
 179.579101562 416.005859375 161.8984375 398.326171875 161.8984375 376.64453125 c 0
 161.8984375 354.884765625 179.579101562 337.204101562 201.259765625 337.204101562 c 2
 278.4609375 337.204101562 l 2
 323.421875 337.204101562 364.462890625 319.923828125 395.103515625 291.68359375 c 0
 429.50390625 260.162109375 451.103515625 214.881835938 451.103515625 164.640625 c 0
 451.103515625 114.399414062 429.50390625 69.0390625 395.103515625 37.5185546875 c 0
 364.462890625 9.2783203125 323.421875 -8.001953125 278.4609375 -8.001953125 c 0
 198.938476562 -8.001953125 122.137695312 7.5185546875 49.896484375 38.318359375 c 1
 49.896484375 161.760742188 l 1
EndSplineSet
EndChar

StartChar: l
Encoding: 108 108 84
Width: 316
VWidth: 1000
Flags: W
HStem: -7.76172 111.921<170.15 288.01> 780.014 20G<49.998 162>
VStem: 49.998 112.002<113.463 800.014>
LayerCount: 2
Fore
SplineSet
314.001953125 13.3583984375 m 2
 283.841796875 0.3974609375 251.201171875 -6.8828125 218.08203125 -7.76171875 c 0
 215.361328125 -7.9228515625 212.640625 -8.001953125 210 -8.001953125 c 0
 207.041015625 -8.001953125 203.919921875 -7.9228515625 200.9609375 -7.76171875 c 0
 116.23828125 -2.9619140625 49.998046875 67.0390625 49.998046875 152.000976562 c 2
 49.998046875 800.013671875 l 1
 162 800.013671875 l 1
 162 152.000976562 l 2
 162 126.799804688 181.359375 105.999023438 206.3203125 104.159179688 c 2
 214.720703125 104.159179688 l 2
 239.681640625 104.798828125 264.322265625 111.759765625 285.841796875 124.319335938 c 0
 296.162109375 130.240234375 305.521484375 137.280273438 314.001953125 145.360351562 c 1
 314.001953125 13.3583984375 l 2
EndSplineSet
EndChar

StartChar: f
Encoding: 102 102 85
Width: 492
VWidth: 1000
Flags: HW
HStem: 408.006 112.002<49.9961 161.998 274.001 442.004> 696.012 111.842<277.738 425.846>
VStem: 161.998 112.003<11.9971 408.006 520.008 695.296>
LayerCount: 2
Fore
SplineSet
274.000976562 668.01171875 m 2
 274.000976562 520.0078125 l 1
 442.00390625 520.0078125 l 1
 442.00390625 408.005859375 l 1
 274.000976562 408.005859375 l 1
 274.000976562 11.9970703125 l 1
 161.998046875 11.9970703125 l 1
 161.998046875 408.005859375 l 1
 49.99609375 408.005859375 l 1
 49.99609375 520.0078125 l 1
 161.998046875 520.0078125 l 1
 161.998046875 668.01171875 l 2
 161.998046875 742.65234375 220.397460938 804.09375 294.879882812 807.853515625 c 0
 298.157226562 808.09375 301.919921875 808.09375 305.680664062 807.93359375 c 2
 307.841796875 807.93359375 l 2
 308.322265625 807.93359375 308.880859375 807.93359375 309.361328125 807.853515625 c 0
 354.561523438 807.29296875 399.120117188 800.25390625 442.00390625 787.133789062 c 1
 442.00390625 668.651367188 l 1
 423.28125 675.290039062 l 2
 385.600585938 688.651367188 346.080078125 695.612304688 305.841796875 695.931640625 c 2
 303.278320312 696.01171875 l 1
 300.478515625 696.01171875 l 2
 285.680664062 695.291015625 274.000976562 682.970703125 274.000976562 668.01171875 c 2
EndSplineSet
EndChar

StartChar: g
Encoding: 103 103 86
Width: 572
VWidth: 1000
Flags: HW
HStem: -288.009 112.002<136.587 335.221> -8.00195 112.001<222.778 377.26> 408.006 112.002<222.778 377.26>
VStem: 35.7959 112.002<178.98 333.025> 410.201 112.003<-99.6161 15.9971 132.383 379.623 496.007 508.008>
LayerCount: 2
Fore
SplineSet
410.201171875 508.0078125 m 1
 522.204101562 508.0078125 l 1
 522.204101562 -24.0029296875 l 2
 522.204101562 -169.60546875 403.802734375 -288.008789062 258.19921875 -288.008789062 c 0
 180.197265625 -288.008789062 103.95703125 -268.887695312 35.7958984375 -232.407226562 c 1
 35.7958984375 -99.125 l 1
 45.3935546875 -106.64453125 55.39453125 -113.684570312 65.796875 -120.325195312 c 0
 123.239257812 -156.725585938 189.798828125 -176.006835938 258.19921875 -176.006835938 c 0
 342.040039062 -176.006835938 410.201171875 -107.844726562 410.201171875 -24.0029296875 c 2
 410.201171875 15.9970703125 l 1
 376.123046875 0.3173828125 338.758789062 -8.001953125 299.80078125 -8.001953125 c 0
 154.196289062 -8.001953125 35.7958984375 110.399414062 35.7958984375 256.002929688 c 0
 35.7958984375 401.60546875 154.196289062 520.0078125 299.80078125 520.0078125 c 0
 338.758789062 520.0078125 376.123046875 511.688476562 410.201171875 496.006835938 c 1
 410.201171875 508.0078125 l 1
410.201171875 151.520507812 m 2
 410.201171875 360.485351562 l 2
 381.560546875 390.885742188 342.200195312 408.005859375 299.80078125 408.005859375 c 0
 215.959960938 408.005859375 147.797851562 339.84375 147.797851562 256.002929688 c 0
 147.797851562 172.161132812 215.959960938 103.999023438 299.80078125 103.999023438 c 0
 342.200195312 103.999023438 381.560546875 121.120117188 410.201171875 151.520507812 c 2
EndSplineSet
EndChar

StartChar: h
Encoding: 104 104 87
Width: 586
VWidth: 1000
Flags: HW
LayerCount: 2
Fore
SplineSet
536.206054688 256.002929688 m 2
 536.206054688 3.9970703125 l 1
 424.203125 3.9970703125 l 1
 424.203125 256.002929688 l 2
 424.203125 339.84375 356.041992188 408.005859375 272.201171875 408.005859375 c 0
 229.797851562 408.005859375 190.4375 390.885742188 161.795898438 360.485351562 c 2
 161.795898438 3.9970703125 l 1
 49.7939453125 3.9970703125 l 1
 49.7939453125 800.013671875 l 1
 161.795898438 800.013671875 l 1
 161.795898438 496.006835938 l 1
 195.87890625 511.688476562 233.239257812 520.0078125 272.201171875 520.0078125 c 0
 417.80078125 520.0078125 536.206054688 401.60546875 536.206054688 256.002929688 c 2
EndSplineSet
EndChar

StartChar: i
Encoding: 105 105 88
Width: 212
VWidth: 1000
Flags: HW
HStem: 3.99707 21G<49.999 162.001> 500.008 20G<49.999 162.001> 632.011 112.002<49.999 162.001>
VStem: 49.999 112.002<3.99707 520.008 632.011 744.013>
LayerCount: 2
Fore
SplineSet
49.9990234375 3.9970703125 m 1
 49.9990234375 520.0078125 l 1
 162.000976562 520.0078125 l 1
 162.000976562 3.9970703125 l 1
 49.9990234375 3.9970703125 l 1
49.9990234375 632.010742188 m 1
 49.9990234375 744.012695312 l 1
 162.000976562 744.012695312 l 1
 162.000976562 632.010742188 l 1
 49.9990234375 632.010742188 l 1
EndSplineSet
EndChar

StartChar: j
Encoding: 106 106 89
Width: 203
VWidth: 1000
Flags: HW
HStem: -288.009 112.163<-55.6746 43.013> 500.008 20G<45 157.002> 632.011 112.002<45 157.002>
VStem: 45 112.002<-171.807 520.008 632.011 744.013>
LayerCount: 2
Fore
SplineSet
45 632.010742188 m 1
 45 744.012695312 l 1
 157.001953125 744.012695312 l 1
 157.001953125 632.010742188 l 1
 45 632.010742188 l 1
-75.001953125 -270.568359375 m 2
 -75.001953125 -137.525390625 l 1
 -67.001953125 -146.245117188 -57.5625 -153.845703125 -47.001953125 -159.924804688 c 0
 -29.802734375 -169.845703125 -11.08203125 -175.205078125 8.599609375 -175.845703125 c 2
 16.19921875 -175.845703125 l 2
 32.439453125 -174.326171875 45 -160.565429688 45 -144.005859375 c 2
 45 520.0078125 l 1
 157.001953125 520.0078125 l 1
 157.001953125 -144.005859375 l 2
 157.001953125 -220.006835938 97.880859375 -282.967773438 22.19921875 -287.688476562 c 0
 19.240234375 -287.927734375 16.119140625 -288.008789062 13 -288.008789062 c 0
 10.279296875 -288.008789062 7.55859375 -287.927734375 4.919921875 -287.768554688 c 0
 -22.521484375 -286.888671875 -49.642578125 -281.048828125 -75.001953125 -270.568359375 c 2
EndSplineSet
EndChar

StartChar: m
Encoding: 109 109 90
Width: 836
VWidth: 1000
Flags: HW
HStem: 3.99707 21G<49.9922 161.994 362 474.002 674.004 786.008> 416.006 112.002<200.308 323.352 512.648 633.833> 500.008 20G<49.9922 161.994>
VStem: 49.9922 112.002<3.99707 377.698 502.888 520.008> 362 112.002<3.99707 377.698> 674.004 112.004<3.99707 373.97>
LayerCount: 2
Fore
SplineSet
786.0078125 316.00390625 m 2xdc
 786.0078125 3.9970703125 l 1
 674.00390625 3.9970703125 l 1
 674.00390625 316.00390625 l 2
 674.00390625 371.125 629.125 416.005859375 574.001953125 416.005859375 c 0
 518.880859375 416.005859375 474.001953125 371.125 474.001953125 316.00390625 c 2
 474.001953125 3.9970703125 l 1
 362 3.9970703125 l 1
 362 316.00390625 l 2
 362 371.125 317.119140625 416.005859375 261.998046875 416.005859375 c 0xdc
 206.875 416.005859375 161.994140625 371.125 161.994140625 316.00390625 c 2
 161.994140625 3.9970703125 l 1
 49.9921875 3.9970703125 l 1
 49.9921875 520.0078125 l 1
 161.994140625 520.0078125 l 1xbc
 161.994140625 502.887695312 l 1
 191.8359375 518.888671875 225.91796875 528.0078125 261.998046875 528.0078125 c 0
 323.677734375 528.0078125 379.28125 501.52734375 418 459.366210938 c 1
 456.71875 501.52734375 512.322265625 528.0078125 574.001953125 528.0078125 c 0
 690.884765625 528.0078125 786.0078125 432.885742188 786.0078125 316.00390625 c 2xdc
EndSplineSet
EndChar

StartChar: n
Encoding: 110 110 91
Width: 576
VWidth: 1000
Flags: HW
LayerCount: 2
Fore
SplineSet
526.004882812 264.002929688 m 2
 526.004882812 3.9970703125 l 1
 414.001953125 3.9970703125 l 1
 414.001953125 264.002929688 l 2
 414.001953125 347.84375 345.840820312 416.005859375 262 416.005859375 c 0
 260.397460938 416.005859375 258.877929688 415.92578125 257.358398438 415.846679688 c 2
 256.078125 415.846679688 l 2
 220.799804688 414.485351562 187.997070312 401.364257812 161.997070312 378.484375 c 2
 161.997070312 3.9970703125 l 1
 49.9951171875 3.9970703125 l 1
 49.9951171875 520.0078125 l 1
 161.997070312 520.0078125 l 1
 161.997070312 508.16796875 l 1
 189.997070312 519.688476562 219.998046875 526.328125 250.640625 527.688476562 c 0
 254.397460938 527.928710938 258.16015625 528.0078125 262 528.0078125 c 0
 407.599609375 528.0078125 526.004882812 409.606445312 526.004882812 264.002929688 c 2
EndSplineSet
EndChar

StartChar: o
Encoding: 111 111 92
Width: 628
VWidth: 1000
Flags: W
HStem: -8.00195 112.001<236.99 391.011> 408.006 112.002<236.99 391.011>
VStem: 49.9951 112.002<178.992 333.013> 466.004 112.001<178.992 333.013>
LayerCount: 2
Fore
SplineSet
314 -8.001953125 m 0
 168.426757812 -8.001953125 49.9951171875 110.4296875 49.9951171875 256.002929688 c 0
 49.9951171875 401.576171875 168.426757812 520.0078125 314 520.0078125 c 0
 459.573242188 520.0078125 578.004882812 401.576171875 578.004882812 256.002929688 c 0
 578.004882812 110.4296875 459.573242188 -8.001953125 314 -8.001953125 c 0
314 408.005859375 m 0
 230.186523438 408.005859375 161.997070312 339.81640625 161.997070312 256.002929688 c 0
 161.997070312 172.1875 230.186523438 103.999023438 314 103.999023438 c 0
 397.814453125 103.999023438 466.00390625 172.1875 466.00390625 256.002929688 c 0
 466.00390625 339.81640625 397.814453125 408.005859375 314 408.005859375 c 0
EndSplineSet
EndChar

StartChar: p
Encoding: 112 112 93
Width: 586
VWidth: 1000
Flags: HW
LayerCount: 2
Fore
SplineSet
272.201171875 520.0078125 m 0
 417.80078125 520.0078125 536.206054688 401.60546875 536.206054688 256.002929688 c 0
 536.206054688 110.399414062 417.80078125 -8.001953125 272.201171875 -8.001953125 c 0
 233.239257812 -8.001953125 195.87890625 0.3173828125 161.795898438 15.9970703125 c 1
 161.795898438 -288.008789062 l 1
 49.7939453125 -288.008789062 l 1
 49.7939453125 508.0078125 l 1
 161.795898438 508.0078125 l 1
 161.795898438 496.006835938 l 1
 195.87890625 511.688476562 233.239257812 520.0078125 272.201171875 520.0078125 c 0
272.201171875 103.999023438 m 0
 356.041992188 103.999023438 424.203125 172.161132812 424.203125 256.002929688 c 0
 424.203125 339.84375 356.041992188 408.005859375 272.201171875 408.005859375 c 0
 229.797851562 408.005859375 190.4375 390.885742188 161.795898438 360.485351562 c 2
 161.795898438 151.520507812 l 2
 190.4375 121.120117188 229.797851562 103.999023438 272.201171875 103.999023438 c 0
EndSplineSet
EndChar

StartChar: q
Encoding: 113 113 94
Width: 586
VWidth: 1000
Flags: HW
LayerCount: 2
Fore
SplineSet
424.203125 508.0078125 m 1
 536.206054688 508.0078125 l 1
 536.206054688 -288.008789062 l 1
 424.203125 -288.008789062 l 1
 424.203125 15.9970703125 l 1
 390.12109375 0.3173828125 352.760742188 -8.001953125 313.798828125 -8.001953125 c 0
 168.19921875 -8.001953125 49.7939453125 110.399414062 49.7939453125 256.002929688 c 0
 49.7939453125 401.60546875 168.19921875 520.0078125 313.798828125 520.0078125 c 0
 352.760742188 520.0078125 390.12109375 511.688476562 424.203125 496.006835938 c 1
 424.203125 508.0078125 l 1
313.798828125 103.999023438 m 0
 356.202148438 103.999023438 395.5625 121.120117188 424.203125 151.520507812 c 2
 424.203125 360.485351562 l 2
 395.5625 390.885742188 356.202148438 408.005859375 313.798828125 408.005859375 c 0
 229.958007812 408.005859375 161.795898438 339.84375 161.795898438 256.002929688 c 0
 161.795898438 172.161132812 229.958007812 103.999023438 313.798828125 103.999023438 c 0
EndSplineSet
EndChar

StartChar: r
Encoding: 114 114 95
Width: 443
VWidth: 1000
Flags: HW
HStem: 4.79785 21G<49.8965 161.898> 416.006 112.002<206.819 350.563> 500.808 20G<49.8965 161.898>
VStem: 49.8965 112.002<4.79785 371.62 498.568 520.808>
LayerCount: 2
Fore
SplineSet
393.103515625 498.967773438 m 1xd0
 393.103515625 356.1640625 l 1
 364.0625 394.245117188 320.0625 416.005859375 272.30078125 416.005859375 c 0xd0
 211.418945312 416.005859375 161.8984375 366.485351562 161.8984375 305.603515625 c 2
 161.8984375 4.7978515625 l 1
 49.896484375 4.7978515625 l 1
 49.896484375 520.807617188 l 1
 161.8984375 520.807617188 l 1xb0
 161.8984375 498.568359375 l 1
 194.459960938 517.288085938 232.139648438 528.0078125 272.30078125 528.0078125 c 0
 315.26171875 528.0078125 356.3828125 517.927734375 393.103515625 498.967773438 c 1xd0
EndSplineSet
EndChar

StartChar: t
Encoding: 116 116 96
Width: 524
VWidth: 1000
Flags: HW
HStem: -7.68262 111.922<312.021 452.147> 408.006 112.002<49.9961 161.998 274 442.004>
VStem: 161.998 112.002<142.976 408.006 520.008 744.013>
LayerCount: 2
Fore
SplineSet
474.00390625 11.837890625 m 2
 445.763671875 0.2373046875 415.6015625 -6.40234375 384.72265625 -7.6826171875 c 0
 381.201171875 -7.9228515625 377.681640625 -8.001953125 374.001953125 -8.001953125 c 0
 370.162109375 -8.001953125 366.40234375 -7.9228515625 362.642578125 -7.6826171875 c 0
 250.3984375 -2.0029296875 161.998046875 90.958984375 161.998046875 204.000976562 c 2
 161.998046875 408.005859375 l 1
 49.99609375 408.005859375 l 1
 49.99609375 520.0078125 l 1
 161.998046875 520.0078125 l 1
 161.998046875 744.012695312 l 1
 274 744.012695312 l 1
 274 520.0078125 l 1
 442.00390625 520.0078125 l 1
 442.00390625 408.005859375 l 1
 274 408.005859375 l 1
 274 204.000976562 l 2
 274 151.120117188 314.9609375 107.51953125 367.521484375 104.239257812 c 2
 380.8828125 104.239257812 l 2
 415.841796875 105.758789062 448.244140625 118.799804688 474.00390625 141.599609375 c 1
 474.00390625 11.837890625 l 2
EndSplineSet
EndChar

StartChar: u
Encoding: 117 117 97
Width: 576
VWidth: 1000
Flags: HW
HStem: -8.00195 112.001<238.388 391.924> 500.008 20G<49.9951 161.997 414.002 526.005>
VStem: 49.9951 112.002<180.39 520.008> 414.002 112.003<-0.00292969 11.8379 126.222 520.008>
LayerCount: 2
Fore
SplineSet
49.9951171875 256.002929688 m 2
 49.9951171875 520.0078125 l 1
 161.997070312 520.0078125 l 1
 161.997070312 256.002929688 l 2
 161.997070312 172.161132812 230.159179688 103.999023438 314 103.999023438 c 0
 315.6015625 103.999023438 317.122070312 104.080078125 318.641601562 104.16015625 c 2
 319.921875 104.16015625 l 2
 355.200195312 105.520507812 388.000976562 118.640625 414.001953125 141.520507812 c 2
 414.001953125 520.0078125 l 1
 526.004882812 520.0078125 l 1
 526.004882812 -0.0029296875 l 1
 414.001953125 -0.0029296875 l 1
 414.001953125 11.837890625 l 1
 386.000976562 0.3173828125 356.001953125 -6.3232421875 325.359375 -7.6826171875 c 0
 321.602539062 -7.9228515625 317.840820312 -8.001953125 314 -8.001953125 c 0
 168.400390625 -8.001953125 49.9951171875 110.399414062 49.9951171875 256.002929688 c 2
EndSplineSet
EndChar

StartChar: v
Encoding: 118 118 98
Width: 636
VWidth: 1000
Flags: HW
HStem: 500.008 20G<49.9941 178.637 457.363 586.006>
LayerCount: 2
Fore
SplineSet
378.322265625 0.7978515625 m 1
 257.6796875 0.7978515625 l 1
 49.994140625 520.0078125 l 1
 170.63671875 520.0078125 l 1
 318 151.600585938 l 1
 465.36328125 520.0078125 l 1
 586.005859375 520.0078125 l 1
 378.322265625 0.7978515625 l 1
EndSplineSet
EndChar

StartChar: w
Encoding: 119 119 99
Width: 836
VWidth: 1000
Flags: HW
HStem: 500.008 20G<49.9121 172.876 353.522 482.478 663.126 786.088>
LayerCount: 2
Fore
SplineSet
786.087890625 520.0078125 m 1
 630.322265625 0.7978515625 l 1
 515.28125 0.7978515625 l 1
 417.998046875 325.125 l 1
 320.71875 0.7978515625 l 1
 205.673828125 0.7978515625 l 1
 49.912109375 520.0078125 l 1
 166.876953125 520.0078125 l 1
 263.197265625 198.881835938 l 1
 359.521484375 520.0078125 l 1
 476.478515625 520.0078125 l 1
 572.802734375 198.881835938 l 1
 669.125 520.0078125 l 1
 786.087890625 520.0078125 l 1
EndSplineSet
EndChar

StartChar: x
Encoding: 120 120 100
Width: 631
VWidth: 1000
Flags: W
HStem: 500.008 20G<52.0156 207.024 423.985 578.984>
LayerCount: 2
Fore
SplineSet
581.38671875 0.7978515625 m 1
 441.3828125 0.7978515625 l 1
 315.537109375 168.640625 l 1
 189.615234375 0.7978515625 l 1
 49.61328125 0.7978515625 l 1
 245.53515625 262.002929688 l 1
 52.015625 520.0078125 l 1
 192.01953125 520.0078125 l 1
 315.537109375 355.364257812 l 1
 438.98046875 520.0078125 l 1
 578.984375 520.0078125 l 1
 385.4609375 262.002929688 l 1
 581.38671875 0.7978515625 l 1
EndSplineSet
EndChar

StartChar: z
Encoding: 122 122 101
Width: 494
VWidth: 1000
Flags: HW
HStem: 3.99707 112.003<182.758 444.041> 408.006 112.002<49.877 311.16>
LayerCount: 2
Fore
SplineSet
444.123046875 383.924804688 m 1
 182.7578125 116 l 1
 444.041015625 116 l 1
 444.041015625 3.9970703125 l 1
 49.876953125 3.9970703125 l 1
 49.876953125 140.161132812 l 1
 311.16015625 408.005859375 l 1
 49.876953125 408.005859375 l 1
 49.876953125 520.0078125 l 1
 444.123046875 520.0078125 l 1
 444.123046875 383.924804688 l 1
EndSplineSet
EndChar

StartChar: braceleft
Encoding: 123 123 102
Width: 415
VWidth: 1000
Flags: HW
LayerCount: 2
Fore
SplineSet
365.04296875 -107.684570312 m 1
 309.041015625 -107.684570312 l 2
 216.40625 -107.684570312 141.037109375 -32.3203125 141.037109375 60.318359375 c 2
 141.037109375 311.24609375 l 1
 49.95703125 402.326171875 l 1
 141.037109375 493.40625 l 1
 141.037109375 744.33203125 l 2
 141.037109375 836.971679688 216.40625 912.3359375 309.041015625 912.3359375 c 2
 365.04296875 912.3359375 l 1
 365.04296875 800.333007812 l 1
 309.041015625 800.333007812 l 2
 278.166015625 800.333007812 253.0390625 775.211914062 253.0390625 744.33203125 c 2
 253.0390625 447.049804688 l 1
 208.3515625 402.326171875 l 1
 253.0390625 357.637695312 l 1
 253.0390625 60.318359375 l 2
 253.0390625 29.439453125 278.166015625 4.3173828125 309.041015625 4.3173828125 c 2
 365.04296875 4.3173828125 l 1
 365.04296875 -107.684570312 l 1
EndSplineSet
EndChar

StartChar: bar
Encoding: 124 124 103
Width: 211
VWidth: 1000
Flags: HW
LayerCount: 2
Fore
SplineSet
49.705078125 -171.685546875 m 1
 49.705078125 912.3359375 l 1
 161.294921875 912.3359375 l 1
 161.294921875 -171.685546875 l 1
 49.705078125 -171.685546875 l 1
EndSplineSet
EndChar

StartChar: braceright
Encoding: 125 125 104
Width: 415
VWidth: 1000
Flags: HW
LayerCount: 2
Fore
SplineSet
49.95703125 912.3359375 m 1
 105.958984375 912.3359375 l 2
 198.59375 912.3359375 273.962890625 836.971679688 273.962890625 744.33203125 c 2
 273.962890625 493.40625 l 1
 365.04296875 402.326171875 l 1
 273.962890625 311.24609375 l 1
 273.962890625 60.318359375 l 2
 273.962890625 -32.3203125 198.59375 -107.684570312 105.958984375 -107.684570312 c 2
 49.95703125 -107.684570312 l 1
 49.95703125 4.3173828125 l 1
 105.958984375 4.3173828125 l 2
 136.833984375 4.3173828125 161.958984375 29.439453125 161.958984375 60.318359375 c 2
 161.958984375 357.6015625 l 1
 206.6484375 402.326171875 l 1
 161.958984375 447.014648438 l 1
 161.958984375 744.33203125 l 2
 161.958984375 775.211914062 136.833984375 800.333007812 105.958984375 800.333007812 c 2
 49.95703125 800.333007812 l 1
 49.95703125 912.3359375 l 1
EndSplineSet
EndChar

StartChar: asciitilde
Encoding: 126 126 105
Width: 582
VWidth: 1000
Flags: HW
LayerCount: 2
Fore
SplineSet
532.084960938 404.481445312 m 1
 480.244140625 362.481445312 l 2
 445.36328125 334.240234375 401.602539062 321.280273438 356.9609375 326 c 0
 312.3203125 330.640625 272.239257812 352.481445312 243.999023438 387.361328125 c 0
 224.55859375 411.283203125 189.198242188 415.041992188 165.197265625 395.6015625 c 2
 49.9150390625 302.239257812 l 1
 49.9150390625 446.322265625 l 1
 94.7158203125 482.643554688 l 2
 166.717773438 540.96484375 272.719726562 529.764648438 331.040039062 457.842773438 c 0
 340.401367188 446.163085938 353.841796875 438.962890625 368.640625 437.36328125 c 0
 383.521484375 435.841796875 398.162109375 440.08203125 409.762695312 449.5234375 c 2
 532.084960938 548.64453125 l 1
 532.084960938 404.481445312 l 1
EndSplineSet
EndChar

StartChar: exclamdown
Encoding: 161 161 106
Width: 212
VWidth: 1000
InSpiro: 1
Flags: HW
LayerCount: 2
Fore
SplineSet
162.000976562 596.016601562 m 1
 162.000976562 484.013671875 l 1
 49.9990234375 484.013671875 l 1
 49.9990234375 596.016601562 l 1
 162.000976562 596.016601562 l 1
  Spiro
    162.001 596.017 v
    162.001 484.014 v
    49.999 484.014 v
    49.999 596.017 v
    0 0 z
  EndSpiro
162.000976562 374.41015625 m 1
 162.000976562 -200 l 1
 49.9990234375 -200 l 1
 49.9990234375 374.41015625 l 1
 162.000976562 374.41015625 l 1
  Spiro
    162.001 374.41 v
    162.001 -200 v
    49.999 -200 v
    49.999 374.41 v
    0 0 z
  EndSpiro
EndSplineSet
EndChar

StartChar: cent
Encoding: 162 162 108
Width: 532
VWidth: 1000
Flags: HW
LayerCount: 2
Fore
SplineSet
482.00390625 366.325195312 m 1
 450.72265625 382.884765625 416.72265625 394.96484375 380.803710938 401.764648438 c 1
 380.803710938 110.239257812 l 1
 416.72265625 117.0390625 450.72265625 129.119140625 482.00390625 145.680664062 c 1
 482.00390625 22.9580078125 l 1
 449.76171875 10.6376953125 415.920898438 1.677734375 380.803710938 -3.283203125 c 1
 380.803710938 -80.0048828125 l 1
 268.801757812 -80.0048828125 l 1
 268.80078125 -4.0830078125 l 1
 157.435546875 15.1982421875 69.8359375 104.399414062 52.95703125 216.481445312 c 0
 51.03515625 229.361328125 49.99609375 242.5625 49.99609375 256.002929688 c 0
 49.99609375 269.442382812 51.03515625 282.643554688 52.95703125 295.524414062 c 0
 69.8359375 407.606445312 157.435546875 496.806640625 268.80078125 516.087890625 c 1
 268.80078125 656.009765625 l 1
 380.803710938 656.009765625 l 1
 380.803710938 515.287109375 l 1
 415.920898438 510.327148438 449.76171875 501.368164062 482.00390625 489.046875 c 1
 482.00390625 366.325195312 l 1
161.998046875 256.002929688 m 0
 161.998046875 187.920898438 207.038085938 130.081054688 268.80078125 110.879882812 c 1
 268.80078125 401.125976562 l 1
 207.038085938 381.924804688 161.998046875 324.083984375 161.998046875 256.002929688 c 0
EndSplineSet
EndChar

StartChar: sterling
Encoding: 163 163 109
Width: 724
VWidth: 1000
Flags: HW
LayerCount: 2
Fore
SplineSet
674.005859375 111.999023438 m 1
 674.005859375 -0.0029296875 l 1
 49.994140625 -0.0029296875 l 1
 49.994140625 111.999023438 l 1
 158.47265625 111.999023438 l 1
 176.15234375 195.12109375 199.114257812 303.283203125 221.193359375 407.366210938 c 1
 49.994140625 407.366210938 l 1
 49.994140625 519.3671875 l 1
 245.037109375 519.3671875 l 1
 259.116210938 585.768554688 271.755859375 645.209960938 280.952148438 688.572265625 c 0
 294.397460938 753.052734375 352.078125 800.013671875 417.516601562 800.013671875 c 2
 419.681640625 800.013671875 l 2
 447.759765625 800.25390625 475.440429688 796.333007812 502.081054688 788.733398438 c 2
 502.081054688 669.051757812 l 1
 476.877929688 681.451171875 449.361328125 688.010742188 421.516601562 688.010742188 c 2
 421.275390625 688.010742188 l 1
 421.275390625 687.931640625 l 1
 416.876953125 688.010742188 l 2
 404.400390625 687.53125 393.4375 678.491210938 390.641601562 666.01171875 c 1
 390.719726562 666.01171875 l 1
 382.5546875 627.76953125 371.6796875 576.728515625 359.516601562 519.3671875 c 1
 502.081054688 519.3671875 l 1
 502.081054688 407.366210938 l 1
 335.6796875 407.366210938 l 2
 334.15625 400.166015625 332.640625 392.885742188 331.1171875 385.60546875 c 0
 310.953125 290.483398438 289.998046875 191.920898438 272.952148438 111.999023438 c 1
 674.005859375 111.999023438 l 1
EndSplineSet
EndChar

StartChar: currency
Encoding: 164 164 110
Width: 569
VWidth: 1000
Flags: HW
LayerCount: 2
Fore
SplineSet
451.583007812 347.84375 m 2
 480.383789062 293.043945312 480.383789062 226.880859375 451.583007812 172.081054688 c 1
 519.104492188 104.55859375 l 1
 439.903320312 25.4375 l 1
 372.3828125 92.87890625 l 2
 366.94140625 90 361.260742188 87.4384765625 355.581054688 85.119140625 c 0
 332.780273438 75.8388671875 308.619140625 71.279296875 284.458007812 71.279296875 c 0
 254.219726562 71.279296875 223.977539062 78.4794921875 196.6171875 92.87890625 c 2
 129.096679688 25.4375 l 1
 49.8955078125 104.55859375 l 1
 117.416015625 172.161132812 l 1
 88.615234375 226.961914062 88.615234375 293.124023438 117.337890625 347.923828125 c 1
 49.8955078125 415.446289062 l 1
 129.096679688 494.568359375 l 1
 196.6171875 427.126953125 l 1
 251.501953125 455.92578125 317.581054688 455.92578125 372.3828125 427.126953125 c 1
 439.903320312 494.568359375 l 1
 519.104492188 415.446289062 l 1
 451.583007812 347.923828125 l 1
 451.583007812 347.84375 l 2
230.21875 205.681640625 m 0
 260.141601562 175.759765625 308.861328125 175.759765625 338.780273438 205.681640625 c 0
 353.741210938 220.642578125 361.182617188 240.322265625 361.182617188 260.002929688 c 0
 361.182617188 279.682617188 353.741210938 299.36328125 338.780273438 314.323242188 c 0
 323.822265625 329.284179688 304.142578125 336.724609375 284.458007812 336.724609375 c 0
 264.778320312 336.724609375 245.180664062 329.284179688 230.141601562 314.323242188 c 0
 200.21875 284.323242188 200.21875 235.682617188 230.21875 205.681640625 c 0
EndSplineSet
EndChar

StartChar: yen
Encoding: 165 165 111
Width: 742
VWidth: 1000
Flags: HW
LayerCount: 2
Fore
SplineSet
505.603515625 520.0078125 m 1
 611.048828125 520.0078125 l 1
 611.048828125 408.005859375 l 1
 431.123046875 408.005859375 l 1
 427.123046875 402.004882812 l 1
 427.123046875 260.002929688 l 1
 611.048828125 260.002929688 l 1
 611.048828125 148.000976562 l 1
 427.123046875 148.000976562 l 1
 427.123046875 3.9970703125 l 1
 315.12109375 3.9970703125 l 1
 315.12109375 148.000976562 l 1
 131.0390625 148.000976562 l 1
 131.0390625 260.002929688 l 1
 315.12109375 260.002929688 l 1
 315.12109375 401.764648438 l 1
 310.958984375 408.005859375 l 1
 131.0390625 408.005859375 l 1
 131.0390625 520.0078125 l 1
 236.400390625 520.0078125 l 1
 49.994140625 800.013671875 l 1
 184.63671875 800.013671875 l 1
 371.04296875 520.0078125 l 1
 557.4453125 800.013671875 l 1
 692.005859375 800.013671875 l 1
 505.603515625 520.0078125 l 1
EndSplineSet
EndChar

StartChar: brokenbar
Encoding: 166 166 112
Width: 211
VWidth: 1000
Flags: HW
LayerCount: 2
Fore
SplineSet
49.697265625 426.326171875 m 1
 49.697265625 912.3359375 l 1
 161.302734375 912.3359375 l 1
 161.302734375 426.326171875 l 1
 49.697265625 426.326171875 l 1
49.697265625 -171.685546875 m 1
 49.697265625 314.323242188 l 1
 161.302734375 314.323242188 l 1
 161.302734375 -171.685546875 l 1
 49.697265625 -171.685546875 l 1
EndSplineSet
EndChar

StartChar: section
Encoding: 167 167 113
Width: 542
VWidth: 1000
Flags: HW
LayerCount: 2
Fore
SplineSet
271 696.01171875 m 0
 210.677734375 696.01171875 161.638671875 646.969726562 161.638671875 586.649414062 c 0
 161.638671875 577.44921875 162.841796875 568.168945312 165.080078125 559.12890625 c 0
 177.560546875 511.047851562 221.080078125 477.3671875 271 477.3671875 c 0
 347.482421875 477.3671875 409.642578125 415.125 409.642578125 338.643554688 c 0
 409.642578125 315.604492188 403.96484375 293.84375 393.962890625 274.72265625 c 0
 417.24609375 259.203125 437.484375 239.361328125 453.484375 216.081054688 c 0
 467.8046875 195.201171875 478.765625 171.600585938 485.40625 146 c 0
 488.92578125 132.16015625 491.087890625 118.079101562 491.96484375 103.999023438 c 0
 492.20703125 99.5185546875 492.36328125 95.119140625 492.36328125 90.6396484375 c 0
 492.36328125 -31.36328125 393.0859375 -130.645507812 271 -130.645507812 c 0
 188.759765625 -130.645507812 112.35546875 -104.8046875 49.63671875 -60.8037109375 c 1
 49.63671875 93.599609375 l 1
 99.638671875 25.5986328125 180.279296875 -18.642578125 271 -18.642578125 c 0
 331.322265625 -18.642578125 380.361328125 30.3984375 380.361328125 90.6396484375 c 0
 380.361328125 99.9189453125 379.162109375 109.120117188 376.923828125 118.16015625 c 0
 364.443359375 166.3203125 320.923828125 200.000976562 271 200.000976562 c 0
 194.521484375 200.000976562 132.357421875 262.243164062 132.357421875 338.643554688 c 0
 132.357421875 361.764648438 138.041015625 383.524414062 148.041015625 402.645507812 c 0
 103.95703125 432.0859375 70.59765625 477.126953125 56.59765625 531.288085938 c 0
 51.95703125 549.528320312 49.63671875 568.088867188 49.63671875 586.649414062 c 0
 49.63671875 708.732421875 148.919921875 808.013671875 271 808.013671875 c 0
 353.244140625 808.013671875 429.64453125 782.173828125 492.36328125 738.171875 c 1
 492.36328125 583.768554688 l 1
 442.36328125 651.770507812 361.724609375 696.01171875 271 696.01171875 c 0
271 365.364257812 m 0
 256.28125 365.364257812 244.357421875 353.364257812 244.357421875 338.643554688 c 0
 244.357421875 324.00390625 256.28125 312.00390625 271 312.00390625 c 0
 285.72265625 312.00390625 297.640625 324.00390625 297.640625 338.643554688 c 0
 297.640625 353.364257812 285.72265625 365.364257812 271 365.364257812 c 0
EndSplineSet
EndChar

StartChar: dieresis
Encoding: 168 168 114
Width: 436
VWidth: 1000
Flags: HW
LayerCount: 2
Fore
SplineSet
49.9970703125 856.015625 m 1
 49.9970703125 968.016601562 l 1
 161.999023438 968.016601562 l 1
 161.999023438 856.015625 l 1
 49.9970703125 856.015625 l 1
274.001953125 856.015625 m 1
 274.001953125 968.016601562 l 1
 386.002929688 968.016601562 l 1
 386.002929688 856.015625 l 1
 274.001953125 856.015625 l 1
EndSplineSet
EndChar

StartChar: copyright
Encoding: 169 169 115
Width: 890
VWidth: 1000
Flags: HW
LayerCount: 2
Fore
SplineSet
614.602539062 99.7802734375 m 1
 561.961914062 74.66015625 503.879882812 61.5400390625 444.999023438 61.5400390625 c 0
 320.596679688 61.5400390625 219.39453125 162.743164062 219.39453125 287.145507812 c 0
 219.39453125 411.546875 320.596679688 512.75 444.999023438 512.75 c 0
 503.879882812 512.75 561.961914062 499.629882812 614.602539062 474.508789062 c 1
 614.602539062 344.266601562 l 1
 605.642578125 351.06640625 596.282226562 357.306640625 586.6015625 362.90625 c 0
 543.80078125 387.626953125 494.83984375 400.747070312 444.999023438 400.747070312 c 0
 382.357421875 400.747070312 331.397460938 349.786132812 331.397460938 287.145507812 c 0
 331.397460938 224.50390625 382.357421875 173.54296875 444.999023438 173.54296875 c 0
 494.83984375 173.54296875 543.80078125 186.663085938 586.522460938 211.383789062 c 0
 596.282226562 216.983398438 605.642578125 223.223632812 614.602539062 230.0234375 c 1
 614.602539062 99.7802734375 l 1
444.997070312 -108.063476562 m 0
 227.078125 -108.063476562 49.79296875 69.2255859375 49.79296875 287.142578125 c 0
 49.79296875 505.0625 227.078125 682.354492188 444.997070312 682.354492188 c 0
 662.915039062 682.354492188 840.20703125 505.0625 840.20703125 287.142578125 c 0
 840.20703125 69.2255859375 662.915039062 -108.063476562 444.997070312 -108.063476562 c 0
444.997070312 570.352539062 m 0
 288.8359375 570.352539062 161.794921875 443.305664062 161.794921875 287.142578125 c 0
 161.794921875 130.983398438 288.8359375 3.9384765625 444.997070312 3.9384765625 c 0
 601.15625 3.9384765625 728.205078125 130.983398438 728.205078125 287.142578125 c 0
 728.205078125 443.305664062 601.15625 570.352539062 444.997070312 570.352539062 c 0
EndSplineSet
EndChar

StartChar: guillemotleft
Encoding: 171 171 116
Width: 829
VWidth: 1000
Flags: HW
LayerCount: 2
Fore
SplineSet
414.541015625 451.447265625 m 1
 146.614257812 262.002929688 l 1
 414.541015625 72.55859375 l 1
 414.541015625 -64.6435546875 l 1
 49.6513671875 193.44140625 l 1
 49.6513671875 330.563476562 l 1
 414.541015625 588.649414062 l 1
 414.541015625 451.447265625 l 1
779.348632812 451.447265625 m 1
 511.420898438 262.002929688 l 1
 779.348632812 72.55859375 l 1
 779.348632812 -64.6435546875 l 1
 414.458007812 193.44140625 l 1
 414.458007812 330.563476562 l 1
 779.348632812 588.649414062 l 1
 779.348632812 451.447265625 l 1
EndSplineSet
EndChar

StartChar: uni00AD
Encoding: 173 173 117
Width: 550
VWidth: 1000
Flags: HW
LayerCount: 2
Fore
SplineSet
49.99609375 380.005859375 m 5
 49.99609375 520.0078125 l 5
 500.00390625 520.0078125 l 5
 500.00390625 380.005859375 l 5
 49.99609375 380.005859375 l 5
EndSplineSet
EndChar

StartChar: registered
Encoding: 174 174 118
Width: 890
VWidth: 1000
Flags: HW
LayerCount: 2
Fore
SplineSet
445.000976562 682.330078125 m 0
 662.92578125 682.330078125 840.20703125 505.046875 840.20703125 287.123046875 c 0
 840.20703125 69.1982421875 662.92578125 -108.084960938 445.000976562 -108.084960938 c 0
 227.078125 -108.084960938 49.79296875 69.1982421875 49.79296875 287.123046875 c 0
 49.79296875 505.046875 227.078125 682.330078125 445.000976562 682.330078125 c 0
647.64453125 89.599609375 m 1
 697.485351562 140.639648438 728.205078125 210.401367188 728.205078125 287.123046875 c 0
 728.205078125 443.286132812 601.1640625 570.329101562 445.000976562 570.329101562 c 0
 288.8359375 570.329101562 161.794921875 443.286132812 161.794921875 287.123046875 c 0
 161.794921875 130.959960938 288.8359375 3.9169921875 445.000976562 3.9169921875 c 0
 511.243164062 3.9169921875 572.283203125 26.7978515625 620.5234375 65.0390625 c 1
 513.801757812 65.0390625 l 1
 391.3203125 187.521484375 l 1
 391.3203125 64.958984375 l 1
 279.317382812 64.958984375 l 1
 279.317382812 511.047851562 l 1
 335.318359375 511.208007812 l 1
 511.560546875 511.208007812 l 2
 596.284179688 511.208007812 665.165039062 442.326171875 665.165039062 357.604492188 c 0
 665.165039062 279.763671875 607.00390625 215.28125 531.880859375 205.361328125 c 1
 647.64453125 89.599609375 l 1
511.560546875 316.00390625 m 2
 534.520507812 316.00390625 553.162109375 334.643554688 553.162109375 357.604492188 c 0
 553.162109375 380.565429688 534.520507812 399.205078125 511.560546875 399.205078125 c 2
 391.3203125 399.205078125 l 1
 391.3203125 316.00390625 l 1
 511.560546875 316.00390625 l 2
EndSplineSet
EndChar

StartChar: macron
Encoding: 175 175 119
Width: 548
VWidth: 1000
Flags: HW
LayerCount: 2
Fore
SplineSet
49.99609375 856.015625 m 1
 49.99609375 968.016601562 l 1
 498.00390625 968.016601562 l 1
 498.00390625 856.015625 l 1
 49.99609375 856.015625 l 1
EndSplineSet
EndChar

StartChar: degree
Encoding: 176 176 120
Width: 356
VWidth: 1000
Flags: HW
LayerCount: 2
Fore
SplineSet
178 744.012695312 m 0
 107.396484375 744.012695312 49.951171875 801.455078125 49.951171875 872.065429688 c 0
 49.951171875 942.676757812 107.396484375 1000.11914062 178 1000.11914062 c 0
 248.603515625 1000.11914062 306.048828125 942.676757812 306.048828125 872.065429688 c 0
 306.048828125 801.455078125 248.603515625 744.012695312 178 744.012695312 c 0
178 888.116210938 m 0
 169.1484375 888.116210938 161.953125 880.91796875 161.953125 872.065429688 c 0
 161.953125 863.213867188 169.1484375 856.015625 178 856.015625 c 0
 186.8515625 856.015625 194.046875 863.213867188 194.046875 872.065429688 c 0
 194.046875 880.91796875 186.8515625 888.116210938 178 888.116210938 c 0
EndSplineSet
EndChar

StartChar: plusminus
Encoding: 177 177 121
Width: 700
VWidth: 1000
Flags: HW
LayerCount: 2
Fore
SplineSet
49.994140625 3.9970703125 m 1
 49.994140625 144 l 1
 650.005859375 144 l 1
 650.005859375 3.9970703125 l 1
 49.994140625 3.9970703125 l 1
650.005859375 604.009765625 m 1
 650.005859375 464.005859375 l 1
 420 464.005859375 l 1
 420 234.001953125 l 1
 279.998046875 234.001953125 l 1
 279.998046875 464.005859375 l 1
 49.994140625 464.005859375 l 1
 49.994140625 604.009765625 l 1
 279.998046875 604.009765625 l 1
 279.998046875 834.014648438 l 1
 420 834.014648438 l 1
 420 604.009765625 l 1
 650.005859375 604.009765625 l 1
EndSplineSet
EndChar

StartChar: acute
Encoding: 180 180 122
Width: 436
VWidth: 1000
Flags: HW
LayerCount: 2
Fore
SplineSet
386.203125 1000.01757812 m 1
 220.520507812 856.015625 l 1
 49.796875 856.015625 l 1
 215.48046875 1000.01757812 l 1
 386.203125 1000.01757812 l 1
EndSplineSet
EndChar

StartChar: mu
Encoding: 181 181 123
Width: 576
VWidth: 1000
Flags: HW
LayerCount: 2
Fore
SplineSet
526.004882812 520.0078125 m 1
 526.004882812 -0.0029296875 l 1
 414.001953125 -0.0029296875 l 1
 414.001953125 11.837890625 l 1
 386.000976562 0.3173828125 356.001953125 -6.3232421875 325.359375 -7.6826171875 c 0
 321.598632812 -7.9228515625 317.840820312 -8.001953125 314 -8.001953125 c 0
 257.436523438 -8.001953125 204.956054688 9.837890625 161.997070312 40.3173828125 c 1
 161.997070312 -280.008789062 l 1
 49.9951171875 -280.008789062 l 1
 49.9951171875 520.0078125 l 1
 161.997070312 520.0078125 l 1
 161.997070312 256.002929688 l 2
 161.997070312 172.161132812 230.155273438 103.999023438 314 103.999023438 c 0
 315.59765625 103.999023438 317.1171875 104.080078125 318.641601562 104.16015625 c 2
 319.91796875 104.16015625 l 2
 355.200195312 105.520507812 388.000976562 118.640625 414.001953125 141.520507812 c 2
 414.001953125 520.0078125 l 1
 526.004882812 520.0078125 l 1
EndSplineSet
EndChar

StartChar: periodcentered
Encoding: 183 183 124
Width: 212
VWidth: 1000
Flags: HW
HStem: 408.006 112.002<49.999 162.001>
VStem: 49.999 112.002<408.006 520.008>
LayerCount: 2
Fore
SplineSet
49.9990234375 408.005859375 m 1
 49.9990234375 520.0078125 l 1
 162.000976562 520.0078125 l 1
 162.000976562 408.005859375 l 1
 49.9990234375 408.005859375 l 1
EndSplineSet
EndChar

StartChar: cedilla
Encoding: 184 184 125
Width: 332
VWidth: 1000
Flags: HW
LayerCount: 2
Fore
SplineSet
137.884765625 -176.099609375 m 1
 137.962890625 -176.099609375 l 1
 137.884765625 -176.099609375 l 1
49.998046875 -143.606445312 m 1
 78.158203125 -160.005859375 l 2
 94.87890625 -169.766601562 114.080078125 -175.205078125 133.599609375 -175.845703125 c 2
 141.19921875 -175.845703125 l 2
 157.439453125 -174.326171875 170 -160.565429688 170 -144.005859375 c 0
 170 -126.32421875 155.6796875 -112.005859375 138 -112.005859375 c 2
 75.837890625 -112.005859375 l 1
 93.51953125 55.9990234375 l 1
 206.080078125 55.9990234375 l 1
 198.80078125 -13.4423828125 l 1
 247.921875 -36.4033203125 282.001953125 -86.32421875 282.001953125 -144.005859375 c 0
 282.001953125 -220.006835938 222.880859375 -282.967773438 147.19921875 -287.688476562 c 0
 144.16015625 -287.927734375 141.119140625 -288.008789062 138 -288.008789062 c 0
 135.279296875 -288.008789062 132.55859375 -287.927734375 129.919921875 -287.768554688 c 0
 102.3984375 -286.888671875 75.27734375 -281.048828125 49.998046875 -270.647460938 c 2
 49.998046875 -143.606445312 l 1
EndSplineSet
EndChar

StartChar: guillemotright
Encoding: 187 187 126
Width: 829
VWidth: 1000
Flags: HW
LayerCount: 2
Fore
SplineSet
414.458007812 451.447265625 m 1
 414.458007812 588.649414062 l 1
 779.348632812 330.563476562 l 1
 779.348632812 193.44140625 l 1
 414.458007812 -64.6435546875 l 1
 414.458007812 72.55859375 l 1
 682.38671875 262.002929688 l 1
 414.458007812 451.447265625 l 1
49.6513671875 451.447265625 m 1
 49.6513671875 588.649414062 l 1
 414.541015625 330.563476562 l 1
 414.541015625 193.44140625 l 1
 49.6513671875 -64.6435546875 l 1
 49.6513671875 72.55859375 l 1
 317.578125 262.002929688 l 1
 49.6513671875 451.447265625 l 1
EndSplineSet
EndChar

StartChar: questiondown
Encoding: 191 191 127
Width: 544
VWidth: 1000
Flags: HW
LayerCount: 2
Fore
SplineSet
325.629882812 481.998046875 m 1
 213.62890625 481.998046875 l 1
 213.612304688 420.07421875 l 2
 213.612304688 413.265625 214.151367188 406.368164062 215.260742188 398.90234375 c 0
 220.885742188 362.078125 242.44921875 328.342773438 274.442382812 306.095703125 c 2
 338.833984375 261.302734375 l 2
 341.669921875 259.318359375 342.630859375 258.279296875 342.669921875 258.236328125 c 0
 396.655273438 199.4375 394.7109375 109.560546875 338.498046875 53.3486328125 c 0
 310.536132812 25.3876953125 273.35546875 9.98828125 233.807617188 9.98828125 c 0
 194.26953125 9.98828125 157.088867188 25.3876953125 129.134765625 53.3486328125 c 1
 49.9296875 -25.84765625 l 1
 99.0478515625 -74.966796875 164.353515625 -102.013671875 233.807617188 -102.013671875 c 0
 303.270507812 -102.013671875 368.576171875 -74.966796875 417.6953125 -25.84765625 c 0
 516.462890625 72.9150390625 519.860351562 230.852539062 425.421875 333.709960938 c 0
 419.328125 340.4375 411.875 346.893554688 402.897460938 353.171875 c 2
 338.388671875 398.046875 l 2
 331.590820312 402.774414062 326.965820312 409.325195312 326.013671875 415.583007812 c 0
 325.755859375 417.286132812 325.615234375 418.801757812 325.615234375 419.973632812 c 1
 325.629882812 419.973632812 l 1
 325.629882812 481.998046875 l 1
213.62890625 706.002929688 m 1
 213.62890625 594.000976562 l 1
 325.631835938 594.000976562 l 1
 325.631835938 706.002929688 l 1
 213.62890625 706.002929688 l 1
EndSplineSet
EndChar

StartChar: multiply
Encoding: 215 215 129
Width: 623
VWidth: 1000
Flags: HW
LayerCount: 2
Fore
SplineSet
573.134765625 231.368164062 m 1
 474.137695312 132.37109375 l 1
 311.500976562 295.0078125 l 1
 148.862304688 132.37109375 l 1
 49.865234375 231.368164062 l 1
 212.50390625 394.004882812 l 1
 49.865234375 556.643554688 l 1
 148.862304688 655.640625 l 1
 311.500976562 493.001953125 l 1
 474.137695312 655.640625 l 1
 573.134765625 556.643554688 l 1
 410.497070312 394.004882812 l 1
 573.134765625 231.368164062 l 1
EndSplineSet
EndChar

StartChar: Oslash
Encoding: 216 216 130
Width: 943
VWidth: 1000
Flags: HW
HStem: -6.00195 112.001<362.706 583.257> 698.012 112.002<363.266 583.795> 780.014 20G<727.638 893.427>
VStem: 65.2539 112.001<291.719 512> 769.268 112.002<292.01 512.291>
LayerCount: 2
Fore
SplineSet
893.426757812 800.013671875 m 1xb8
 780.549804688 670.090820312 l 1
 843.268554688 598.329101562 881.26953125 504.487304688 881.26953125 402.004882812 c 0
 881.26953125 177.041015625 698.2265625 -6.001953125 473.26171875 -6.001953125 c 0
 391.103515625 -6.001953125 314.5390625 18.3974609375 250.459960938 60.318359375 c 1
 197.974609375 -0.0029296875 l 1
 49.5732421875 -0.0029296875 l 1
 165.973632812 133.919921875 l 1
 103.25390625 205.681640625 65.25390625 299.5234375 65.25390625 402.004882812 c 0
 65.25390625 626.970703125 248.296875 810.013671875 473.26171875 810.013671875 c 0xd8
 555.418945312 810.013671875 631.983398438 785.61328125 696.0625 743.692382812 c 1
 745.024414062 800.013671875 l 1
 893.426757812 800.013671875 l 1xb8
177.254882812 402.004882812 m 0
 177.254882812 333.204101562 200.857421875 269.76171875 240.373046875 219.442382812 c 1
 621.584960938 658.090820312 l 1
 577.982421875 683.451171875 527.262695312 698.01171875 473.26171875 698.01171875 c 0
 310.0546875 698.01171875 177.254882812 565.208984375 177.254882812 402.004882812 c 0
769.267578125 402.004882812 m 0
 769.267578125 470.806640625 745.666015625 534.249023438 706.149414062 584.568359375 c 1
 324.859375 146 l 1
 368.541015625 120.559570312 419.182617188 105.999023438 473.26171875 105.999023438 c 0
 636.467773438 105.999023438 769.267578125 238.801757812 769.267578125 402.004882812 c 0
EndSplineSet
EndChar

StartChar: germandbls
Encoding: 223 223 132
Width: 699
VWidth: 1000
Flags: HW
HStem: -4 112.003<303.401 468.675> 3.99707 21G<161.773 273.775> 408.006 112.002<49.7715 161.773 273.775 455.139> 695.932 112.002<277.439 391.087>
VStem: 161.773 112.002<3.99707 408.006 520.008 695.294> 496.186 112.002<134.926 241.61>
LayerCount: 2
Fore
SplineSet
608.1875 188.00390625 m 0x7c
 608.1875 82.162109375 522.021484375 -4 416.18359375 -4 c 0
 413.69921875 -4 411.30078125 -4 408.81640625 -3.9189453125 c 0
 372.18359375 -3.359375 336.33984375 1.4404296875 301.775390625 10.240234375 c 1
 301.775390625 126.962890625 l 1
 336.41796875 115.123046875 373.22265625 108.642578125 411.060546875 108.08203125 c 2
 416.498046875 108.002929688 l 2xbc
 460.498046875 108.163085938 496.185546875 144.00390625 496.185546875 188.00390625 c 0
 496.185546875 220.084960938 477.138671875 248.965820312 447.623046875 261.526367188 c 2
 389.54296875 286.325195312 l 1
 455.138671875 408.005859375 l 1
 273.775390625 408.005859375 l 1
 273.775390625 3.9970703125 l 1
 161.7734375 3.9970703125 l 1
 161.7734375 408.005859375 l 1
 49.771484375 408.005859375 l 1
 49.771484375 520.0078125 l 1
 161.7734375 520.0078125 l 1
 161.7734375 668.01171875 l 2
 161.7734375 742.65234375 220.095703125 804.09375 294.580078125 807.853515625 c 2
 294.658203125 807.853515625 l 2
 296.900390625 808.013671875 299.455078125 807.93359375 301.775390625 808.013671875 c 0
 303.775390625 808.013671875 305.861328125 808.013671875 307.861328125 807.93359375 c 0
 354.73828125 807.053710938 400.41796875 795.614257812 441.779296875 774.493164062 c 1
 441.779296875 637.44921875 l 1
 436.49609375 642.41015625 l 2
 428.341796875 650.169921875 419.62109375 657.130859375 410.66015625 663.130859375 c 0
 379.54296875 683.931640625 343.22265625 695.291015625 305.62109375 695.931640625 c 2
 299.220703125 695.931640625 l 2
 284.900390625 694.651367188 273.775390625 682.5703125 273.775390625 668.01171875 c 2
 273.775390625 520.0078125 l 1
 649.228515625 520.0078125 l 1
 544.5859375 330.806640625 l 1
 584.421875 295.045898438 608.1875 243.525390625 608.1875 188.00390625 c 0x7c
EndSplineSet
EndChar

StartChar: uni02CA
Encoding: 714 714 133
Width: 436
VWidth: 1000
Flags: HW
LayerCount: 2
Fore
SplineSet
386.203125 1000.01757812 m 1
 220.520507812 856.015625 l 1
 49.796875 856.015625 l 1
 215.48046875 1000.01757812 l 1
 386.203125 1000.01757812 l 1
EndSplineSet
EndChar

StartChar: uni02CB
Encoding: 715 715 134
Width: 436
VWidth: 1000
Flags: HW
LayerCount: 2
Fore
SplineSet
220.520507812 1000.01757812 m 1
 386.203125 856.015625 l 1
 215.48046875 856.015625 l 1
 49.796875 1000.01757812 l 1
 220.520507812 1000.01757812 l 1
EndSplineSet
EndChar

StartChar: uni02C9
Encoding: 713 713 135
Width: 548
VWidth: 1000
Flags: HW
LayerCount: 2
Fore
SplineSet
49.99609375 856.015625 m 1
 49.99609375 968.016601562 l 1
 498.00390625 968.016601562 l 1
 498.00390625 856.015625 l 1
 49.99609375 856.015625 l 1
EndSplineSet
EndChar

StartChar: circumflex
Encoding: 710 710 136
Width: 496
VWidth: 1000
Flags: HW
LayerCount: 2
Fore
SplineSet
446.00390625 890.877929688 m 1
 366.802734375 811.676757812 l 1
 248 930.478515625 l 1
 129.197265625 811.676757812 l 1
 49.99609375 890.877929688 l 1
 169.119140625 1010 l 1
 326.883789062 1010 l 1
 446.00390625 890.877929688 l 1
EndSplineSet
EndChar

StartChar: ring
Encoding: 730 730 137
Width: 356
VWidth: 1000
Flags: HW
LayerCount: 2
Fore
SplineSet
178 744.012695312 m 0
 107.396484375 744.012695312 49.951171875 801.455078125 49.951171875 872.065429688 c 0
 49.951171875 942.676757812 107.396484375 1000.11914062 178 1000.11914062 c 0
 248.603515625 1000.11914062 306.048828125 942.676757812 306.048828125 872.065429688 c 0
 306.048828125 801.455078125 248.603515625 744.012695312 178 744.012695312 c 0
178 888.116210938 m 0
 169.1484375 888.116210938 161.953125 880.91796875 161.953125 872.065429688 c 0
 161.953125 863.213867188 169.1484375 856.015625 178 856.015625 c 0
 186.8515625 856.015625 194.046875 863.213867188 194.046875 872.065429688 c 0
 194.046875 880.91796875 186.8515625 888.116210938 178 888.116210938 c 0
EndSplineSet
EndChar

StartChar: uni0327
Encoding: 807 807 139
Width: 332
VWidth: 1000
Flags: HW
LayerCount: 2
Fore
SplineSet
137.884765625 -176.099609375 m 1
 137.962890625 -176.099609375 l 1
 137.884765625 -176.099609375 l 1
49.998046875 -143.606445312 m 1
 78.158203125 -160.005859375 l 2
 94.87890625 -169.766601562 114.080078125 -175.205078125 133.599609375 -175.845703125 c 2
 141.19921875 -175.845703125 l 2
 157.439453125 -174.326171875 170 -160.565429688 170 -144.005859375 c 0
 170 -126.32421875 155.6796875 -112.005859375 138 -112.005859375 c 2
 75.837890625 -112.005859375 l 1
 93.51953125 55.9990234375 l 1
 206.080078125 55.9990234375 l 1
 198.80078125 -13.4423828125 l 1
 247.921875 -36.4033203125 282.001953125 -86.32421875 282.001953125 -144.005859375 c 0
 282.001953125 -220.006835938 222.880859375 -282.967773438 147.19921875 -287.688476562 c 0
 144.16015625 -287.927734375 141.119140625 -288.008789062 138 -288.008789062 c 0
 135.279296875 -288.008789062 132.55859375 -287.927734375 129.919921875 -287.768554688 c 0
 102.3984375 -286.888671875 75.27734375 -281.048828125 49.998046875 -270.647460938 c 2
 49.998046875 -143.606445312 l 1
EndSplineSet
EndChar

StartChar: gravecomb
Encoding: 768 768 140
Width: 436
VWidth: 1000
Flags: W
HStem: 856.016 144.002<215.48 220.521>
LayerCount: 2
Fore
SplineSet
220.520507812 1000.01757812 m 1
 386.203125 856.015625 l 1
 215.48046875 856.015625 l 1
 49.796875 1000.01757812 l 1
 220.520507812 1000.01757812 l 1
EndSplineSet
EndChar

StartChar: acutecomb
Encoding: 769 769 141
Width: 436
VWidth: 1000
Flags: W
HStem: 856.016 144.002<215.48 220.521>
LayerCount: 2
Fore
SplineSet
386.203125 1000.01757812 m 1
 220.520507812 856.015625 l 1
 49.796875 856.015625 l 1
 215.48046875 1000.01757812 l 1
 386.203125 1000.01757812 l 1
EndSplineSet
EndChar

StartChar: uni0302
Encoding: 770 770 142
Width: 496
VWidth: 1000
Flags: W
HStem: 835 198.323
LayerCount: 2
Fore
SplineSet
446.00390625 914.201171875 m 1
 366.802734375 835 l 1
 248 953.801757812 l 1
 129.197265625 835 l 1
 49.99609375 914.201171875 l 1
 169.119140625 1033.32324219 l 1
 326.883789062 1033.32324219 l 1
 446.00390625 914.201171875 l 1
EndSplineSet
EndChar

StartChar: tildecomb
Encoding: 771 771 143
Width: 582
VWidth: 1000
Flags: W
HStem: 801 246.405
LayerCount: 2
Fore
SplineSet
532.084960938 903.2421875 m 1
 480.244140625 861.2421875 l 2
 445.36328125 833.000976562 401.602539062 820.041015625 356.9609375 824.760742188 c 0
 312.3203125 829.401367188 272.239257812 851.2421875 243.999023438 886.122070312 c 0
 224.55859375 910.043945312 189.198242188 913.802734375 165.197265625 894.362304688 c 2
 49.9150390625 801 l 1
 49.9150390625 945.083007812 l 1
 94.7158203125 981.404296875 l 2
 166.717773438 1039.72558594 272.719726562 1028.52539062 331.040039062 956.603515625 c 0
 340.401367188 944.923828125 353.841796875 937.723632812 368.640625 936.124023438 c 0
 383.521484375 934.602539062 398.162109375 938.842773438 409.762695312 948.284179688 c 2
 532.084960938 1047.40527344 l 1
 532.084960938 903.2421875 l 1
EndSplineSet
EndChar

StartChar: uni0304
Encoding: 772 772 144
Width: 548
VWidth: 1000
Flags: HW
LayerCount: 2
Fore
SplineSet
49.99609375 856.015625 m 1
 49.99609375 968.016601562 l 1
 498.00390625 968.016601562 l 1
 498.00390625 856.015625 l 1
 49.99609375 856.015625 l 1
EndSplineSet
EndChar

StartChar: uni0308
Encoding: 776 776 145
Width: 436
VWidth: 1000
Flags: W
HStem: 856.016 112.001<49.9971 161.999 274.002 386.003>
VStem: 49.9971 112.002<856.016 968.017> 274.002 112.001<856.016 968.017>
LayerCount: 2
Fore
SplineSet
49.9970703125 856.015625 m 1
 49.9970703125 968.016601562 l 1
 161.999023438 968.016601562 l 1
 161.999023438 856.015625 l 1
 49.9970703125 856.015625 l 1
274.001953125 856.015625 m 1
 274.001953125 968.016601562 l 1
 386.002929688 968.016601562 l 1
 386.002929688 856.015625 l 1
 274.001953125 856.015625 l 1
EndSplineSet
EndChar

StartChar: uni030A
Encoding: 778 778 147
Width: 356
VWidth: 1000
Flags: W
HStem: 744.013 256.106
VStem: 49.9512 256.098
LayerCount: 2
Fore
SplineSet
178 744.012695312 m 0
 107.396484375 744.012695312 49.951171875 801.455078125 49.951171875 872.065429688 c 0
 49.951171875 942.676757812 107.396484375 1000.11914062 178 1000.11914062 c 0
 248.603515625 1000.11914062 306.048828125 942.676757812 306.048828125 872.065429688 c 0
 306.048828125 801.455078125 248.603515625 744.012695312 178 744.012695312 c 0
178 888.116210938 m 0
 169.1484375 888.116210938 161.953125 880.91796875 161.953125 872.065429688 c 0
 161.953125 863.213867188 169.1484375 856.015625 178 856.015625 c 0
 186.8515625 856.015625 194.046875 863.213867188 194.046875 872.065429688 c 0
 194.046875 880.91796875 186.8515625 888.116210938 178 888.116210938 c 0
EndSplineSet
EndChar

StartChar: AE
Encoding: 198 198 153
Width: 1003
VWidth: 1000
Flags: HW
LayerCount: 2
Fore
SplineSet
953.106445312 688.010742188 m 1
 549.099609375 688.010742188 l 1
 549.099609375 520.0078125 l 1
 824.151367188 520.0078125 l 1
 824.151367188 408.005859375 l 1
 549.099609375 408.005859375 l 1
 549.099609375 116 l 1
 953.106445312 116 l 1
 953.106445312 3.9970703125 l 1
 437.096679688 3.9970703125 l 1
 437.096679688 228.801757812 l 1
 263.178710938 228.801757812 l 1
 170.935546875 3.9970703125 l 1
 49.8935546875 3.9970703125 l 1
 142.13671875 228.801757812 l 1
 188.138671875 340.803710938 l 1
 376.540039062 800.013671875 l 1
 953.106445312 800.013671875 l 1
 953.106445312 688.010742188 l 1
437.096679688 340.803710938 m 1
 437.096679688 652.491210938 l 1
 309.180664062 340.803710938 l 1
 437.096679688 340.803710938 l 1
EndSplineSet
EndChar

StartChar: Eth
Encoding: 208 208 168
Width: 804
VWidth: 1000
Flags: HW
HStem: 3.99707 112.003<262 460.761> 380.006 140.002<49.9902 149.998 262 499.998> 688.011 112.003<262 460.761>
VStem: 149.998 112.002<116 380.006 520.008 688.011> 642.008 112.002<295.212 508.799>
LayerCount: 2
Fore
SplineSet
356.001953125 116 m 2
 513.685546875 116 642.0078125 244.322265625 642.0078125 402.004882812 c 0
 642.0078125 559.688476562 513.685546875 688.010742188 356.001953125 688.010742188 c 2
 262 688.010742188 l 1
 262 520.0078125 l 1
 499.998046875 520.0078125 l 1
 499.998046875 380.005859375 l 1
 262 380.005859375 l 1
 262 116 l 1
 356.001953125 116 l 2
356.001953125 800.013671875 m 2
 575.4453125 800.013671875 754.009765625 621.450195312 754.009765625 402.004882812 c 0
 754.009765625 182.561523438 575.4453125 3.9970703125 356.001953125 3.9970703125 c 2
 149.998046875 3.9970703125 l 1
 149.998046875 380.005859375 l 1
 49.990234375 380.005859375 l 1
 49.990234375 520.0078125 l 1
 149.998046875 520.0078125 l 1
 149.998046875 800.013671875 l 1
 356.001953125 800.013671875 l 2
EndSplineSet
EndChar

StartChar: dotlessi
Encoding: 305 305 199
Width: 212
VWidth: 1000
Flags: W
HStem: 3.99707 21G<49.999 162.001> 500.008 20G<49.999 162.001>
VStem: 49.999 112.002<3.99707 520.008>
LayerCount: 2
Fore
SplineSet
49.9990234375 3.9970703125 m 1
 49.9990234375 520.0078125 l 1
 162.000976562 520.0078125 l 1
 162.000976562 3.9970703125 l 1
 49.9990234375 3.9970703125 l 1
EndSplineSet
EndChar

StartChar: Thorn
Encoding: 222 222 200
Width: 548
VWidth: 1000
Flags: HW
HStem: 3.99707 21G<49.9961 161.998> 235.992 112.002<161.998 355.6> 515.997 112.003<161.998 355.6> 781 20G<49.9961 161.996>
VStem: 49.9961 112.002<3.99707 235.992 347.994 515.997 628 801> 386.002 112.002<376.97 487.022>
LayerCount: 2
Fore
SplineSet
302 347.994140625 m 2
 348.322265625 347.994140625 386.001953125 385.674804688 386.001953125 431.99609375 c 0
 386.001953125 478.31640625 348.322265625 515.997070312 302 515.997070312 c 2
 161.998046875 515.997070312 l 1
 161.998046875 347.994140625 l 1
 302 347.994140625 l 2
302 628 m 2
 410.083984375 628 498.00390625 540.078125 498.00390625 431.99609375 c 0
 498.00390625 323.9140625 410.083984375 235.9921875 302 235.9921875 c 2
 161.998046875 235.9921875 l 1
 161.998046875 3.9970703125 l 1
 49.99609375 3.9970703125 l 1
 49.99609375 801 l 1
 161.99609375 801 l 1
 161.99609375 628 l 1
 302 628 l 2
EndSplineSet
EndChar

StartChar: eth
Encoding: 240 240 201
Width: 627
VWidth: 1024
Flags: HW
HStem: 386.159 92.0811<280.399 391.27>
VStem: 462.811 114.237<192.804 326.176>
LayerCount: 2
Fore
SplineSet
254.887695312 118.908203125 m 0
 184.404296875 150.458984375 152.853515625 233.147460938 184.483398438 303.6328125 c 0
 206.640625 353.1640625 254.005859375 383.430664062 304.662109375 386.159179688 c 0
 326.017578125 385.999023438 346.568359375 382.305664062 365.674804688 375.482421875 c 0
 406.135742188 361.353515625 440.333984375 333.81640625 462.8125 298.092773438 c 1
 462.8125 298.01171875 l 2
 461.768554688 269.19140625 456.7109375 241.014648438 448.041015625 214.120117188 c 0
 448.041015625 213.879882812 447.961914062 213.638671875 447.799804688 213.397460938 c 0
 445.955078125 205.290039062 443.143554688 197.181640625 439.612304688 189.314453125 c 0
 438.166992188 186.1015625 436.642578125 182.892578125 434.956054688 179.841796875 c 0
 434.71484375 179.440429688 434.5546875 179.118164062 434.39453125 178.797851562 c 0
 399.6328125 115.778320312 321.760742188 88.884765625 254.887695312 118.908203125 c 0
134.87109375 427.502929688 m 0
 34.8427734375 329.642578125 33.15625 169.244140625 131.017578125 69.2958984375 c 0
 160.239257812 39.3515625 195 18.23828125 232.169921875 6.03515625 c 1
 232.249023438 6.03515625 l 1
 293.262695312 -14.193359375 360.45703125 -10.5810546875 419.301757812 16.9541015625 c 0
 444.5078125 28.6748046875 468.19140625 44.8916015625 489.224609375 65.4423828125 c 0
 514.352539062 90.0078125 533.21875 118.427734375 545.901367188 148.93359375 c 0
 546.0625 149.334960938 546.22265625 149.65625 546.303710938 149.9765625 c 0
 547.346679688 152.465820312 548.310546875 154.874023438 549.193359375 157.36328125 c 0
 549.353515625 157.442382812 549.353515625 157.603515625 549.2734375 157.68359375 c 0
 549.99609375 159.530273438 550.71875 161.456054688 551.44140625 163.383789062 c 0
 551.521484375 163.543945312 551.6015625 163.78515625 551.6015625 163.9453125 c 0
 569.90625 214.682617188 578.576171875 268.629882812 577.049804688 322.819335938 c 0
 576.247070312 348.508789062 573.196289062 374.197265625 567.73828125 399.646484375 c 0
 567.73828125 399.806640625 567.658203125 400.047851562 567.658203125 400.208984375 c 0
 564.045898438 417.067382812 559.389648438 433.764648438 553.608398438 450.22265625 c 0
 537.446289062 500.3984375 515.329101562 547.908203125 488.08984375 591.916992188 c 1
 576.221679688 604 l 1
 561.008789062 714.96484375 l 1
 409.74609375 694.227539062 l 1
 365.712890625 741.25 314.75390625 781.708984375 258.501953125 813.969726562 c 1
 203.830078125 735.857421875 l 1
 193.795898438 721.486328125 l 1
 218.935546875 707.688476562 242.848632812 691.93359375 265.330078125 674.428710938 c 1
 49.779296875 644.876953125 l 1
 64.9921875 533.912109375 l 1
 363.653320312 574.857421875 l 1
 387.3671875 543.596679688 407.727539062 509.659179688 424.198242188 473.583984375 c 1
 420.90625 475.349609375 417.615234375 476.875 414.32421875 478.240234375 c 2
 414.244140625 478.240234375 l 1
 371.293945312 497.266601562 324.08984375 503.688476562 278.25 497.5078125 c 0
 278.169921875 497.586914062 278.08984375 497.586914062 277.928710938 497.5078125 c 0
 225.827148438 490.443359375 175.412109375 467.161132812 134.87109375 427.502929688 c 0
EndSplineSet
EndChar

StartChar: oslash
Encoding: 248 248 202
Width: 680
VWidth: 1000
Flags: HW
LayerCount: 2
Fore
SplineSet
332.345703125 408.005859375 m 0
 248.532226562 408.005859375 180.342773438 339.81640625 180.342773438 256.002929688 c 0
 180.342773438 237.704101562 183.592773438 220.149414062 189.546875 203.88671875 c 1
 384.461914062 398.801757812 l 1
 368.19921875 404.755859375 350.64453125 408.005859375 332.345703125 408.005859375 c 0
149.340820312 -35 m 1
 50 64.33984375 l 1
 105.958007812 120.297851562 l 1
 82.0830078125 159.978515625 68.3408203125 206.416015625 68.3408203125 256.002929688 c 0
 68.3408203125 401.576171875 186.772460938 520.0078125 332.345703125 520.0078125 c 0
 381.932617188 520.0078125 428.370117188 506.265625 468.05078125 482.390625 c 1
 530.66015625 545 l 1
 630 445.659179688 l 1
 565.015625 380.674804688 l 1
 585.002929688 343.5234375 596.350585938 301.063476562 596.350585938 256.002929688 c 0
 596.350585938 110.4296875 477.918945312 -8.001953125 332.345703125 -8.001953125 c 0
 287.28515625 -8.001953125 244.825195312 3.345703125 207.673828125 23.3330078125 c 1
 149.340820312 -35 l 1
293.396484375 109.055664062 m 1
 305.83203125 105.756835938 318.887695312 103.999023438 332.345703125 103.999023438 c 0
 416.16015625 103.999023438 484.349609375 172.1875 484.349609375 256.002929688 c 0
 484.349609375 269.4609375 482.591796875 282.516601562 479.29296875 294.952148438 c 1
 293.396484375 109.055664062 l 1
EndSplineSet
EndChar

StartChar: thorn
Encoding: 254 254 203
Width: 586
VWidth: 1000
Flags: HW
HStem: -288.009 21G<49.7939 161.796> -8.00195 112.001<194.739 349.222> 408.006 112.002<194.739 349.222> 780 20G<49.7939 161.796>
VStem: 49.7939 112.002<-288.009 15.9971 132.383 379.623 496.007 800> 424.203 112.003<178.98 333.025>
LayerCount: 2
Fore
SplineSet
272.201171875 520.0078125 m 0
 417.80078125 520.0078125 536.206054688 401.60546875 536.206054688 256.002929688 c 0
 536.206054688 110.399414062 417.80078125 -8.001953125 272.201171875 -8.001953125 c 0
 233.239257812 -8.001953125 195.87890625 0.3173828125 161.795898438 15.9970703125 c 1
 161.795898438 -288.008789062 l 1
 49.7939453125 -288.008789062 l 1
 49.7939453125 800 l 1
 161.795898438 800 l 1
 161.795898438 496.006835938 l 1
 195.87890625 511.688476562 233.239257812 520.0078125 272.201171875 520.0078125 c 0
272.201171875 103.999023438 m 0
 356.041992188 103.999023438 424.203125 172.161132812 424.203125 256.002929688 c 0
 424.203125 339.84375 356.041992188 408.005859375 272.201171875 408.005859375 c 0
 229.797851562 408.005859375 190.4375 390.885742188 161.795898438 360.485351562 c 2
 161.795898438 151.520507812 l 2
 190.4375 121.120117188 229.797851562 103.999023438 272.201171875 103.999023438 c 0
EndSplineSet
EndChar

StartChar: longs
Encoding: 383 383 267
Width: 380
VWidth: 1000
Flags: HW
LayerCount: 2
Fore
SplineSet
162 408.005859375 m 1
 162 11.9970703125 l 1
 49.9970703125 11.9970703125 l 1
 49.9970703125 408.005859375 l 1
 49.9970703125 520.0078125 l 1
 49.9970703125 668.01171875 l 2
 49.9970703125 742.65234375 108.396484375 804.09375 182.87890625 807.853515625 c 0
 186.15625 808.09375 189.918945312 808.09375 193.6796875 807.93359375 c 2
 195.840820312 807.93359375 l 2
 196.321289062 807.93359375 196.879882812 807.93359375 197.360351562 807.853515625 c 0
 242.560546875 807.29296875 287.119140625 800.25390625 330.002929688 787.133789062 c 1
 330.002929688 668.651367188 l 1
 311.280273438 675.290039062 l 2
 273.599609375 688.651367188 234.079101562 695.612304688 193.840820312 695.931640625 c 2
 191.27734375 696.01171875 l 1
 188.477539062 696.01171875 l 2
 173.6796875 695.291015625 162 682.970703125 162 668.01171875 c 2
 162 520.0078125 l 1
 162 408.005859375 l 1
EndSplineSet
EndChar

StartChar: ae
Encoding: 230 230 270
Width: 977
VWidth: 1000
Flags: HW
LayerCount: 2
Fore
SplineSet
927.028320312 256.002929688 m 2
 927.028320312 200.000976562 l 1
 524.78125 200.000976562 l 1
 553.661132812 143.83984375 624.541992188 103.999023438 707.184570312 103.999023438 c 0
 793.264648438 103.999023438 869.428710938 120.479492188 927.028320312 145.201171875 c 1
 927.028320312 25.5986328125 l 1
 862.545898438 4.1572265625 787.744140625 -8.001953125 707.184570312 -8.001953125 c 0
 630.143554688 -8.001953125 559.661132812 16.318359375 505.5 56.55859375 c 0
 491.01953125 48.23828125 451.178710938 27.1982421875 399.498046875 14.796875 c 0
 333.895507812 -0.9619140625 272.45703125 -7.2021484375 205.974609375 -7.2021484375 c 0
 119.97265625 -7.2021484375 49.9716796875 62.798828125 49.9716796875 148.799804688 c 0
 49.9716796875 234.801757812 119.97265625 304.802734375 205.974609375 304.802734375 c 0
 271.655273438 304.802734375 335.336914062 313.364257812 395.978515625 329.36328125 c 0
 394.537109375 334.883789062 392.537109375 340.32421875 390.138671875 345.604492188 c 0
 376.376953125 375.60546875 345.736328125 397.4453125 310.0546875 402.485351562 c 0
 299.015625 404.004882812 287.81640625 405.125976562 276.694335938 405.765625 c 0
 269.174804688 406.166015625 261.252929688 406.405273438 253.495117188 406.405273438 c 0
 202.456054688 406.405273438 152.774414062 397.044921875 105.97265625 378.565429688 c 1
 226.931640625 517.688476562 l 2
 235.733398438 518.16796875 244.616210938 518.408203125 253.495117188 518.408203125 c 0
 263.334960938 518.408203125 273.252929688 518.16796875 282.93359375 517.607421875 c 0
 297.25390625 516.807617188 311.57421875 515.3671875 325.735351562 513.3671875 c 0
 383.255859375 505.208007812 433.659179688 476.166992188 467.256835938 432.966796875 c 1
 515.661132812 486.407226562 585.501953125 520.0078125 663.022460938 520.0078125 c 0
 808.627929688 520.0078125 927.028320312 401.60546875 927.028320312 256.002929688 c 2
399.498046875 130.319335938 m 1
 399.498046875 214.80078125 l 1
 337.25390625 200.401367188 272.45703125 192.801757812 205.974609375 192.801757812 c 0
 181.732421875 192.801757812 161.973632812 173.041015625 161.973632812 148.799804688 c 0
 161.973632812 124.559570312 181.732421875 104.798828125 205.974609375 104.798828125 c 0
 272.85546875 104.798828125 337.734375 113.6796875 399.498046875 130.319335938 c 1
521.739257812 312.00390625 m 1
 804.306640625 312.00390625 l 1
 781.986328125 368.165039062 727.106445312 408.005859375 663.022460938 408.005859375 c 0
 598.939453125 408.005859375 544.059570312 368.165039062 521.739257812 312.00390625 c 1
EndSplineSet
EndChar

StartChar: divide
Encoding: 247 247 271
Width: 740
VWidth: 1000
Flags: HW
LayerCount: 2
Fore
SplineSet
313.293945312 622 m 1
 313.293945312 734.392578125 l 1
 425.684570312 734.392578125 l 1
 425.684570312 622 l 1
 313.293945312 622 l 1
313.293945312 169.607421875 m 1
 313.293945312 282 l 1
 425.684570312 282 l 1
 425.684570312 169.607421875 l 1
 313.293945312 169.607421875 l 1
49.6845703125 378.534179688 m 1
 49.6845703125 519.022460938 l 1
 690.315429688 519.022460938 l 1
 690.315429688 378.534179688 l 1
 49.6845703125 378.534179688 l 1
EndSplineSet
EndChar
